<?xml version="1.0" encoding="UTF-8"?><svg id="a" xmlns="http://www.w3.org/2000/svg" xmlns:xlink="http://www.w3.org/1999/xlink" viewBox="0 0 400 100"><defs><linearGradient id="c" x1="108.201" y1="57.63" x2="142.243" y2="57.63" gradientTransform="translate(0 102) scale(1 -1)" gradientUnits="userSpaceOnUse"><stop offset="0" stop-color="#ed1c24"/><stop offset="1" stop-color="#c4161c"/></linearGradient><linearGradient id="d" x1="85.475" y1="57.83" x2="114.024" y2="57.83" gradientTransform="translate(0 102) scale(1 -1)" gradientUnits="userSpaceOnUse"><stop offset="0" stop-color="#b11116"/><stop offset="1" stop-color="#c4161c"/></linearGradient><linearGradient id="e" x1="110.445" y1="75.03" x2="144.845" y2="75.03" xlink:href="#c"/><linearGradient id="f" x1="83.492" y1="75.05" x2="114.107" y2="75.05" xlink:href="#d"/><linearGradient id="g" x1="144.845" y1="83.991" x2="83.492" y2="83.991" gradientTransform="translate(0 102) scale(1 -1)" gradientUnits="userSpaceOnUse"><stop offset="0" stop-color="#f47a5c"/><stop offset="1" stop-color="#d71920"/></linearGradient><linearGradient id="h" x1="83.492" y1="89.456" x2="144.845" y2="89.456" gradientTransform="translate(0 102) scale(1 -1)" gradientUnits="userSpaceOnUse"><stop offset="0" stop-color="#b11116"/><stop offset="1" stop-color="#ed1c24"/></linearGradient><linearGradient id="i" x1="99.194" y1="79.999" x2="98.533" y2="42.406" gradientTransform="translate(0 102) scale(1 -1)" gradientUnits="userSpaceOnUse"><stop offset="0" stop-color="#d1a10d"/><stop offset="1" stop-color="#f8ca44"/></linearGradient><linearGradient id="j" x1="129.572" y1="41.773" x2="129.572" y2="73.736" gradientTransform="translate(0 102) scale(1 -1)" gradientUnits="userSpaceOnUse"><stop offset="0" stop-color="#fff799"/><stop offset="1" stop-color="#f8ca44"/></linearGradient><linearGradient id="k" x1="131.286" y1="84.507" x2="94.849" y2="84.507" gradientTransform="translate(0 102) scale(1 -1)" gradientUnits="userSpaceOnUse"><stop offset="0" stop-color="#fff799"/><stop offset="1" stop-color="#ffd64f"/></linearGradient><linearGradient id="l" x1="133.805" y1="84.376" x2="96.418" y2="84.376" xlink:href="#k"/><linearGradient id="m" x1="92.55" y1="81.933" x2="110.803" y2="81.933" gradientTransform="translate(0 102) scale(1 -1)" gradientUnits="userSpaceOnUse"><stop offset="0" stop-color="#dca92c"/><stop offset="1" stop-color="#926b00"/></linearGradient><linearGradient id="n" x1="87.966" y1="71.666" x2="96.074" y2="71.666" gradientTransform="translate(0 102) scale(1 -1)" gradientUnits="userSpaceOnUse"><stop offset="0" stop-color="#e6e7e8"/><stop offset="1" stop-color="#f8f8f9"/></linearGradient><linearGradient id="o" x1="92.261" y1="79.008" x2="93.541" y2="79.008" gradientTransform="translate(0 102) scale(1 -1)" gradientUnits="userSpaceOnUse"><stop offset="0" stop-color="#939598"/><stop offset="1" stop-color="#d1d3d4"/></linearGradient><linearGradient id="p" x1="92.289" y1="78.953" x2="93.514" y2="78.953" gradientTransform="translate(0 102) scale(1 -1)" gradientUnits="userSpaceOnUse"><stop offset="0" stop-color="#bcbec0"/><stop offset="1" stop-color="#e6e7e8"/></linearGradient><linearGradient id="q" x1="92.385" y1="81.926" x2="110.803" y2="81.926" xlink:href="#m"/><linearGradient id="r" x1="130.9" y1="80.883" x2="111.863" y2="80.883" xlink:href="#j"/><linearGradient id="s" x1="121.223" y1="78.101" x2="129.524" y2="78.101" gradientTransform="translate(0 102) scale(1 -1)" gradientUnits="userSpaceOnUse"><stop offset="0" stop-color="#fff197"/><stop offset="1" stop-color="#fffcd5"/></linearGradient><linearGradient id="t" x1="129.579" y1="69.847" x2="121.664" y2="69.847" gradientTransform="translate(0 102) scale(1 -1)" gradientUnits="userSpaceOnUse"><stop offset="0" stop-color="#fff08c"/><stop offset="1" stop-color="#f8ca44"/></linearGradient><linearGradient id="u" x1="98.042" y1="81.447" x2="115.895" y2="80.511" xlink:href="#k"/><linearGradient id="v" x1="96.804" y1="86.987" x2="113.075" y2="86.134" gradientTransform="translate(0 102) scale(1 -1)" gradientUnits="userSpaceOnUse"><stop offset="0" stop-color="#dca92c"/><stop offset="1" stop-color="#a67a05"/></linearGradient><linearGradient id="w" x1="133.061" y1="84.429" x2="113.845" y2="84.429" xlink:href="#v"/><linearGradient id="x" x1="107.926" y1="78.393" x2="98.717" y2="79.039" xlink:href="#s"/><linearGradient id="y" x1="132.993" y1="87.601" x2="113.666" y2="87.601" xlink:href="#k"/><linearGradient id="z" x1="96.157" y1="89.897" x2="115.084" y2="89.897" xlink:href="#k"/><linearGradient id="aa" x1="114.279" y1="89.332" x2="114.279" y2="81.981" gradientTransform="translate(0 102) scale(1 -1)" gradientUnits="userSpaceOnUse"><stop offset="0" stop-color="#fff799"/><stop offset="1" stop-color="#f2c130"/></linearGradient><linearGradient id="ab" x1="121.884" y1="88.946" x2="130.584" y2="88.946" gradientTransform="translate(0 102) scale(1 -1)" gradientUnits="userSpaceOnUse"><stop offset="0" stop-color="#fff799"/><stop offset="1" stop-color="#fffcd5"/></linearGradient><linearGradient id="ac" x1="108.628" y1="90.825" x2="97.602" y2="90.825" xlink:href="#ab"/><linearGradient id="ad" x1="98.937" y1="74.431" x2="106.426" y2="74.431" gradientTransform="translate(0 102) scale(1 -1)" gradientUnits="userSpaceOnUse"><stop offset="0" stop-color="#f4cb4b"/><stop offset="1" stop-color="#ffda69"/></linearGradient></defs><path d="M133.1,89v4.9h-1.9v-15.2h1.9v.9c.711-.722,1.687-1.119,2.7-1.1,1.37-.099,2.706,.457,3.6,1.5,1.735,2.531,1.735,5.869,0,8.4-.935,1.114-2.35,1.709-3.8,1.6-.505-.017-1.008-.084-1.5-.2-.6-.4-.9-.6-1-.8Zm0-8v6.4c.19,.266,.477,.446,.8,.5,.371,.193,.782,.296,1.2,.3,2.4,0,3.6-1.4,3.6-4.1,.104-1.079-.219-2.156-.9-3-.728-.684-1.702-1.045-2.7-1-.352,.02-.695,.123-1,.3-.371,.13-.711,.334-1,.6Z" style="fill:#545871;"/><path d="M141.5,84.1c-.06-1.493,.439-2.955,1.4-4.1,.906-1.037,2.223-1.622,3.6-1.6,1.37-.099,2.706,.457,3.6,1.5,.949,1.185,1.414,2.686,1.3,4.2,.114,1.514-.351,3.015-1.3,4.2-.919,1.008-2.237,1.557-3.6,1.5-1.37,.099-2.706-.457-3.6-1.5-.963-1.182-1.461-2.676-1.4-4.2Zm2.1,0c0,2.7,1,4.1,2.9,4.1,.841,.013,1.632-.401,2.1-1.1,.572-.893,.852-1.941,.8-3,0-2.7-1-4.1-2.9-4.1-.841-.013-1.632,.401-2.1,1.1-.558,.898-.837,1.943-.8,3Z" style="fill:#545871;"/><path d="M163.1,89.8h-.5l-3.2-7.4-3.2,7.4h-.5l-3.9-11.2h2.1l2.3,7.2,2.9-7.2h.5l3,7.2,2.5-7.2h1.9l-3.9,11.2Z" style="fill:#545871;"/><path d="M177.3,84.3h-7.9c-.056,1.108,.341,2.191,1.1,3,.642,.617,1.51,.943,2.4,.9,1.027,.039,2.03-.319,2.8-1l.8,1.4c-.402,.367-.88,.64-1.4,.8-.834,.294-1.716,.43-2.6,.4-1.305,.008-2.561-.495-3.5-1.4-1.105-1.069-1.689-2.566-1.6-4.1-.108-1.596,.475-3.162,1.6-4.3,.902-.972,2.174-1.517,3.5-1.5,1.36-.098,2.7,.373,3.7,1.3,.906,.891,1.38,2.132,1.3,3.4-.1,.4-.1,.8-.2,1.1Zm-4.7-4.2c-.807-.012-1.59,.273-2.2,.8-.59,.494-.921,1.231-.9,2h6.1c.029-.731-.221-1.447-.7-2-.657-.513-1.466-.794-2.3-.8Z" style="fill:#545871;"/><path d="M184.9,80.5c-.373-.281-.833-.423-1.3-.4-.707,.003-1.373,.336-1.8,.9-.528,.649-.811,1.463-.8,2.3v6.3h-1.9v-10.9h1.9v1.7c.585-1.234,1.835-2.015,3.2-2,.3,0,.8,.1,1.5,.2l-.8,1.9Z" style="fill:#545871;"/><path d="M195.8,84.3h-7.9c-.056,1.108,.341,2.191,1.1,3,.642,.617,1.51,.943,2.4,.9,1.027,.039,2.03-.319,2.8-1l.8,1.4c-.402,.367-.88,.64-1.4,.8-.834,.294-1.716,.43-2.6,.4-1.305,.008-2.561-.495-3.5-1.4-1.105-1.069-1.689-2.566-1.6-4.1-.108-1.596,.475-3.162,1.6-4.3,.902-.972,2.174-1.517,3.5-1.5,1.36-.098,2.7,.373,3.7,1.3,.906,.891,1.38,2.132,1.3,3.4-.009,.375-.076,.746-.2,1.1Zm-4.7-4.2c-.807-.012-1.59,.273-2.2,.8-.579,.513-.937,1.229-1,2h6.1c.029-.731-.221-1.447-.7-2-.601-.543-1.39-.83-2.2-.8Z" style="fill:#545871;"/><path d="M204.4,89.6v-.8c-.795,.705-1.839,1.065-2.9,1-1.276,.056-2.503-.502-3.3-1.5-.914-1.087-1.379-2.482-1.3-3.9-.023-1.535,.509-3.027,1.5-4.2,.825-1.097,2.128-1.73,3.5-1.7,.934-.045,1.853,.238,2.6,.8v-5.1h1.9v15.4h-2Zm0-8.4c-.442-.676-1.192-1.089-2-1.1-.979-.032-1.913,.416-2.5,1.2-.655,.862-1.007,1.917-1,3,0,2.6,1.2,4,3.6,4,.384-.018,.76-.12,1.1-.3,.317-.122,.594-.33,.8-.6v-6.2h0Z" style="fill:#545871;"/><path d="M216.1,88.8l-.7,1h-1v-15.6h1.9v5.3c.252-.332,.602-.577,1-.7,.476-.196,.985-.297,1.5-.3,1.386-.067,2.721,.527,3.6,1.6,.945,1.075,1.445,2.469,1.4,3.9,.077,1.557-.421,3.087-1.4,4.3-.978,1.055-2.362,1.638-3.8,1.6-.515-.003-1.024-.104-1.5-.3-.352-.242-.687-.509-1-.8Zm.3-7.8v6.3c0,.1,.2,.3,.7,.5,.329,.221,.706,.358,1.1,.4,1.039,.13,2.078-.241,2.8-1,.695-.914,1.016-2.058,.9-3.2,.065-1.061-.295-2.105-1-2.9-.723-.692-1.7-1.054-2.7-1-.35,.033-.69,.135-1,.3-.317,.122-.594,.33-.8,.6h0Z" style="fill:#545871;"/><path d="M229.8,91.5c-.308,.743-.877,1.348-1.6,1.7-.815,.485-1.752,.728-2.7,.7v-1.7c.744,.016,1.476-.193,2.1-.6,.535-.265,.881-.803,.9-1.4-.002-.612-.103-1.22-.3-1.8-.2-.6-.5-1.3-.8-2.2l-3-7.6h2l3.2,8.5,2.9-8.5h2l-4.7,12.9Z" style="fill:#545871;"/><path d="M253.9,89.6v-6.9c0-1.7-.7-2.6-2.2-2.6-.467-.023-.927,.119-1.3,.4-.375,.23-.658,.584-.8,1v8.1h-1.9v-7.8c.014-.503-.208-.984-.6-1.3-.461-.343-1.025-.519-1.6-.5-.434-.006-.857,.135-1.2,.4-.4,.227-.716,.578-.9,1v8.1h-1.9v-10.8h1.3l.6,1.3c.636-.923,1.679-1.482,2.8-1.5,1.292-.146,2.56,.43,3.3,1.5,.248-.482,.681-.843,1.2-1,.56-.275,1.177-.412,1.8-.4,.973-.074,1.927,.293,2.6,1,.636,.79,.957,1.787,.9,2.8v7.3h-2.1v-.1Z" style="fill:#545871;"/><path d="M264.3,88.4c-.894,1.043-2.23,1.599-3.6,1.5-.827,.023-1.626-.304-2.2-.9-.599-.613-.923-1.443-.9-2.3,.018-1.121,.577-2.164,1.5-2.8,1.065-.792,2.375-1.182,3.7-1.1,.481,.013,.956,.115,1.4,.3,0-1.8-.8-2.7-2.4-2.7-1.032-.072-2.047,.291-2.8,1l-.8-1.6c.454-.346,.96-.616,1.5-.8,.616-.19,1.256-.291,1.9-.3,1.263-.085,2.512,.308,3.5,1.1,.792,.948,1.187,2.167,1.1,3.4v3.9c-.115,.758,.241,1.509,.9,1.9v1c-.615,.034-1.229-.069-1.8-.3-.6-.5-.9-.8-1-1.3Zm-.2-4.2c-.429-.094-.863-.161-1.3-.2-.87-.028-1.721,.256-2.4,.8-.564,.427-.897,1.093-.9,1.8,0,1.1,.7,1.7,2,1.7,1.033-.051,1.989-.565,2.6-1.4v-2.7h0Z" style="fill:#545871;"/><path d="M274.5,80.5c-.373-.281-.833-.423-1.3-.4-.707,.003-1.373,.336-1.8,.9-.528,.649-.811,1.463-.8,2.3v6.3h-1.9v-10.9h1.9v1.7c.585-1.234,1.835-2.015,3.2-2,.3,0,.8,.1,1.5,.2l-.8,1.9Z" style="fill:#545871;"/><path d="M283.3,89.6l-3.4-5.5-1.7,1.7v3.7h-1.9v-15.3h1.9v9.6l4.2-5.1h2.3l-3.5,4.2,4.3,6.8h-2.2v-.1Z" style="fill:#545871;"/><path d="M295.5,84.3h-7.9c-.056,1.108,.341,2.191,1.1,3,.642,.617,1.51,.943,2.4,.9,1.027,.039,2.03-.319,2.8-1l.8,1.4c-.402,.367-.88,.64-1.4,.8-.834,.294-1.716,.43-2.6,.4-1.305,.008-2.561-.495-3.5-1.4-1.105-1.069-1.689-2.566-1.6-4.1-.108-1.596,.475-3.162,1.6-4.3,.902-.972,2.174-1.517,3.5-1.5,1.36-.098,2.7,.373,3.7,1.3,.906,.891,1.38,2.132,1.3,3.4-.1,.4-.1,.8-.2,1.1Zm-4.7-4.2c-.807-.012-1.59,.273-2.2,.8-.579,.513-.937,1.229-1,2h6.1c.029-.731-.221-1.447-.7-2-.61-.527-1.393-.812-2.2-.8Z" style="fill:#545871;"/><path d="M297.9,80.2h-1.3v-1.5h1.3v-2.3l1.9-.7v3h3v1.5h-3v5.4c-.042,.702,.133,1.4,.5,2,.372,.433,.932,.657,1.5,.6,.528,.01,1.047-.129,1.5-.4l.3,1.7c-.851,.204-1.724,.305-2.6,.3-.85,.032-1.665-.339-2.2-1-.601-.653-.924-1.513-.9-2.4v-6.2h0Z" style="fill:#545871;"/><path d="M311.1,88.4c-.894,1.043-2.23,1.599-3.6,1.5-.827,.023-1.626-.304-2.2-.9-.599-.613-.923-1.443-.9-2.3,.018-1.121,.577-2.164,1.5-2.8,1.065-.792,2.375-1.182,3.7-1.1,.481,.013,.956,.115,1.4,.3,0-1.8-.8-2.7-2.4-2.7-1.032-.072-2.047,.291-2.8,1l-.8-1.6c.454-.346,.96-.616,1.5-.8,.614-.197,1.255-.298,1.9-.3,1.263-.085,2.512,.308,3.5,1.1,.792,.948,1.187,2.167,1.1,3.4v3.9c-.115,.758,.241,1.509,.9,1.9v1c-.615,.034-1.229-.069-1.8-.3-.424-.355-.766-.799-1-1.3Zm-.1-4.2c-.429-.094-.863-.161-1.3-.2-.87-.028-1.721,.256-2.4,.8-.564,.427-.897,1.093-.9,1.8,0,1.1,.7,1.7,2,1.7,1.033-.051,1.989-.565,2.6-1.4v-2.7h0Z" style="fill:#00a8ca;"/><path d="M328.1,89.6v-6.9c0-1.7-.7-2.6-2.2-2.6-.467-.023-.927,.119-1.3,.4-.375,.23-.658,.584-.8,1v8.1h-1.9v-7.8c.014-.503-.208-.984-.6-1.3-.461-.343-1.025-.519-1.6-.5-.434-.006-.857,.135-1.2,.4-.4,.227-.716,.578-.9,1v8.1h-1.9v-10.8h1.3l.6,1.3c.621-.94,1.673-1.504,2.8-1.5,1.292-.146,2.56,.43,3.3,1.5,.248-.482,.681-.843,1.2-1,.56-.275,1.177-.412,1.8-.4,.973-.074,1.927,.293,2.6,1,.636,.79,.957,1.787,.9,2.8v7.3h-2.1v-.1Z" style="fill:#00a8ca;"/><path d="M341.5,84.3h-7.9c-.103,1.115,.301,2.216,1.1,3,.642,.617,1.51,.943,2.4,.9,1.027,.039,2.03-.319,2.8-1l.8,1.4c-.402,.367-.88,.64-1.4,.8-.834,.294-1.716,.43-2.6,.4-1.305,.008-2.561-.495-3.5-1.4-1.105-1.069-1.689-2.566-1.6-4.1-.108-1.596,.475-3.162,1.6-4.3,.902-.972,2.174-1.517,3.5-1.5,1.36-.098,2.7,.373,3.7,1.3,.906,.891,1.38,2.132,1.3,3.4-.009,.375-.076,.746-.2,1.1Zm-4.7-4.2c-.807-.012-1.59,.273-2.2,.8-.59,.494-.921,1.231-.9,2h6.1c.029-.731-.221-1.447-.7-2-.649-.528-1.463-.811-2.3-.8Z" style="fill:#00a8ca;"/><path d="M349.2,80.5c-.373-.281-.833-.423-1.3-.4-.707,.003-1.373,.336-1.8,.9-.528,.649-.811,1.463-.8,2.3v6.3h-1.9v-10.9h1.9v1.7c.585-1.234,1.835-2.015,3.2-2,.3,0,.8,.1,1.5,.2l-.8,1.9Z" style="fill:#00a8ca;"/><path d="M351.8,89.6v-9.3h-1.5v-1.6h3.4v10.9h-1.9Zm1-15.1c.343,0,.67,.146,.9,.4,.229,.207,.372,.493,.4,.8,0,.343-.146,.67-.4,.9-.234,.249-.558,.393-.9,.4-.318,.016-.622-.136-.8-.4-.249-.234-.393-.558-.4-.9-.008-.295,.1-.582,.3-.8,.23-.254,.557-.399,.9-.4Z" style="fill:#00a8ca;"/><path d="M364.6,79.6l-1,1.4c-.289-.266-.629-.47-1-.6-.476-.196-.985-.297-1.5-.3-.959-.04-1.882,.366-2.5,1.1-.637,.866-.955,1.926-.9,3-.093,1.047,.23,2.089,.9,2.9,.673,.707,1.627,1.074,2.6,1,.961,0,1.887-.356,2.6-1l.8,1.6c-1.165,.728-2.528,1.078-3.9,1-1.388,.035-2.728-.508-3.7-1.5-1.035-1.107-1.576-2.587-1.5-4.1-.058-1.541,.479-3.045,1.5-4.2,1.098-1.123,2.633-1.708,4.2-1.6,.623-.012,1.24,.125,1.8,.4,.56,.251,1.095,.552,1.6,.9Z" style="fill:#00a8ca;"/><path d="M372.3,88.4c-.894,1.043-2.23,1.599-3.6,1.5-.827,.023-1.626-.304-2.2-.9-.599-.613-.923-1.443-.9-2.3,.018-1.121,.577-2.164,1.5-2.8,1.065-.792,2.375-1.182,3.7-1.1,.481,.013,.956,.115,1.4,.3,0-1.8-.8-2.7-2.4-2.7-1.032-.072-2.047,.291-2.8,1l-.8-1.6c.454-.346,.96-.616,1.5-.8,.616-.19,1.256-.291,1.9-.3,1.263-.085,2.512,.308,3.5,1.1,.792,.948,1.187,2.167,1.1,3.4v3.9c-.115,.758,.241,1.509,.9,1.9v1c-.615,.034-1.229-.069-1.8-.3-.424-.355-.766-.799-1-1.3Zm-.1-4.2c-.429-.094-.863-.161-1.3-.2-.87-.028-1.721,.256-2.4,.8-.564,.427-.897,1.093-.9,1.8,0,1.1,.7,1.7,2,1.7,1.033-.051,1.989-.565,2.6-1.4v-2.7h0Z" style="fill:#00a8ca;"/><path d="M27.8,24.5c-.8-5.7-4.1-9.2-9.2-9.2-6.8,0-8.7,4.5-8.7,7.8,0,3.6,2.3,5.9,7,7.7l6.1,2.3c7.7,2.9,11.2,7.3,11.2,13.2,0,7.8-6.2,13.4-15.4,13.4-8.8-.1-15-4.7-15.8-14.3h6.1c.5,5.3,3.2,8.9,9.9,8.9,5.3,0,9.1-3.4,9.1-7.6,0-3.7-3.1-6.1-7.5-7.9l-6.1-2.4c-7.2-2.8-10.7-7-10.7-13.2,0-8.2,6.9-13.2,14.8-13.2s14.2,4.7,14.9,14.5h-5.7Z" style="fill:#545871;"/><path d="M73.4,10.8h6.1V58.9h-6.1v-21.8h-25.1v21.8h-6.1V10.8h6.1V31.4h25.1V10.8Z" style="fill:#545871;"/><path d="M113.6,10c16.3,0,25.5,12.9,25.5,24.8s-9.2,24.8-25.5,24.8-25.5-12.9-25.5-24.8,9.1-24.8,25.5-24.8Zm0,43.9c10.549,0,19.1-8.551,19.1-19.1s-8.551-19.1-19.1-19.1c-10.549,0-19.1,8.551-19.1,19.1h0c-.089,10.46,8.319,19.011,18.779,19.1,.107,0,.214,0,.321,0Z" style="fill:#545871;"/><path d="M147.7,10.8h13.3c10.2,0,16.3,7.8,16.3,15.9s-6.1,15.8-16.3,15.8h-7.2v16.4h-6.1V10.8Zm12,26.3c7.3,0,11.5-3.5,11.5-10.5s-4.2-10.6-11.5-10.6h-6v21.1h6Z" style="fill:#545871;"/><path d="M253.7,20.9c-3.378-3.122-7.8-4.869-12.4-4.9-10.549,.002-19.098,8.555-19.096,19.104,.002,10.546,8.551,19.094,19.096,19.096,4.771,.05,9.37-1.783,12.8-5.1l3.9,4.4c-4.61,4.095-10.535,6.401-16.7,6.5-16.3,0-25.5-12.9-25.5-24.8s9.2-24.8,25.5-24.8c6.051,0,11.904,2.164,16.5,6.1l-4.1,4.4Z" style="fill:#545871;"/><path d="M288.8,10.3c16.3,0,25.5,12.9,25.5,24.8s-9.2,24.8-25.5,24.8-25.5-12.9-25.5-24.8,9.2-24.8,25.5-24.8Zm0,43.9c10.549,0,19.1-8.551,19.1-19.1s-8.551-19.1-19.1-19.1c-10.549,0-19.1,8.551-19.1,19.1-.055,10.493,8.406,19.045,18.899,19.1,.067,0,.134,0,.201,0Z" style="fill:#545871;"/><path d="M368.1,11h6.1V59.1h-6.1V23.5h-.1l-19.4,36.1-19.4-36.1h-.2V59.1h-6V11h6.1l19.6,36.3,19.4-36.3Z" style="fill:#545871;"/><path d="M205.8,34.1c0,5.247-4.253,9.5-9.5,9.5s-9.5-4.253-9.5-9.5,4.253-9.5,9.5-9.5c5.217,.07,9.43,4.283,9.5,9.5Z" style="fill:#00a8ca;"/><path d="M380,19.5c-.034-2.26,.872-4.433,2.5-6,3.286-3.314,8.636-3.336,11.95-.05,.017,.017,.033,.033,.05,.05,1.628,1.567,2.534,3.74,2.5,6,.034,2.26-.872,4.433-2.5,6-3.286,3.314-8.636,3.336-11.95,.05-.017-.017-.033-.033-.05-.05-1.661-1.545-2.573-3.733-2.5-6Zm15.6,0c.033-1.888-.729-3.702-2.1-5-1.309-1.355-3.116-2.114-5-2.1-1.888-.033-3.702,.729-5,2.1-1.355,1.309-2.114,3.116-2.1,5-.033,1.888,.729,3.702,2.1,5,1.309,1.355,3.116,2.114,5,2.1,1.888,.033,3.702-.729,5-2.1,1.387-1.287,2.153-3.109,2.1-5Zm-4.4,5.1l-2.7-4.5h-1.5v4.5h-1.5V14.2h2.7c2.5,0,3.8,1,3.8,2.9,.025,1.273-.788,2.411-2,2.8l2.9,4.7h-1.7Zm-4.2-9.1v3.5h1c.692,.08,1.392-.06,2-.4,.377-.363,.562-.881,.5-1.4,0-1.2-.8-1.7-2.3-1.7,0,0-1.2,0-1.2,0Z" style="fill:#545871;"/><g id="b"><polygon points="112.413 34.321 142.243 23.942 139.449 52.973 114.024 64.797 108.201 54.405 112.413 34.321" style="fill:url(#c); fill-rule:evenodd;"/><polygon points="85.475 23.543 88.42 52.794 114.024 64.797 114.024 34.321 85.475 23.543" style="fill:url(#d); fill-rule:evenodd;"/><polygon points="113.914 36.482 114.175 36.524 114.148 64.742 114.024 64.797 113.9 64.742 113.914 36.482" style="fill:#f58466; fill-rule:evenodd;"/><polygon points="125.532 59.457 131.299 56.772 132.869 29.682 125.697 32.573 125.532 59.457" style="fill:#b11116; fill-rule:evenodd;"/><polygon points="112.413 34.321 142.243 23.942 142.009 26.378 114.024 38.107 112.413 34.321" style="fill:#b11116; fill-rule:evenodd;"/><polygon points="112.881 25.484 143.606 17.376 144.597 17.403 143.688 24.465 114.107 36.565 110.445 28.719 112.881 25.484" style="fill:url(#e); fill-rule:evenodd;"/><polygon points="85.475 23.543 85.736 26.172 114.024 38.107 114.024 34.321 85.475 23.543" style="fill:#9e0b0f; fill-rule:evenodd;"/><polygon points="102.557 59.47 96.748 56.731 95.702 29.338 102.736 32.256 102.557 59.47" style="fill:#9e0b0f; fill-rule:evenodd;"/><polygon points="114.107 28.264 114.107 36.565 84.36 24.231 83.492 17.362 87.085 17.335 113.184 26.131 114.107 28.264" style="fill:url(#f); fill-rule:evenodd;"/><polygon points="83.492 17.362 114.12 28.333 144.597 17.403 114.12 7.685 83.492 17.362" style="fill:url(#g); fill-rule:evenodd;"/><polygon points="114.107 36.565 114.189 36.537 114.354 28.457 144.555 17.596 144.597 17.403 144.39 17.348 114.107 28.099 83.671 17.293 83.492 17.362 83.506 17.541 113.886 28.443 113.983 36.51 114.107 36.565" style="fill:#f58466; fill-rule:evenodd;"/><polygon points="83.492 17.362 114.148 8.084 144.597 17.403 114.12 7.685 83.492 17.362" style="fill:url(#h); fill-rule:evenodd;"/><path d="M106.343,25.594c2.852-.889,5.537-2.248,7.943-4.019,2.387,1.661,4.984,2.999,7.722,3.978l1.377-.468-9.154-6.594-7.736,5.231-1.032,1.555,.881,.317Z" style="fill:#c4161c; fill-rule:evenodd;"/><polygon points="98.552 22.758 102.241 24.093 131.382 13.191 128.574 12.297 98.552 22.758" style="fill:#c4161c; fill-rule:evenodd;"/><polygon points="106.412 25.58 99.185 22.992 99.515 29.421 102.392 26.984 106.536 32.27 106.412 25.58" style="fill:#9e0b0f; fill-rule:evenodd;"/><polygon points="114.093 36.345 114.107 36.565 84.36 24.231 114.093 36.345" style="fill:#f58466; fill-rule:evenodd;"/><polygon points="102.2 31.637 98.965 30.288 98.882 22.841 102.241 24.08 102.2 31.637" style="fill:#9e0b0f; fill-rule:evenodd;"/><polygon points="114.134 36.331 143.688 24.465 114.107 36.565 114.134 36.331" style="fill:#f58466; fill-rule:evenodd;"/><path d="M93.032,22.813c.124,0,.206-.165,.262-.413s0-.358,.083-.551c.019-.219,.061-.436,.124-.647,.11-.289,.757-.509,1.858-.675s2.56-.303,4.432-.44c1.794-.131,3.57-.444,5.3-.936,1.803-.508,3.555-1.186,5.231-2.024l.138,.275c-1.694,.844-3.464,1.526-5.286,2.037-1.752,.499-3.551,.817-5.368,.95-1.872,.124-3.372,.262-4.405,.427s-1.555,.317-1.624,.482c-.055,.193-.092,.392-.11,.592,0,.193,0,.399-.096,.578-.096,.413-.262,.716-.633,.633l.096-.289Z" style="fill:#9e0b0f;"/><path d="M92.977,23.102c-.057-.014-.103-.055-.124-.11-.06-.267-.06-.545,0-.812,.05-.417,.142-.827,.275-1.225,.11-.289,.702-.537,1.776-.757,1.403-.241,2.818-.402,4.24-.482,2.118-.143,4.221-.452,6.291-.922,1.702-.368,3.355-.932,4.928-1.679l.138,.275c-1.594,.759-3.271,1.332-4.997,1.707-2.088,.472-4.21,.781-6.346,.922-1.435,.082-2.865,.248-4.281,.496-.964,.193-1.473,.372-1.555,.564-.121,.376-.204,.763-.248,1.156-.045,.213-.045,.434,0,.647l-.096,.22Z" style="fill:#9e0b0f;"/><path d="M89.948,24.038c1.087-.427,2.037-.798,3.125-1.17,.304-.082,.628,.033,.812,.289l2.753,3.262c.187,.199,.274,.473,.234,.743l-1.748,11.948c-.018,.22-.211,.383-.43,.365-.046-.004-.092-.016-.134-.035l-6.332-2.285c-.272-.109-.44-.383-.413-.675l1.748-11.948c.026-.23,.19-.421,.413-.482l-.028-.014Zm3.469-.496c-.134-.055-.286,.01-.341,.143-.008,.02-.014,.041-.017,.063-.02,.189,.086,.368,.262,.44,.134,.055,.286-.01,.341-.143,.008-.02,.014-.041,.017-.063,.02-.189-.086-.368-.262-.44Z" style="fill:#9e0b0f; fill-rule:evenodd;"/><polygon points="102.557 59.47 96.748 56.731 95.055 28.636 95.152 28.595 102.021 31.444 102.089 31.554 102.557 59.47" style="fill:url(#i); fill-rule:evenodd;"/><polygon points="126.537 23.928 126.867 23.598 128.491 22.992 128.312 30.811 126.33 31.623 126.537 23.928" style="fill:#dca90e; fill-rule:evenodd;"/><polygon points="126.537 23.928 128.312 23.24 99.722 12.228 96.322 13.301 126.537 23.928" style="fill:#ba131a; fill-rule:evenodd;"/><polygon points="129.18 22.937 128.78 38.464 126.124 36.207 125.078 36.29 120.92 41.658 121.017 34.624 121.856 33.413 121.967 25.539 129.18 22.937" style="fill:#b11116; fill-rule:evenodd;"/><polygon points="125.532 59.457 131.299 56.772 133.612 28.595 133.447 28.595 126.537 31.334 126.44 31.485 125.532 59.457" style="fill:url(#j); fill-rule:evenodd;"/><polygon points="128.959 31.472 128.78 38.464 126.289 36.331 126.289 35.973 126.344 32.243 128.959 31.472" style="fill:#e1af25; fill-rule:evenodd;"/><path d="M111.175,18.766c-2.413,.921-4.975,1.388-7.557,1.377-4.432-.248-6.965-3.125-5.96-4.13h0c1.046-2.037,3.799-1.638,4.914-3.648,4.694-1.184,6.69,1.28,7.447,2.946,.451,.909,1.367,1.497,2.381,1.528,.237-.099,.488-.159,.743-.179,1.261,.303,2.561,.41,3.854,.317h0c.288,.015,.561,.132,.771,.33,.506-.079,.982-.293,1.377-.619,1.377-1.156,4.391-4.253,8.328-2.189,1.266,1.968,4.13,2.258,4.295,4.46h0c.179,.895-.73,2.01-2.01,2.547-3.372,1.377-9.856,.33-13.6-1.239-.142,.02-.285,.02-.427,0h0c-1.074-.137-2.161-.137-3.235,0-.657-.258-1.149-.817-1.322-1.5Z" style="fill:#c4161c; fill-rule:evenodd;"/><polygon points="102.062 24.011 131.286 13.164 124.444 10.975 94.849 21.423 102.062 24.011" style="fill:url(#k); fill-rule:evenodd;"/><polygon points="114.134 19.523 115.69 18.959 120.741 17.073 113.583 14.802 108.435 16.633 107.141 17.087 114.134 19.523" style="fill:#739b3e; fill-rule:evenodd;"/><path d="M98.332,20.198l1.473-.11c1.794-.131,3.57-.444,5.3-.936,1.803-.508,3.555-1.186,5.231-2.024l.138,.275c-1.694,.844-3.464,1.526-5.286,2.037-1.752,.499-3.551,.817-5.368,.95l-2.657,.22,1.17-.413Z" style="fill:#f4cb4b;"/><path d="M99.804,19.675c1.89-.156,3.767-.446,5.616-.867,1.702-.368,3.355-.932,4.928-1.679l.138,.275c-1.594,.759-3.271,1.332-4.997,1.707-2.088,.472-4.21,.781-6.346,.922h-.44l1.101-.358Z" style="fill:#f4cb4b;"/><polygon points="126.702 23.859 96.418 13.274 102.613 11.319 133.805 21.34 133.543 21.616 127.046 23.928 126.702 23.859" style="fill:url(#l); fill-rule:evenodd;"/><polygon points="102.062 24.011 94.849 21.423 95.055 28.636 102.089 31.554 102.062 24.011" style="fill:#e8b92e; fill-rule:evenodd;"/><path d="M96.253,26.241c.187,.199,.274,.473,.234,.743l-1.06,7.75-.317-5.093c-.028-2.051-.234-1.789,1.143-3.4Z" style="fill:#bb8a0b; fill-rule:evenodd;"/><path d="M112.455,20.157l1.762-.661,4.584,1.597c3.675,1.019,8.259,1.459,11.012,.344,.518-.215,.986-.534,1.377-.936l-10.544-3.386,6.883-2.588v-.096c-3.937-2.065-6.883,1.032-8.328,2.189-.395,.326-.87,.54-1.377,.619-.209-.198-.483-.316-.771-.33h0c-1.293,.094-2.593-.013-3.854-.317-.256,.019-.507,.08-.743,.179-1.02,.002-1.957-.559-2.436-1.459-.389-.831-.963-1.561-1.679-2.134l-3.455-1.115c-.809,.003-1.613,.11-2.395,.317-.719,.985-1.754,1.694-2.932,2.01l7.709,2.657-6.883,2.409c1.017,.416,2.096,.658,3.194,.716,2.582,.012,5.145-.455,7.557-1.377,.207,.634,.694,1.137,1.321,1.363Z" style="fill:#f4cb4b; fill-rule:evenodd;"/><path d="M92.991,22.758c.124,0,.206-.165,.262-.413s0-.358,.096-.551c.019-.219,.061-.436,.124-.647,.11-.289,.757-.509,1.858-.675s2.56-.303,4.432-.44c1.794-.131,3.57-.445,5.3-.936,1.803-.508,3.555-1.186,5.231-2.024l.138,.275c-1.694,.844-3.464,1.526-5.286,2.037-1.752,.499-3.551,.817-5.368,.95-1.872,.124-3.372,.262-4.405,.427s-1.555,.317-1.624,.482c-.055,.193-.092,.392-.11,.592,0,.193,0,.399-.096,.578-.096,.413-.262,.716-.633,.633l.083-.289Z" style="fill:url(#m);"/><path d="M89.48,23.212c1.087-.427,2.037-.798,3.125-1.17,.304-.082,.628,.033,.812,.289l2.753,3.262c.187,.199,.274,.473,.234,.743l-1.748,11.948c-.018,.22-.211,.383-.43,.365-.046-.004-.092-.016-.134-.035l-6.332-2.285c-.272-.109-.44-.383-.413-.675l1.721-11.935c.026-.23,.19-.421,.413-.482v-.028Zm3.469-.496c-.134-.055-.286,.01-.341,.143-.008,.02-.014,.041-.017,.063-.02,.189,.086,.368,.262,.44,.134,.055,.286-.01,.341-.143,.008-.02,.014-.041,.017-.063,.02-.189-.086-.368-.262-.44Z" style="fill:url(#n); fill-rule:evenodd;"/><path d="M92.991,22.345c.354,.135,.574,.49,.537,.867-.032,.287-.291,.494-.578,.462-.047-.005-.094-.017-.138-.035-.354-.135-.574-.49-.537-.867,.032-.287,.291-.494,.578-.462,.047,.005,.094,.017,.138,.035Zm0,.317c-.142-.055-.301,.016-.356,.158-.008,.02-.013,.041-.016,.062-.02,.196,.092,.381,.275,.454,.142,.055,.301-.016,.356-.158,.008-.02,.013-.041,.016-.062-.01-.187-.137-.347-.317-.399l.041-.055Z" style="fill:url(#o); fill-rule:evenodd;"/><path d="M92.991,22.428c.339,.134,.547,.477,.509,.84-.031,.272-.276,.467-.548,.436-.048-.005-.095-.018-.14-.037-.339-.134-.547-.477-.509-.84,.031-.272,.276-.467,.548-.436,.048,.005,.095,.018,.14,.037Zm0,.303c-.134-.055-.286,.01-.341,.143-.008,.02-.014,.041-.017,.063-.02,.189,.086,.368,.262,.44,.134,.055,.286-.01,.341-.143,.008-.02,.014-.041,.017-.063,.022-.205-.106-.396-.303-.454l.041,.014Z" style="fill:url(#p); fill-rule:evenodd;"/><path d="M92.935,23.061c-.057-.014-.103-.055-.124-.11-.059-.267-.059-.545,0-.812,.05-.417,.142-.827,.275-1.225,.11-.289,.702-.537,1.776-.757,1.403-.241,2.818-.402,4.24-.482,2.118-.143,4.221-.452,6.291-.922,1.692-.366,3.336-.925,4.9-1.666l.138,.275c-1.594,.759-3.271,1.332-4.997,1.707-2.088,.472-4.21,.781-6.346,.922-1.412,.076-2.818,.232-4.212,.468-.964,.193-1.473,.372-1.555,.564-.122,.376-.205,.763-.248,1.156-.045,.213-.045,.434,0,.647l-.138,.234Z" style="fill:url(#q);"/><polygon points="99.295 25.153 99.502 29.352 102.076 27.163 102.076 26.654 99.295 25.153" style="fill:#bb8a0b; fill-rule:evenodd;"/><polygon points="126.702 23.859 133.805 21.34 133.612 28.595 126.44 31.485 126.702 23.859" style="fill:#ffe06a; fill-rule:evenodd;"/><path d="M113.418,18.395c1.115,3.331,3.51,4.887,8.7,7.117,.22,.11,.317,.275,.551,.193,1.886-.675,4.35-1.831,6.539-2.643,.053-.027,.096-.071,.124-.124-4.875-.938-9.412-3.156-13.146-6.428-1.235-.041-2.354,.722-2.767,1.886Z" style="fill:url(#r); fill-rule:evenodd;"/><path d="M121.347,25.181h.096l.688,.303c.195,.152,.444,.217,.688,.179,1.886-.675,4.212-1.817,6.401-2.629,.053-.027,.096-.071,.124-.124-1.06-.248-2.01-.509-2.891-.785,.303,1.239-3.028,2.808-5.107,3.056Z" style="fill:url(#s); fill-rule:evenodd;"/><path d="M113.418,18.395c.736,1.599,1.954,2.927,3.483,3.799,1.377,1.046-2.464-3.138-.523-1.762,.79,.631,1.698,1.099,2.67,1.377,.716,0-1.707-1.886-1.17-1.666,2.368,1.005,4.13,.95,2.932,.303-2.381-1.28-3.194-3.028-4.611-4.033-1.265-.034-2.4,.775-2.781,1.982Z" style="fill:#f2c23e; fill-rule:evenodd;"/><path d="M117.286,13.88s.73,0,1.115,1.101-.826,4.611-2.478,4.267-1.913-3.276-1.115-4.267c.606-.737,1.524-1.145,2.478-1.101Z" style="fill:#a67a05; fill-rule:evenodd;"/><polygon points="122.118 25.511 129.345 22.923 128.932 38.451 126.055 36.014 121.898 41.383 122.118 25.511" style="fill:url(#t); fill-rule:evenodd;"/><path d="M114.932,18.408c-1.115,3.331-3.51,4.887-8.7,7.117-.22,.11-.317,.275-.551,.193-1.886-.675-4.35-1.831-6.539-2.643-.053-.027-.096-.071-.124-.124,4.875-.938,9.412-3.156,13.146-6.428,1.235-.041,2.354,.722,2.767,1.886Z" style="fill:url(#u); fill-rule:evenodd;"/><path d="M112.056,16.963c-2.563,1.118-5.361,1.59-8.149,1.377-4.46-.358-6.993-4.35-5.947-5.726l.11-.11c1.377-1.239,9.746,1.679,9.746,1.679l4.35,2.175-.11,.606Z" style="fill:url(#v); fill-rule:evenodd;"/><path d="M111.849,16.151c-.348,.711-.813,1.358-1.377,1.913-.716,.578-1.955,1.377-.454,1.046s1.776-.757,1.377,0-2.753,1.845-1.019,1.377,2.409-1.377,2.285-.44-2.12,2.753-.95,2.092,2.987-2.189,3.056-3.607-2.918-2.381-2.918-2.381Z" style="fill:#f8d04d; fill-rule:evenodd;"/><path d="M116.034,19.455c2.67,1.115,6.883,2.753,10.241,2.643-3.5-1.018-6.74-2.778-9.498-5.162-1.751,.211-3.521,.211-5.272,0-1.291,1.088-2.673,2.064-4.13,2.918,1.404-.287,2.758-.778,4.019-1.459,.126,.59,.573,1.058,1.156,1.211,1.033-.082,2.072-.045,3.097,.11,.234,.014,.193-.234,.385-.262Z" style="fill:#e1af25; fill-rule:evenodd;"/><path d="M115.084,18.505c1.686,1.17,3.608,1.954,5.63,2.299,2.574,.592,6.883,.771,9.388-.702,1.275-.694,2.052-2.045,2.01-3.496-.022-.174-.064-.345-.124-.509-1.321-3.386-4.763-1.872-5.203-1.762s-12.031,1.776-12.031,1.776l.33,2.395Z" style="fill:url(#w); fill-rule:evenodd;"/><path d="M107.609,24.906l-1.377,.606c-.22,.11-.317,.275-.551,.193-1.886-.675-4.35-1.831-6.539-2.643-.053-.027-.096-.071-.124-.124,1.977-.451,3.915-1.059,5.795-1.817-2.024,2.01,.674,3.29,2.794,3.785Z" style="fill:url(#x); fill-rule:evenodd;"/><path d="M116.226,14.086c1.104,.557,2.444,.309,3.276-.606,1.377-1.583,4.391-5.85,8.328-3.001,1.266,2.753,4.13,3.097,4.295,6.139,0,0-.661-2.34-4.033-1.377s-5.093,5.341-10.269,3.648c-1.373-.519-2.529-1.49-3.276-2.753l1.679-2.051Z" style="fill:url(#y); fill-rule:evenodd;"/><path d="M113.294,13.701c-1.332,.097-2.55-.753-2.918-2.037-.812-2.299-2.753-5.671-7.516-4.019-1.101,2.753-3.854,2.216-4.914,5.066,.812-.193,1.638-.275,3.235,1.198,1.597,1.473,4.212,4.019,10.875,2.753,.592-1.418,1.239-2.96,1.239-2.96Z" style="fill:url(#z); fill-rule:evenodd;"/><path d="M116.226,14.086c.93,.452,2.032,.363,2.877-.234-.344,.702-1.377,.867-2.092,1.046s-.303,.44,.234,.537c.785,.124,2.202,.069,1.968,.262-.593,.245-1.231,.357-1.872,.33-.73,0-1.253-.206-1.198,0,.385,1.005,1.982,.895,1.968,1.129s-.551,.165-.977,.234-1.046-.124-.977,0c.206,.482,1.101,1.019,1.638,1.473-1.373-.519-2.529-1.49-3.276-2.753l1.707-2.024Z" style="fill:#f3c743; fill-rule:evenodd;"/><path d="M113.294,13.701c-1.332,.097-2.55-.753-2.918-2.037,0,1.528,.688,1.762,.757,2.505,0,.303-1.294-.206-1.913-.647-.289-.206-.151,.344,.344,.73,.702,.551,1.377,.633,.977,.84-.688,.372-2.285,.179-2.423,.372s2.67,.193,2.354,.702-.826,.633-2.918,.743c1.51,.12,3.029,.032,4.515-.262,.578-1.404,1.225-2.946,1.225-2.946Z" style="fill:#f3c743; fill-rule:evenodd;"/><path d="M115.924,19.248s-1.858-4.322,1.377-5.368c-1.301,.125-2.615-.025-3.854-.44-2.202,.22-3.221,4.364-.743,5.781,1.067-.178,2.157-.168,3.221,.028Z" style="fill:url(#aa); fill-rule:evenodd;"/><path d="M122.641,10.356c.952-.693,2.145-.967,3.304-.757-.206,2.946,2.574,3.593,3.882,5.396-.586-.03-1.172,.04-1.734,.206-.931,.296-1.8,.763-2.56,1.377,.619-3.703-.578-5.52-2.891-6.222Z" style="fill:url(#ab); fill-rule:evenodd;"/><path d="M107.485,7.782c-1.19-.629-2.58-.762-3.868-.372,.151,.716-.372,1.748-1.473,2.863-.647,.647-1.968,1.087-3.414,2.285,.946,.111,1.815,.573,2.436,1.294,.487,.467,1.002,.904,1.542,1.308-.455-3.303,1.577-6.441,4.777-7.378Z" style="fill:url(#ac); fill-rule:evenodd;"/><polygon points="106.233 25.511 99.02 22.923 99.323 29.297 102.2 26.846 106.357 32.215 106.233 25.511" style="fill:url(#ad); fill-rule:evenodd;"/><path d="M115.924,19.248c-.193-.53-.326-1.079-.399-1.638-.812,.95-1.377,.262-1.982,.289s-1.101,.84-2.106-.372c.19,.718,.661,1.328,1.308,1.693,1.054-.173,2.129-.163,3.18,.028Z" style="fill:#f3c53e; fill-rule:evenodd;"/></g></svg>