<svg xmlns="http://www.w3.org/2000/svg" viewBox="0 0 22 22"><title>Share via YouTube</title><path d="M21.78,6.6a4.67,4.67,0,0,0-.87-2.18,3.11,3.11,0,0,0-2.21-.93c-3.09-.23-7.7-.23-7.7-.23h0s-4.62,0-7.7.23a3.11,3.11,0,0,0-2.21.93A4.67,4.67,0,0,0,.22,6.6,32.16,32.16,0,0,0,0,10.13V11.8a32.55,32.55,0,0,0,.22,3.56,4.67,4.67,0,0,0,.87,2.18,3.75,3.75,0,0,0,2.43.95c1.76.17,7.49.22,7.49.22s4.62,0,7.7-.24a3.09,3.09,0,0,0,2.2-.93,4.8,4.8,0,0,0,.88-2.18A35.25,35.25,0,0,0,22,11.8V10.13A34.86,34.86,0,0,0,21.78,6.6Zm-13,7.28V7.67l5.95,3.12Z"/></svg>