<svg xmlns="http://www.w3.org/2000/svg" viewBox="0 0 22 22"><title>Share via Pinterest</title><path d="M9.59,14.29c-.18.71-.36,1.46-.54,2.19a15.56,15.56,0,0,1-.61,2.12,11.13,11.13,0,0,1-1.75,3c-.5.57-.39.34-.54.31S6,21.8,6,21.63a17.07,17.07,0,0,1,0-2.86,15,15,0,0,1,.51-3c.41-1.77.81-3.5,1.23-5.29a1.23,1.23,0,0,0,.08-.38,5.33,5.33,0,0,1-.38-1.46A4.76,4.76,0,0,1,7.56,7,2.75,2.75,0,0,1,9.18,5a1.85,1.85,0,0,1,1.49.12,1.66,1.66,0,0,1,.74,1.08,3.81,3.81,0,0,1-.07,1.61c-.23,1-.54,1.83-.8,2.84a3,3,0,0,0-.16,1.55,1.84,1.84,0,0,0,.72,1.08,2.12,2.12,0,0,0,1.4.39,3,3,0,0,0,2.27-1.34,8,8,0,0,0,1.44-4,10,10,0,0,0,.06-1.73,4.79,4.79,0,0,0-1-2.69,4.48,4.48,0,0,0-2.15-1.46,7.06,7.06,0,0,0-3.23-.2,5.68,5.68,0,0,0-4.2,3.06A6.06,6.06,0,0,0,5,8.2a3.71,3.71,0,0,0,.58,2.15,6.31,6.31,0,0,1,.39.54c.16.28,0,.7-.1,1s-.1.87-.54.88a1.33,1.33,0,0,1-.54-.21A4.38,4.38,0,0,1,2.73,9.33a7.59,7.59,0,0,1,0-2.77A7.87,7.87,0,0,1,6.49,1.29,9.12,9.12,0,0,1,9.84.12C10.28.06,10.73,0,11.2,0a8.33,8.33,0,0,1,3.72.69,7.64,7.64,0,0,1,2.55,1.84,7,7,0,0,1,1.59,2.85,6.83,6.83,0,0,1,.34,2,11.63,11.63,0,0,1-.27,2,8,8,0,0,1-3.29,5.53,5.84,5.84,0,0,1-1.5.69,5.45,5.45,0,0,1-1.93.24,4,4,0,0,1-1.7-.49A2.93,2.93,0,0,1,9.59,14.29Z"/></svg>