<svg xmlns="http://www.w3.org/2000/svg" height="24" viewBox="0 0 24 24"><path d="M0,0H24V24H0Z" fill="none"/><path d="M14.78,14.1c0,.79-.86,1.3-1.87,1.42V12.76C14,13,14.78,13.3,14.78,14.1Zm7-2.1A9.75,9.75,0,1,1,12,2.25,9.76,9.76,0,0,1,21.75,12Zm-4.69,1.86c0-2.34-2.16-2.77-4.2-3V8.15A1.83,1.83,0,0,1,14.4,9.63h2.29c-.22-2.34-2.24-3-3.86-3.2V4.62H11.14V6.38c-2.24.15-4,1.06-4,3.18s2,2.67,4,2.92v3a2,2,0,0,1-1.87-1.9H6.94c0,1.94,1.24,3.32,4.2,3.56v2.19h1.72V17.17C14.88,17,17.06,16.22,17.06,13.86ZM9.44,9.38h0c0,.75.72,1,1.74,1.21V8C10.14,8.14,9.44,8.57,9.44,9.38Z"/></svg>