<svg xmlns="http://www.w3.org/2000/svg" viewBox="0 0 22 22"><title>Share via Instagram</title><path d="M11,2c2.94,0,3.28,0,4.45.07a6,6,0,0,1,2,.38A3.52,3.52,0,0,1,19.6,4.54a6,6,0,0,1,.35,2C20,7.71,20,8.06,20,11s0,3.28-.07,4.45a6,6,0,0,1-.38,2,3.61,3.61,0,0,1-2.08,2.08,6,6,0,0,1-2,.38C14.29,20,13.94,20,11,20S7.72,20,6.55,20a5.68,5.68,0,0,1-2-.38,3.31,3.31,0,0,1-1.29-.82,3.45,3.45,0,0,1-.83-1.29,6.24,6.24,0,0,1-.34-2C2,14.29,2,13.94,2,11s0-3.28.07-4.45a5.68,5.68,0,0,1,.38-2A3.24,3.24,0,0,1,4.51,2.43a5.9,5.9,0,0,1,2-.38C7.7,2,8.05,2,11,2m0-2C8,0,7.63,0,6.49.06A8.24,8.24,0,0,0,3.8.58,5.25,5.25,0,0,0,1.87,1.87,5.25,5.25,0,0,0,.58,3.8,8.15,8.15,0,0,0,.06,6.44C0,7.61,0,8,0,10.94s0,3.36.06,4.51A8.08,8.08,0,0,0,.58,18.2a5.25,5.25,0,0,0,1.29,1.93A5.25,5.25,0,0,0,3.8,21.42a8.11,8.11,0,0,0,2.67.51C7.64,22,8,22,11,22s3.36,0,4.51-.06a8.11,8.11,0,0,0,2.67-.51,5.61,5.61,0,0,0,3.22-3.22,8.11,8.11,0,0,0,.51-2.67c.05-1.17.06-1.54.06-4.5s0-3.36-.06-4.51a8.11,8.11,0,0,0-.51-2.67,5.25,5.25,0,0,0-1.29-1.93A5.25,5.25,0,0,0,18.15.63,8.36,8.36,0,0,0,15.54.06C14.37,0,14,0,11,0Z"/><path d="M11,5.35A5.65,5.65,0,1,0,16.65,11h0A5.65,5.65,0,0,0,11,5.35Zm0,9.31A3.67,3.67,0,1,1,14.67,11h0A3.67,3.67,0,0,1,11,14.67h0Z"/><circle cx="16.87" cy="5.13" r="1.32"/></svg>