<svg xmlns="http://www.w3.org/2000/svg" viewBox="0 0 22 22"><title>Share via Twitter</title><path d="M15,2.07a4.64,4.64,0,0,1,3.56,1.42,7.51,7.51,0,0,0,2.31-.78l.55-.31a4.61,4.61,0,0,1-1.47,2.11,2.47,2.47,0,0,1-.49.36h0A8.44,8.44,0,0,0,22,4.18h0a7.3,7.3,0,0,1-1.53,1.75l-.7.55a13.2,13.2,0,0,1-.21,2.94c-1.09,5.06-4.1,8.5-8.83,10a13.59,13.59,0,0,1-6.37.26,17.48,17.48,0,0,1-2.65-.87A9.78,9.78,0,0,1,.4,18.13L0,17.89a7.71,7.71,0,0,0,1.44.05c.45-.07.88-.05,1.29-.14a9.24,9.24,0,0,0,2.71-1A4.8,4.8,0,0,0,6.66,16a3.83,3.83,0,0,1-1.34-.24A4.52,4.52,0,0,1,2.45,12.9c.45,0,1.72.16,2-.09A3.27,3.27,0,0,1,3,12.22,4.33,4.33,0,0,1,.87,8.35l.46.22a4.46,4.46,0,0,0,.95.26,1.31,1.31,0,0,0,.62.06h0c-.23-.27-.6-.44-.83-.73A4.61,4.61,0,0,1,1,4.07,4.8,4.8,0,0,1,1.52,2.9h0a2.61,2.61,0,0,0,.41.47A7.91,7.91,0,0,0,3.29,4.66,13.33,13.33,0,0,0,8.81,7.33a8.11,8.11,0,0,0,2,.26,4.19,4.19,0,0,1,0-2.11,4.48,4.48,0,0,1,2.58-3,6,6,0,0,1,1-.3Z"/></svg>