<svg id="Layer_1" data-name="Layer 1" xmlns="http://www.w3.org/2000/svg" viewBox="0 0 123.36 121.99"><defs><style>.cls-1{stroke:#000;stroke-miterlimit:22.93;stroke-width:0.48px;fill-rule:evenodd;}</style></defs><title>sale-tag-black</title><path class="cls-1" d="M88.55,118.62ZM23.26,39.25l5.42-3.85a27.54,27.54,0,0,0,4,5.3,37.8,37.8,0,0,0,3.5,3.16l1.4-1.41-2.3-2.75Q32.17,36,32.22,33.35a7.81,7.81,0,0,1,2.67-5.23q3.6-3.59,6.51-3.38T48,28.68a42.31,42.31,0,0,1,6.05,7.45l-5.2,3.79a39,39,0,0,0-3.77-4.6,28.7,28.7,0,0,0-2.81-2.53l-1.38,1.37,1.83,2.22q3.32,4,3.33,6.85a7.35,7.35,0,0,1-2.46,5.27A11.62,11.62,0,0,1,40.16,51a7.15,7.15,0,0,1-3,.72,6.18,6.18,0,0,1-2.84-.9,15.56,15.56,0,0,1-2.53-1.72c-.65-.56-1.49-1.34-2.5-2.36a41.75,41.75,0,0,1-6-7.5Zm21.43,22-5.93-5.93,22.11-13L69.56,51l-13,22.11-5.93-5.93,2.13-3.42-4.64-4.64L44.69,61.3Zm14.84-9.49L53.59,55.7l2.59,2.59,4-5.89-.6-.59Zm10,34.28L58.25,74.85,75.81,57.29l5.62,5.62L68.36,76,74,81.6l-4.49,4.49Zm20.05,6.79-5.62-5.62L81.78,89.4l6.88,6.88-4.49,4.5L71.66,88.27,89.23,70.71l12.36,12.36-5.2,3.8-6-6.05L88,83.19l5.62,5.61-4.07,4.08ZM20,12.58a6.35,6.35,0,0,1,4.64,1.81A6.52,6.52,0,0,1,26.69,19a6.57,6.57,0,0,1-6.44,6.64,6.15,6.15,0,0,1-4.67-1.77,6.23,6.23,0,0,1-2-4.58,6.37,6.37,0,0,1,1.85-4.72,6.29,6.29,0,0,1,4.57-2ZM72.89,118.39ZM48.71,1.45Q84.35,37,120,72.59a11,11,0,0,1-.26,15.64L88.78,118.38l-.24.23,0,0a10.71,10.71,0,0,1-7.87,3.12,11.34,11.34,0,0,1-7.39-3l-.35-.35L2.84,47.29a4.14,4.14,0,0,1-1.19-2.76L.24,5.87a4.15,4.15,0,0,1,4-4.28L45.56.25a4.07,4.07,0,0,1,3.15,1.2Z"/></svg>