<svg xmlns="http://www.w3.org/2000/svg" shape-rendering="geometricPrecision" text-rendering="geometricPrecision" image-rendering="optimizeQuality" fill-rule="evenodd" clip-rule="evenodd" viewBox="0 0 512 496.839"><path d="M183.09 450.706c3.384 0 6.15 2.758 6.15 6.164 0 3.384-2.766 6.142-6.15 6.142a6.15 6.15 0 01-6.143-6.142c-.027-3.398 2.731-6.164 6.143-6.164zm258.97-257.362c-5.215-2.45-18.076-5.786-22.106-9.818a49.563 49.563 0 01-8.834-11.993 49.593 49.593 0 01-8.835 11.993c-8.907 8.909-29.343 14.441-42.871 14.441-13.528 0-33.964-5.532-42.873-14.441a49.514 49.514 0 01-8.835-11.993 49.563 49.563 0 01-8.834 11.993c-8.909 8.909-29.345 14.441-42.873 14.441-13.527 0-33.963-5.532-42.871-14.441a49.62 49.62 0 01-8.835-11.993 49.514 49.514 0 01-8.835 11.993c-8.908 8.909-29.344 14.441-42.873 14.441-13.524 0-33.96-5.532-42.87-14.441a49.62 49.62 0 01-8.835-11.993 49.567 49.567 0 01-8.835 11.993c-5.863 5.866-21.338 10.264-29.521 12.59-16.449 2.011-35.846-.353-48.083-12.59C5.531 174.62 0 162.321 0 148.795v-19.077l.006-.265v-.024a5.582 5.582 0 01.716-2.77L35.357 15.68C38.213 6.535 45.165.672 58.627.01L450.662 0c12.091 1.305 19.962 6.379 23.218 15.579l37.289 110.928c.498.824.759 1.725.801 2.625l.002.014c.02.188.028.381.028.572v19.077c0 13.526-5.533 25.825-14.442 34.731-14.514 14.523-36.584 14.15-55.498 9.818zm37.303 25.647v252.607c0 6.914-2.864 13.235-7.436 17.807-4.574 4.574-10.894 7.434-17.809 7.434H57.896c-6.924 0-13.256-2.844-17.833-7.422l-.698-.769c-4.157-4.51-6.72-10.507-6.72-17.05V219.167c6.949 1.459 14.018 2.054 20.858 1.985v250.446c0 1.054.375 2.021.991 2.768l.317.303c.807.807 1.907 1.311 3.085 1.311h396.222c1.158 0 2.248-.51 3.061-1.323.813-.813 1.325-1.903 1.325-3.059V220.251c6.721.337 13.525.04 20.199-1.14l.66-.12zm-293.12 47.959c33.444-41.326 71.99-63.799 100.934-27.041 34.743 1.832 49.459 54.161 22.088 77.521l-.146 1.259a15.4 15.4 0 012.89-.516c2.097-.163 4.114.18 5.838 1.1 1.887 1.009 3.336 2.645 4.083 4.973.71 2.198.742 4.994-.185 8.416l-4.355 12.365c-.719 2.046-1.381 3.485-2.84 4.647-1.497 1.192-3.298 1.637-6.074 1.491l-.935-.09c-.373 13.658-7.105 19.984-15.906 28.249l-.048.045a24.74 24.74 0 00.034 2.262c2.495 3.406 5.226 6.097 8.319 8.04 6.858 3.609 15.623 4.363 24.974 5.315l-11.825 42.263H204.022l-15.005-42.57c10.533-1.929 21.305-4.619 31.621-11.858a39.32 39.32 0 001.652-1.469l.197-5.134c-6.756-6.118-12.026-12.521-13.223-25.133l-.525.004c-1.815-.026-3.563-.438-5.203-1.373-2.627-1.495-4.461-4.034-5.696-6.894-1.455-3.368-2.111-7.304-2.266-10.272l-.004-.093c-.046-1.092-.044-3.179.01-5.162.05-1.72.14-3.39.273-4.343.044-.313.126-.609.241-.886 1.79-4.979 4.494-6.711 8.034-6.729l-1.969-1.311c-1.304-16.277 1.761-41.727-15.916-47.076zm98.895 118.374c-8.083 6.74-16.777 10.023-25.602 10.027-10.138.004-20.28-4.327-29.705-12.709l-.98-.857c3.81 33.585 50.563 36.288 56.287 3.539zm46.179 65.382c3.384 0 6.136 2.758 6.136 6.164 0 3.384-2.752 6.142-6.136 6.142-3.392 0-6.158-2.758-6.158-6.142 0-3.398 2.766-6.164 6.158-6.164zm-159.705-52.792c-19.395 4.412-41.658 13.947-51.255 56.006l-3.683 14.114h46.566v-21.82c0-4.927 4.056-8.965 8.984-8.965h9.582c-.414-15.597-8.211-31.961-10.194-39.335zm223.797 70.12l-4.241-16.527c-8.359-37.65-30.568-49.27-48.176-53.721-1.78 7.366-7.253 24.791-7.543 39.429h6.754c4.928 0 8.97 4.044 8.97 8.971v21.848h44.236zM210.24 324.009c-3.697-1.288-6.323-1.894-7.326.305-.08.779-.138 1.955-.171 3.176-.05 1.8-.05 3.693-.008 4.66l.002.034c.117 2.278.613 5.277 1.703 7.8.676 1.565 1.551 2.88 2.635 3.498.529.301 1.12.437 1.748.444.791.01 1.676-.153 2.613-.428a3.584 3.584 0 014.751 3.302c.353 14.894 6.98 20.601 15.033 27.537l3.386 2.94c8.09 7.194 16.604 10.913 24.93 10.911 8.096-.002 16.199-3.541 23.756-10.84l3.428-3.25c8.454-7.94 14.675-13.781 13.485-28.005a3.666 3.666 0 01.59-2.262 3.582 3.582 0 014.958-1.025 8.452 8.452 0 001.716.881c.465.188.925.291 1.373.315l1.244.056c.044-.036.237-.57.536-1.419l4.209-11.93c.522-1.969.57-3.366.279-4.273-.128-.417-.355-.691-.635-.841-.451-.241-1.131-.321-1.932-.259-1.805.14-3.918 1.015-5.799 2.435a3.592 3.592 0 01-5.702-3.469c3.109-18.172 1.688-30.006-2.175-38.064-3.342-6.969-8.665-11.226-14.451-14.407-13.045 9.959-22.251 11.098-31.429 12.23-7.551.931-15.091 1.864-25.059 8.762-4.734 3.27-7.871 7.224-9.471 11.818-1.614 4.636-1.73 10.039-.406 16.161a3.57 3.57 0 01-.084 2.206 3.594 3.594 0 01-4.606 2.135c-1.026-.377-2.088-.805-3.121-1.134z"/></svg>