<svg xmlns="http://www.w3.org/2000/svg" width="2.53mm" height="4mm" viewBox="0 0 7.17 11.34"><path d="M6.17,5.74c-2.31,2.26-2.71,2-5,4.69Z" style="fill: #fff"/><path d="M5.72,4.83c-1.79,1.66-3.54,3-5.25,4.8A1,1,0,1,0,1.92,11C3.44,9.31,5.14,8.1,6.8,6.5,7.76,5.64,6.67,4,5.72,4.83Z" style="fill: #1a2e44"/><path d="M5.73,5.32C3.29,3.17,3.56,3.59.9,1.14Z" style="fill: #fff"/><path d="M6.2,4.42C4.58,3,3,1.67,1.37.25c-1-.91-2,.92-.89,1.91C2.1,3.58,3.68,4.9,5.31,6.33,6.24,7.12,7.25,5.3,6.2,4.42Z" style="fill: #1a2e44"/></svg>