<svg height="132.29mm" viewBox="0 0 266 375" width="93.84mm" xmlns="http://www.w3.org/2000/svg"><path d="m135.25 153.71c38.7 5.8 91.95-22 97.81-61.14s-26.95-73.06-65.65-78.86-74.83 21.2-80.69 60.29 9.82 73.91 48.53 79.71z" fill="#22d172"/><path d="m90.08 168.14s-48.71-5.62-60.08-4.41a2 2 0 0 0 -1.8 2.29c.07 2.86 73.81 26.26 88.68 29.42a49.13 49.13 0 0 0 8 .54c1.72-.24 27.87-3 37.82-4 1-.11 3.38-2 2.37-2.31z" fill="#1a2e44"/><path d="m103.44 129.78c8.68-19.94 9.71-46 17.89-50.15s19.3 3.75 20.67 13.31c2.51 17.65-14.33 50.27-18.75 62.76" fill="#fff"/><path d="m104 130.17c4.49-10.49 6.75-21.67 9.56-32.68 1.81-7.12 3.76-18.57 13.24-18.21 5.39.2 10.42 4.11 12.92 8.72 2.32 4.25 2.16 9.24 1.57 13.92-1.21 9.6-4.62 18.92-8.13 27.89-3.35 8.54-7.37 16.85-10.47 25.49-.25.7.79 1.69 1.12.78 6.59-18.34 17.25-36.06 18.9-55.85.76-9.09-2.69-18.21-11.89-21.59-3.6-1.32-8.22-1.36-11.25 1.3-2.67 2.35-4 6.21-5.06 9.48-4.34 13.21-6.11 27.09-11.61 40-.31.66.72 1.63 1.1.75z" fill="#1a2e44"/><path d="m106.18 137.53s-6-35.89-8.41-47.06c-.41-1.9 0-5.51-.1-6.49-.24-2.86-.76-4.78-.8-6.36-.28-9.85 3.62-8.63 1.56-10.1-3-2.1-6.75 1.8-7.73 6.34-3.43-1.68-14.19-7.31-17.11-7.92-1.82-.37-6.3-1.81-6.07.18-2.07.12-4.67.34-3.46 2.76-1.76.68-3.19 1.26-1.79 3.54-2.39 1.07-.81 2.57-.39 3.52s5.22 5.67 11.29 9.12a13.68 13.68 0 0 1 4.83 5.21c1.93 3.31 1.63 42.29 1.63 42.29s2.07 26.86 4.25 30.8 26.53-2.46 29-4.77 10-23.48 10-23.48" fill="#fff"/><path d="m106.94 137.62q-2.62-15.74-5.42-31.42-.88-5-1.83-9.93c-.54-2.78-1.36-5.61-1.35-8.46 0-4.09-.86-8.12-.7-12.19a13.81 13.81 0 0 1 .92-5c.26-.57 1-1.26 1.11-1.87.31-1.35-1.27-2.15-2.47-2.36-4-.7-6.43 4.13-7.23 7.22l1.11-.23c-4-2-8-4.09-12.14-6-3-1.36-6.44-2.88-9.8-2.93a3.19 3.19 0 0 0 -1.56.22c-.31.18-.58.79-.77.89-1.11.59-2.77-.15-3.57 1.27-.29.51 0 1.12-.23 1.54s-1.07.56-1.48 1c-.72.84-.27 1.11-.44 2s-.6 1.24-.78 2c-.66 2.65 4 6 5.59 7.32 3.79 3.13 10.1 5.36 11.67 10.31.77 2.4.68 5.31.82 7.8.22 4 .32 8.08.4 12.12.2 10.83 0 21.44 1.08 32.21.42 4.07.87 8.14 1.48 12.19.36 2.41.48 5.95 1.84 8.07 1.06 1.65 3.27 1.77 5.06 1.78a48.91 48.91 0 0 0 11.09-1.47 65.9 65.9 0 0 0 12-3.52c2.34-1 3.18-2.44 4.28-4.71a196.5 196.5 0 0 0 8-20.17c.26-.72-1.21-1.22-1.46-.49q-2.16 6.09-4.54 12.11c-1.07 2.71-2.17 5.43-3.44 8.06-.78 1.6-1.39 3-3 3.81-5.08 2.52-11.32 3.72-16.87 4.6-2.54.4-5.4.91-8 .47-2.11-.37-2.24-1.93-2.64-3.81-4.07-18.65-2.89-37.6-3.57-56.51-.15-4.06.34-9.42-1.28-13.27-1.51-3.62-5-5.39-8-7.43-1.31-.86-11.65-7.75-8-10a.46.46 0 0 0 .18-.56c-.29-1.66.19-2.63 1.45-2.91a.5.5 0 0 0 .34-.63c-.76-2 2-2 3-2.09a.55.55 0 0 0 .54-.51c.18-2.1 10.34 2.33 11.24 2.76 3.64 1.71 7.21 3.57 10.82 5.35.3.15 1 .26 1.1-.22.51-1.93 1.51-4.89 3.51-5.83.32-.14 3.2-.54 3.32-.07 0 .07-.29.33-.32.44a14.18 14.18 0 0 1 -1 1.75 13.57 13.57 0 0 0 -.81 3.79c-.34 3.58.69 6.92.71 10.47a40 40 0 0 0 .57 8c2.36 11.58 4.28 23.24 6.27 34.89q.84 5 1.67 9.91c.14.78 1.66 1.03 1.53.24z" fill="#1a2e44"/><path d="m107.11 187.49a480.1 480.1 0 0 1 49.59-4.88.76.76 0 0 0 .08-1.5l-54.07-12.61" fill="#fff"/><path d="m107.16 188.07c13.68-2.15 27.48-3.51 41.3-4.39.93-.07 12 .33 9.28-2.72-.61-.68-2.19-.74-3-.92l-38.74-9.04-13-3c-.75-.18-1.66.84-.68 1.07l28.54 6.66 18.71 4.36 5.42 1.27c.16 0 1.15.14 1.23.28.24.48-5.24.74-6.15.8-14.41.89-28.79 2.27-43.05 4.51-.9.12-.82 1.27.14 1.12z" fill="#1a2e44"/><path d="m157.37 182.86a7.9 7.9 0 0 0 -1 2.54c-.1 2.72-48.72 6.46-49 4.84v-2.5" fill="#1a2e44"/><path d="m157 182.37a10.52 10.52 0 0 0 -.7 1.43c-.08.19-.78 1.66-.32 1.26a4.25 4.25 0 0 1 -1.43.57 40.29 40.29 0 0 1 -5.42 1.08c-5.68.9-11.4 1.47-17.12 2s-11.42.92-17.14 1.11a51.38 51.38 0 0 1 -5.55 0 3.7 3.7 0 0 1 -1.41-.17c.44.27.07.29.16-.5a12.68 12.68 0 0 0 0-1.51c0-1-1.17-.69-1.17.18 0 2.91-.11 3.43 2.78 3.54a115.35 115.35 0 0 0 11.61-.36c10.11-.61 20.4-1.3 30.37-3.19a16.39 16.39 0 0 0 4.14-1.07c1.48-.75 1.24-2 2-3.41.36-.68-.36-1.84-.8-.96z" fill="#1a2e44"/><path d="m220.38 110.89c4.4 1.12 6 1 7.88 5.09 1.34 2.89.54 6.22.16 9.39-2.26 18.68-5.39 32.22-11.31 50.58l-7.57-1.72" fill="#1a2e44"/><path d="m220 111.56c1.84.46 4.1.69 5.62 1.93 2.38 2 2.85 5.43 2.58 8.3-.58 6.31-1.6 12.67-2.71 18.91a268.71 268.71 0 0 1 -9 35.22l1-.64-7.58-1.72c-.72-.16-1.51 1.16-.73 1.33l7.58 1.72a.89.89 0 0 0 1-.64 266.42 266.42 0 0 0 9.7-39.14c.57-3.48 1-7 1.49-10.46.38-3 1.18-6.23.47-9.23-1.14-4.83-4.36-5.86-8.66-6.92-.76-.17-1.53 1.15-.76 1.34z" fill="#1a2e44"/><path d="m214.66 109.77c4.4 1.12 6.19-.18 8.1 3.94 1.34 2.89-.1 4.91-.49 8.06-2.73 21.73-7.55 37.66-13 53l-13.27-2.66z" fill="#fff"/><path d="m214.37 110.49c3.37.77 7.07.31 8.16 4.5.62 2.42-.66 5.5-1 7.94-.32 2.29-.63 4.57-1 6.84a224.46 224.46 0 0 1 -5.85 26.4c-1.16 4.05-2.43 8.05-3.77 12-.44 1.31-.94 4.46-1.9 5.48s1 0 .07.25c-.24.07-.79-.16-1-.21l-11.94-2.36.4 1q8.19-27.3 16.37-54.61 1.16-3.85 2.32-7.73c.27-.91-.8-1.36-1.08-.44q-8.19 27.3-16.37 54.61c-.77 2.58-1.55 5.16-2.32 7.73-.12.41-.09.87.4 1l13.29 2.63c.28 0 .59-.3.67-.53a257.79 257.79 0 0 0 10.7-38.15q1.09-5.73 1.91-11.52c.42-3 1.64-6.47 1.51-9.52a7 7 0 0 0 -2.7-5.3c-1.72-1.16-4.33-1-6.26-1.42-.78-.2-1.35 1.24-.61 1.41z" fill="#1a2e44"/><path d="m190.16 176.79s10 .75 8.62 3.19-32.49 1.61-34.07 0 3.95-5.42 6.91-5.49 18.54 2.3 18.54 2.3z" fill="#1a2e44" stroke="#fff" stroke-linecap="square" stroke-width=".25"/><path d="m111.79 153.59c8.54.52 90.42 21 119.39 26.12z" fill="#fff"/><path d="m111.63 154.34c4.14.28 8.31 1.43 12.35 2.3 7.93 1.71 15.83 3.54 23.73 5.36 19.35 4.46 38.68 9 58.07 13.29 8.39 1.84 16.79 3.68 25.25 5.17.76.13 1.08-1.38.32-1.51-35.16-6.19-69.75-15.65-104.62-23.28-4.82-1.06-9.83-2.49-14.78-2.84-.77-.05-1.07 1.46-.32 1.51z" fill="#1a2e44"/><path d="m118.4 82.74c8.65-10 21.89-11.95 37-11.95 29.58 0 61.08 5.31 61.08 23.8s-19 68.12-28.21 74.54c-18.05-5.11-53.18-10.08-76.48-16.94.9-8 2-15.64 3.62-27.41.45-3.23-3-9.81-2.51-13.07 1-7.07 6.19-11.78 8.48-16.76" fill="#fff"/><path d="m118.91 83.05c8.91-10.06 22.65-11.53 35.32-11.61s25.66.64 38 3.7c8.53 2.11 20 6 22.91 15.38 1.1 3.54.58 7.44 0 11a120.39 120.39 0 0 1 -2.76 12.6 235.33 235.33 0 0 1 -9.72 28.4c-3.14 7.6-6.5 15.5-11.28 22.23a21.32 21.32 0 0 1 -2.32 2.86c-.48.46-.72.62-1.12.64-1 .07-2.36-.63-3.34-.87-5.3-1.34-10.66-2.45-16-3.54-12.33-2.5-24.72-4.76-37-7.47-3.38-.75-6.76-1.52-10.13-2.36q-2.61-.65-5.22-1.35c-1.11-.3-3.19-.42-3.67-1.53-.41-.92.46-3.91.59-5 .18-1.43.37-2.85.56-4.27.52-4 1.08-8 1.63-12 .39-2.79 1-5.5.49-8.29s-1.87-5.54-2.2-8.43c-.78-6.83 5.58-12.45 8.34-18.13.44-.91-.89-1-1.23-.3-2.11 4.34-5.5 7.93-7.32 12.44s-1 7.91.38 12.51c1.65 5.7 0 11.6-.81 17.38-.69 5.08-1.35 10.15-1.94 15.23a.46.46 0 0 0 .37.46c21.56 6.29 43.88 9.44 65.77 14.3q3.21.7 6.4 1.49c1.22.31 3.61 1.45 4.84 1.07 1.61-.5 3.22-3.18 4.11-4.45 4.1-5.82 7.12-12.46 9.94-19 6.43-14.91 12.52-31.11 14.39-47.34.76-6.57-.47-12.26-5.65-16.75-6.85-5.92-16.6-8.25-25.3-9.76a167.12 167.12 0 0 0 -38.24-2.07c-11.12.69-22.17 3.46-29.82 12.09-.66.87.44 1.39 1.03.74z" fill="#1a2e44"/><path d="m167 55.44c-16-4-26.23-18.06-22.87-31.29s12.11-24.72 28.59-24.15c2.74.12 14.88 1.8 13.28 8.28 14.4-4.08 19.63 12.22 16.84 23.26-3.36 13.23-19.9 27.96-35.84 23.9z" fill="#1a2e44"/><path d="m203.3 29.31-21.25.21-7.82 30.82c2.17 1.89-.92 12.79 4 12.71s17.64 1.78 21.89 3.76c7.74-11-6.52-17.34-5.79-25 .9-9.04 6.76-9.22 8.97-22.5z" fill="#1a2e44"/><path d="m151.3 13 14.1 7-7.81 30.8c.85 2.89-5.86 22.73-10.17 20.31-.75.72-2.83-2.34-10.12 1.71-13.16-14.1 10.4-16.69 12.1-29.14 3.14-4.05 1.6-21.11 1.9-30.68z" fill="#1a2e44"/><path d="m181.67 50q-2.76 13.41-3.67 18c-.61 3.07-.17 2.4 1.51 4.4-13 2.78-18.57 26.89-31.85 25-7-1.52-.65-20.39.3-26.11 5.37-2.85 5.91-9.34 7.09-13.05 8.49-5.6 14.3-8.85 17.35-9.73 2.82-.8 5.9-.32 9.27 1.49z" fill="#fff"/><path d="m181.05 50.07q-1.58 7.63-3.13 15.29a20.9 20.9 0 0 0 -.79 4.45c.07 1.49.91 2.06 1.87 3.14l.63-1.26c-6.24 1.49-10.4 6.76-14.12 11.62-3.87 5-8.57 13.08-15.72 13.48-7.92.44-4-13.16-3-17.47.37-1.63.78-3.27 1.17-4.9a14.57 14.57 0 0 1 .45-2c.35-.87.43-.79 1.23-1.44 2.8-2.28 4.14-5.48 5.06-8.9a17 17 0 0 1 .68-2.66c.67-1.42 2.47-2.24 3.8-3.09 2.36-1.5 4.75-3 7.19-4.32 5.1-2.81 9.32-4.19 14.93-1.38.69.35 1.5-1 .82-1.31-4-2-7.78-2.47-11.89-.68a91.49 91.49 0 0 0 -12.89 7.4c-1.8 1.16-2.67 1.41-3.2 3.39-.67 2.51-1.16 5.11-2.47 7.4a11.19 11.19 0 0 1 -3.14 3.43c-.44.33-.82.43-1.1.9-.6 1-.65 3-.93 4.2a99.43 99.43 0 0 0 -2.5 12.34c-.3 2.69-.65 6.23.91 8.64 3.54 5.44 11.83-.78 14.67-3.8 6-6.38 10.61-17.21 19.83-19.42.46-.12 1.05-.81.63-1.27-1.42-1.58-1.76-2.13-1.33-4.33.27-1.4.56-2.79.84-4.18q1.35-6.71 2.74-13.4c.22-.94-1.09-.65-1.24.13z" fill="#1a2e44"/><path d="m164.13 60.58-7.75-4.75-3.07 9.24a31.32 31.32 0 0 0 4.89-1.58 51.59 51.59 0 0 0 5.93-2.91z" fill="#1a2e44"/><path d="m150.88 56.34c-7.77-5.69-8.49-14.5-1-28.94 1.47-2.84 2.75-8.44 4.77-10.16a61.63 61.63 0 0 0 26.09 2.76c-2.26 6.32-3.14 13.07-.09 19.89 8.13-2.65 9.65 3.55 9.36 5.58-.63 4.41-7.52 9.09-13.16 5.71-7.98 10.91-18.21 10.82-25.97 5.16z" fill="#fff"/><path d="m151.22 55.7c-10.46-8-4.36-19.53-.26-29.22 1-2.32 1.59-4.85 2.86-7 1.05-1.84 2.15-1 4-.48 1.28.35 2.58.66 3.88.93a65 65 0 0 0 19 .91l-.48-1c-2.35 6.82-2.91 13.71-.09 20.48.11.25.33.5.63.41 3.53-1 8.55-.66 8.71 4.09.2 6-8.25 7.9-12.39 5.71a.5.5 0 0 0 -.58.15c-3.13 4.12-7.17 7.69-12.43 8.55-4.61.77-9.1-.83-12.84-3.47-.73-.52-1.29.86-.69 1.28 5.43 3.84 12.06 5.24 18.24 2.24a19.87 19.87 0 0 0 4.39-3c1-.86 1.76-1.93 2.73-2.79 1.41-1.24 1.44-.94 3.2-.53a9.93 9.93 0 0 0 8.7-2.54c3.06-2.78 4.05-7.68.5-10.57a5.93 5.93 0 0 0 -2.8-1.22c-1.31-.22-3.77.64-4.77-.09s-1.18-4.14-1.3-5.16a24.56 24.56 0 0 1 -.12-4 32.86 32.86 0 0 1 2-9c.1-.29 0-1.06-.47-1a67.63 67.63 0 0 1 -26-2.75.53.53 0 0 0 -.58.15c-2.66 2.66-3.33 7-4.88 10.31-2 4.35-4.12 8.59-5 13.37-1.17 6.59.68 12.52 6.09 16.64.77.42 1.33-.95.75-1.4z" fill="#1a2e44"/><path d="m165.11 64.89c1.33-7.71-7.14-6.3-2.86-12.07s10.93-8.14 14.87-5.29 3.64 9.81-.64 15.58-12.71 9.48-11.37 1.78z" fill="#fff"/><path d="m155.17 23.88a1.57 1.57 0 0 1 -1.24-2.16 1.77 1.77 0 0 1 2.33-.36c.89.46 1.72.84 1.38 1.5a2.27 2.27 0 0 1 -2.47 1.02z" fill="#1a2e44"/><path d="m159.27 27a35.78 35.78 0 0 1 -1.59 4.42c-.91 1.9-2.41 4-2.72 4.64-.55 1.15-.28 2.45.79 3.91" fill="#fff"/><path d="m158.58 26.9a38.35 38.35 0 0 1 -3.79 8.17c-1.12 1.93-1 3.39.28 5.28.43.64 1.77-.12 1.35-.76-1.77-2.69-.17-4.32 1.16-6.65a29.81 29.81 0 0 0 2.36-5.86c.29-.91-1.13-.9-1.36-.18z" fill="#1a2e44"/><path d="m164.54 44.33a9.44 9.44 0 0 1 -4.47 3.24 5.28 5.28 0 0 1 -4.87-1.23" fill="#fff"/><path d="m164.19 43.8c-2.4 2.78-5.31 4.26-8.61 1.87-.67-.48-1.37.89-.77 1.32 3.74 2.7 7.29 1.08 10.07-2.14.52-.6-.04-1.85-.69-1.05z" fill="#1a2e44"/><path d="m163.38 32.53a1.37 1.37 0 0 1 .55 2c-.39.78-1.16 1.2-1.72.92a1.09 1.09 0 0 1 -.49-1.61c.38-.84.88-1.69 1.66-1.31z" fill="#1a2e44"/><path d="m150.41 31.78c-.82-.27-.76-.81-.48-1.64s.77-1.22 1.36-1a1.1 1.1 0 0 1 .71 1.53c-.28.8-.76 1.38-1.59 1.11z" fill="#1a2e44"/><path d="m168.82 28.36c-1.46-1.19-2.31-2.67-1.68-3.43s2.06 0 3.8.84 2.15 2.73 1.52 3.5-2.19.28-3.64-.91z" fill="#1a2e44"/><path d="m185.37 45a9.56 9.56 0 0 0 -2.47-.82 16.65 16.65 0 0 0 -3.15.07" fill="#fff"/><path d="m185.54 44.25a10.85 10.85 0 0 0 -5.78-.76c-.73.06-.87 1.59 0 1.52a15.53 15.53 0 0 1 2.89-.1 9.18 9.18 0 0 1 2.58.84c.64.31 1.03-1.18.31-1.5z" fill="#1a2e44"/><path d="m206.3 79.72a19.68 19.68 0 0 1 11.42 14.75c2.74 19.21-15.35 55.16-18.34 67.6s-7.64 17-16.88 17.71-49.23-12.36-61.29-16.1c-2 2.74-5.67 3.47-9.29 3.74-7 .51-12.39 7.45-12.45 5.75l-4.61-12.4c.64-3 4-9.9 12-13.16a29.67 29.67 0 0 1 4.74-1.46 37.71 37.71 0 0 1 8.7-.84c1 0 4.93 1.52 6.08 1.47 18.63-.81 34 1.91 46.88 3 5.93-13.62 4.37-28.92 12.31-50.77" fill="#fff"/><path d="m206.05 80.45c15.52 6.73 11.59 25.4 8 38.18-3.44 12.1-8.35 23.66-12.66 35.45-1.75 4.78-2.69 9.9-4.64 14.59-2.49 6-6.91 9.64-13.39 10.28-3.77.38-7.63-.56-11.29-1.36-5.47-1.19-10.89-2.66-16.28-4.18-11.5-3.26-22.87-6.92-34.28-10.46a.57.57 0 0 0 -.6.2c-3.41 4-8.7 2.75-13.12 4.56a24.53 24.53 0 0 0 -4.56 2.55c-.52.37-2.56 2.41-3.21 2.33-.34-.05.57.26 0-.1-.16-.09-.31-.83-.36-1-.47-1.27-.94-2.55-1.42-3.82-.78-2.12-2.28-4.68-2.58-6.93-.21-1.67 2.16-5.18 3.57-6.83 3.43-4 8.21-6.24 13.32-7.23a27 27 0 0 1 7.75-.66c1.63.19 3.16.94 4.77 1.28a28.82 28.82 0 0 0 6.09.06q4.59 0 9.15.13c11 .45 22 2 32.95 3.06.31 0 .54-.33.64-.57 2.93-6.9 4.12-14.29 5.31-21.64a163.73 163.73 0 0 1 7-29.13c.33-.91-.77-1.28-1.09-.38a147.9 147.9 0 0 0 -6.3 24.68c-1.2 7-2 14.17-4.13 21-.27.86-.82 3.9-1.57 4.38-.9.57-3.79-.25-4.82-.36-4-.44-8.07-.93-12.12-1.35a205.93 205.93 0 0 0 -27.2-1.27c-2.94.09-5.15-.92-8-1.32-3.32-.48-7.16.22-10.39 1a22.65 22.65 0 0 0 -14.71 11.07c-.66 1.24-1.64 3-1.51 4.42s1.11 3 1.58 4.25l2.34 6.32c.2.52.49 2.17 1.12 2.43.89.37 2.36-1.2 2.92-1.62a21.1 21.1 0 0 1 10.47-4.43c2.72-.34 5.51-.83 7.67-2.68 1.11-.95 1.12-.83 2.49-.4l3.32 1c11.31 3.57 22.63 7.12 34.08 10.21 8.1 2.19 17.86 5.81 26.3 3.59 11.07-2.93 12.15-15.11 15.43-24.25 4.82-13.48 10.63-26.62 14.13-40.54 3.21-12.79 5.17-29.66-9.61-36.07-.76-.2-1.27 1.25-.56 1.56z" fill="#1a2e44"/><path d="m185.65 151.82c-3.81-1.58-8.29-1.92-12.33-2.57-.95-.16-1.07 1-.12 1.15 3.92.63 8.23.95 11.92 2.48.82.35 1.46-.67.53-1.06z" fill="#1a2e44"/><path d="m162.9 37.76a4.42 4.42 0 0 1 -1.13-6.64 4.8 4.8 0 0 1 6-.9 4.4 4.4 0 0 1 1.13 6.64 4.84 4.84 0 0 1 -6 .9c-.72-.38-1.08 1.11-.43 1.45a5.81 5.81 0 0 0 8.05-2.6 6.11 6.11 0 0 0 -2.34-7.85 5.8 5.8 0 0 0 -8.05 2.6 6.15 6.15 0 0 0 2.34 7.85c.67.44 1.05-1.05.43-1.45z" fill="#1a2e44"/><path d="m150.89 33.56a4.47 4.47 0 0 1 -1.89-5.64 4.34 4.34 0 0 1 6.07-1.71 4.45 4.45 0 0 1 1.93 5.64 4.35 4.35 0 0 1 -6.07 1.71c-.69-.36-1.54.94-.86 1.29a5.8 5.8 0 0 0 7.76-2.11 5.71 5.71 0 0 0 -1.83-7.81 5.78 5.78 0 0 0 -6 9.92c.67.42 1.53-.85.89-1.29z" fill="#1a2e44"/><path d="m160.85 31.23a7.82 7.82 0 0 0 -2.63-1.1c-.72-.15-1.48 1.19-.69 1.36a7.06 7.06 0 0 1 2.36.95c.66.41 1.61-.8.96-1.21z" fill="#1a2e44"/><path d="m216.49 111.85c-.74-3.62-28.29-9.44-32.7-5.6" fill="none" stroke="#1a2e44" stroke-width="2"/><path d="m119.54 98.19c-1.63-.29-4.21-1.5-7.13-.77" fill="none" stroke="#1a2e44" stroke-width="2"/><path d="m107.68 190.63c2.16.5 4.8-2.52 4.14-4.35-7.3-23.66-13.15-43-20.88-59.83-.28-.77-3-2.36-3.76-2.52s-4.58-1-4.58-1" fill="#1a2e44"/><path d="m107.54 191.34a5 5 0 0 0 4.89-3.71 4.94 4.94 0 0 0 -.36-2.89c-.65-2.29-1.4-4.55-2.1-6.82-2.68-8.68-5.37-17.36-8.3-25.95-2.6-7.62-5.39-15.18-8.61-22.56-1.16-2.67-1.8-4.49-4.55-5.77a24 24 0 0 0 -5.62-1.39c-.72-.14-1.38 1.25-.58 1.4a36.52 36.52 0 0 1 4.58 1c3.14 1.05 4.08 3.56 5.3 6.39 2.47 5.72 4.69 11.55 6.76 17.42 2.27 6.42 4.37 12.91 6.42 19.4q1.71 5.41 3.38 10.84c.82 2.67 5.08 11.66-.94 11.22-.73-.06-1.16 1.36-.27 1.42z" fill="#1a2e44"/><path d="m28.28 164.26 77.55 25.86a2.33 2.33 0 0 0 2.92-3c-7.29-23.67-14.75-45.06-22.45-61.9a2.37 2.37 0 0 0 -1.76-1.5c-21.54-6.62-46.33-10.84-73.13-13.6a2.33 2.33 0 0 0 -2.61 3.08l18 49.65a2.31 2.31 0 0 0 1.48 1.41z" fill="#fff"/><path d="m27.92 164.83 37.9 12.63 26.08 8.7c4.42 1.48 8.93 3.44 13.48 4.5a3.44 3.44 0 0 0 3.13-.56c2.41-2 .25-5.61-.46-7.88-2.87-9.17-5.86-18.29-9.08-27.34-2.76-7.76-5.69-15.48-8.92-23.07-1-2.4-2-6.77-4.23-8.31-1-.69-2.61-.87-3.77-1.21q-3.4-1-6.84-1.91a387 387 0 0 0 -51.91-9.55c-2.33-.28-4.65-.55-7-.81-1.71-.19-4.05-.87-5.75-.5a3.16 3.16 0 0 0 -2.48 4 38.84 38.84 0 0 0 1.77 4.87l10.23 28.18 4.51 12.42c.71 1.95 1.17 4.8 3.17 5.83.64.32 1.82-.62 1-1-1.67-.85-2.07-3.44-2.64-5q-1.74-4.77-3.47-9.55l-9-24.9-3.17-8.73a13 13 0 0 1 -.8-2.21c-.5-3.61 4.18-2.35 6.25-2.12a428.64 428.64 0 0 1 50.48 8.29c3.69.87 7.36 1.79 11 2.81q2.43.67 4.84 1.39c2.57.77 3.42 2 4.45 4.29 3.12 7 5.94 14.13 8.6 21.32 2.85 7.69 5.5 15.45 8 23.25 1.35 4.16 2.68 8.31 4 12.48.4 1.28 1.94 4.35-1.16 4.46-.12 0-.27-.13-.4-.14-1.5-.1-3.34-1.11-4.76-1.58-2.94-1-5.88-2-8.82-2.94l-24.15-8.14-39.34-13.11c-.66-.24-1.66.84-.74 1.14z" fill="#1a2e44"/><path d="m48 133c1.47-.43 2.11-2.65 1.43-4.95s-2.43-3.81-3.9-3.37-2.1 2.65-1.42 4.95 2.46 3.78 3.89 3.37z" fill="#1a2e44" stroke="#fff" stroke-linecap="square" stroke-width=".25"/><path d="m106 166.13 2.83-1.72a1 1 0 0 0 .48-1 .49.49 0 0 0 -.73-.36l-2.84 1.72a1 1 0 0 0 -.48 1 .5.5 0 0 0 .74.36z" fill="#1a2e44"/><path d="m104.83 161.54 1.61-.95a.49.49 0 0 0 0-.82 1 1 0 0 0 -1.09 0l-1.61.95a.5.5 0 0 0 0 .83 1 1 0 0 0 1.09-.01z" fill="#1a2e44"/><path d="m103.16 157.62.5-.29a.92.92 0 0 0 .36-.48.74.74 0 0 0 0-.53.47.47 0 0 0 -.34-.3.74.74 0 0 0 -.48.12l-.5.29a1 1 0 0 0 -.37.47.8.8 0 0 0 0 .53.46.46 0 0 0 .34.31.68.68 0 0 0 .49-.12z" fill="#1a2e44"/><path d="m193 47.44c1.55-4.47-.41-9.22-4.39-10.61s-8.47 1.11-10 5.58.39 9.22 4.39 10.59 8.46-1.09 10-5.56z" fill="#fff"/><path d="m177.93 42.38c-1.37 4.59.21 10.3 5.4 11.52 4.52 1.06 8.86-2.27 10.29-6.43 1.55-4.53-.34-10.34-5.4-11.52-4.68-1.08-8.64 2.33-10.29 6.43-.36.93 1 .8 1.27.07 1.53-3.81 5.67-6.64 9.75-4.66 3.51 1.71 4.59 6.12 3.4 9.61-1.29 3.78-5.51 6.42-9.38 4.81s-4.87-6.07-3.76-9.76c.28-.96-1.05-.83-1.28-.07z" fill="#1a2e44"/><path d="m191.91 48.3c1.1-3.16-.28-6.51-3.08-7.48s-6 .78-7.07 3.94.28 6.5 3.09 7.48 5.97-.79 7.06-3.94z" fill="#fff"/><path d="m181 44.64c-1 3.39.3 7.38 4 8.28a6.66 6.66 0 0 0 7.62-4.49c1.13-3.26-.3-7.16-3.75-8.2s-6.64 1.28-7.91 4.41c-.3.76 1.23.93 1.5.24 1.06-2.61 4-4.92 6.84-3.11 2.1 1.34 2.58 4.19 1.82 6.41-.88 2.61-3.7 4.54-6.39 3.33-2.53-1.14-3-4.24-2.27-6.63.25-.78-1.28-.94-1.46-.24z" fill="#1a2e44"/><path d="m179.81 49.35c-5.6 3.47-13 4.41-21.83 3.23z" fill="#fff"/><path d="m179.24 48.92c-6.46 3.83-14.05 4-21.32 3.08-1-.12-.71 1.08.14 1.18 7.66 1 15.54.66 22.33-3.38.75-.44-.54-1.24-1.15-.88z" fill="#1a2e44"/><path d="m67.43 67.09 11.71 6.5c.63.35 1.48-.91.75-1.32l-11.7-6.5c-.64-.35-1.49.92-.76 1.32z" fill="#1a2e44"/><path d="m63.91 69.66 10.81 6.44c.7.41 1.12-1.07.48-1.45l-10.81-6.43c-.7-.42-1.12 1.07-.48 1.44z" fill="#1a2e44"/><path d="m62.38 73.08 8.89 5.33c.75.45 1.6-.41.73-.94l-8.89-5.33c-.76-.45-1.6.42-.73.94z" fill="#1a2e44"/><path d="m91.13 73.64c-6.13 2.85-6.24 5.87-6.13 7.8z" fill="#fff"/><path d="m90.87 72.93c-3.68 1.76-6.68 4.25-6.43 8.59 0 1 1.2.79 1.15-.16-.21-3.61 2.86-5.6 5.8-7 .61-.36.23-1.79-.52-1.43z" fill="#1a2e44"/><path d="m86.51 256.61c-.64 0-1.27-.08-1.88-.12" fill="none" stroke="#1a2e44" stroke-dasharray="3 4" stroke-linecap="square"/><path d="m80.81 256.2c-54.61-5 8.2-30.33-19.66-35.88-27.15-5.39-46.25-15.4-16.21-29.08" fill="none" stroke="#1a2e44" stroke-dasharray="3 4" stroke-linecap="square"/><path d="m46.57 190.52 1.63-.69" fill="none" stroke="#1a2e44" stroke-dasharray="3 4" stroke-linecap="square"/><path d="m171 370.67c0 2.23-15.55 4-34.73 4-9.16 0-20.22.67-26.42 0-6.81-.73-4.46-2.54-4.46-3.7 0-2.23 25.88-4 45.06-4s20.55 1.48 20.55 3.7z" fill="#1a2e44"/><path d="m120.76 332h30.56l12.68 20.65-1 19.35-54.63-.74-.37-15.38z" fill="#fff"/><path d="m121 333h29.5c.7 0 .78-1.45 0-1.45h-29.5c-.66-.02-.75 1.45 0 1.45z" fill="#1a2e44"/><path d="m120.16 332.35c-4.14 6.62-9.34 12.45-12.85 19.47-.34.66.4 1.74.83.88 3.51-7 8.72-12.84 12.85-19.46.4-.65-.32-1.71-.83-.89z" fill="#1a2e44"/><path d="m151 332.53c2.1 3.8 4.27 7.56 6.45 11.32a32.37 32.37 0 0 0 2.7 4.36 10.21 10.21 0 0 1 2.5 4c.26.93 1.21.23 1-.56-.84-3-3.28-5.1-4.84-7.78-2.35-4.07-4.71-8.14-7-12.25-.5-.83-1.21.25-.81.91z" fill="#1a2e44"/><path d="m1 359.89c0 1.67 10.62.89 27 .89 7.82 0 17.28.5 22.58 0 5.82-.55 6.36-2.15 6.36-3 0-1.67-24.66-2.76-41.06-2.76s-14.88 3.2-14.88 4.87z" fill="#1a2e44"/><path d="m42.59 327.07-24.69-1.07-17.9 16.51.94 17.49h49.74l.32-13.87z" fill="#fff"/><path d="m45.49 327c-8.9-.05-17.75-1-26.65-1.07-.95 0-.79 1.14.06 1.14 8.9 0 17.75 1 26.65 1.07.95.04.79-1.09-.06-1.14z" fill="#1a2e44"/><path d="m45.46 328.55c2.21 5.34 4 10.78 5.77 16.27.26.81 1.41 0 1.19-.7-1.79-5.5-3.55-10.92-5.76-16.28-.33-.79-1.47.06-1.2.71z" fill="#1a2e44"/><path d="m17.82 325.93c-3 2.91-6.31 5.57-9.48 8.33-2.49 2.15-5.24 4.33-7.16 7-.41.59.37 1.71.9.95 2-2.83 5-5.08 7.57-7.33 3-2.56 6-5.06 8.87-7.79.48-.44-.08-1.75-.7-1.16z" fill="#1a2e44"/><path d="m11.53 342.65c.36-1 7.35-7.11 7.35-7.11l25.32.8 2.82 7h-11.02l-2.85 5.76-12.75-.15-2-4.94z" fill="#1a2e44"/><path d="m18.31 327.05v10.34c0 .91 1.11 1 1.11 0v-10.3c0-.91-1.11-.96-1.11-.04z" fill="#1a2e44"/><path d="m43.64 328.17c-.11 3.39-.21 6.78-.32 10.17 0 .92 1.09 1 1.11 0q.16-5.08.31-10.17c.03-.87-1.07-.93-1.1 0z" fill="#1a2e44"/><path d="m266 357.89c0 1.67-10.82.89-27.51.89-8 0-17.59.5-23 0-5.92-.55-6.47-2.15-6.47-3 0-1.67 25.11-2.76 41.8-2.76s15.18 3.2 15.18 4.87z" fill="#1a2e44"/><path d="m218.41 325.07 24.69-1.07 17.9 16.51-.94 17.49h-49.75l-.31-13.88z" fill="#fff"/><g fill="#1a2e44"><path d="m216.09 326.3c8.89-.05 17.75-1 26.64-1.07.73 0 .6-1.47-.14-1.47-8.89.05-17.75 1-26.65 1.07-.72.01-.59 1.48.15 1.47z"/><path d="m214.91 326.06c-2.21 5.34-4 10.77-5.76 16.27-.3.92.86 1 1.12.17 1.79-5.49 3.56-10.92 5.77-16.27.37-.9-.81-.93-1.13-.17z"/><path d="m243 325.08c2.85 2.72 5.9 5.22 8.87 7.79 2.6 2.24 5.59 4.49 7.58 7.32.54.75 1.35-.32.94-.91-4.27-6.07-11.31-10.28-16.64-15.38-.65-.59-1.29.69-.75 1.18z"/><path d="m250 340.61c-.37-1-7.36-7.11-7.36-7.11l-25.32.79-2.81 7h11l2.85 5.77 12.74-.15 2-4.94z"/><path d="m242.12 325v10.33c0 .92 1.1 1 1.1 0v-10.33c.01-.87-1.1-.92-1.1 0z"/><path d="m216.78 326.13c.1 3.39.21 6.79.31 10.17 0 .91 1.14 1 1.11 0-.11-3.39-.21-6.78-.32-10.17-.02-.86-1.13-.93-1.1 0z"/><path d="m155.09 352.9c-.4-1.07-4.12-8.06-4.12-8.06h-29.62l-4.64 8.41h8l3.15 6.37 14-.17 2.14-5.45z"/><path d="m121 333.6c.11 3.74.23 7.47.34 11.21 0 .91 1.13 1 1.1.05-.11-3.75-.22-7.48-.34-11.22-.1-.91-1.17-.97-1.1-.04z"/><path d="m149.62 332.77q.18 5.6.35 11.21c0 .91 1.13 1 1.1 0-.11-3.74-.23-7.47-.34-11.21-.02-.87-1.13-.93-1.11 0z"/><path d="m43.56 318c.62-.76 4.11 0 4.54 1.74s7.5 21.63 7.08 22.41-31.11 12.85-32.18 11.72c-.31-.33-3.93-2-1.52-6 6.06-10.2 22.08-29.87 22.08-29.87z"/></g><path d="m13.53 328 29.47-9.62a2.28 2.28 0 0 1 1.62-.11 2.29 2.29 0 0 1 1 1.49c2.67 7.78 5.38 14.13 8 21.9-10.3 6.08-21.3 7.73-31.56 11.91a1.71 1.71 0 0 1 -1.56.11 1.61 1.61 0 0 1 -.52-.78 130.66 130.66 0 0 1 -7.19-22.9" fill="#fff"/><path d="m14 328.52 14.15-4.6c4.28-1.4 8.61-3.18 13-4.22 1.43-.34 2.84-1.07 3.81.2a17.29 17.29 0 0 1 1.2 3.42c.78 2.16 1.6 4.32 2.42 6.47.95 2.53 5.21 10.33 3.16 12.2-1.38 1.27-4 2-5.75 2.74-2.09.88-4.21 1.64-6.36 2.36-4 1.36-8.14 2.5-12.19 3.85-2.06.68-5.17 2.64-7.06.7-1.28-1.31-1.95-5-2.56-6.75a133 133 0 0 1 -4.24-14.89c-.17-.74-1.77-.87-1.58 0a134.94 134.94 0 0 0 4.7 16.35c1 2.88 1.77 8.93 5.83 7.85 5.13-1.36 10.25-3.5 15.33-5.1a82.62 82.62 0 0 0 16.32-6.84.53.53 0 0 0 .29-.69c-1.77-5.11-3.74-10.14-5.63-15.21-.84-2.36-1.38-5.27-2.64-7.36a2.45 2.45 0 0 0 -2-1.43c-1.82-.21-4 1-5.72 1.57l-8.26 2.69-17.11 5.57c-.97.34.16 1.36.89 1.12z" fill="#1a2e44"/><path d="m12.45 329.9 13.43 4c2.4.72 4.86 1.68 7.32 2.19a3.55 3.55 0 0 0 2.3-.06c2.5-1 4.54-4.48 6-6.63a40.93 40.93 0 0 0 4.94-10.28c.28-.87-1.28-.73-1.52 0a40.51 40.51 0 0 1 -3.93 8.6c-1.61 2.62-4.21 7.36-7.67 7-3.2-.38-6.67-2-9.76-2.92l-10.37-3.1c-.78-.26-1.71.91-.74 1.2z" fill="#1a2e44"/><path d="m45.86 320.8s-5.54 12.91-6.63 14.33-4.4.54-4.4.54a69.45 69.45 0 0 0 5.36-5.57c.93-1.38 5.09-9.86 5.09-9.86z" fill="#1a2e44"/><path d="m252.65 324.39c.88-.17 2.09 2.39 1.4 3.87s-7.15 19.72-7.89 20-29.58-8.78-29.68-10.24c0-.41-1.66-3.66 2.39-5.15 10.2-3.7 33.78-8.48 33.78-8.48z" fill="#1a2e44"/><path d="m224.72 314.18 26.52 10.19a2.08 2.08 0 0 1 1.22.85 2.14 2.14 0 0 1 -.13 1.67c-2.58 7.11-4.33 13.11-6.91 20.22-10.83-1.62-19.61-6.79-29.33-9.73-.48-.14-1-.36-1.17-.83a1.55 1.55 0 0 1 .08-.85 118.88 118.88 0 0 1 8-20.52" fill="#fff"/><path d="m224.46 314.68 24.93 9.58c2 .77 2.26 1.49 1.7 3.95-.25 1-.73 2.06-1.07 3.07-.62 1.83-1.22 3.64-1.82 5.47-.66 2-1.32 4-2 6-.2.61-.63 2.63-1.08 3.08-.84.87-1.6.42-2.71.19-7.76-1.67-14.89-5.22-22.32-7.88a24.1 24.1 0 0 1 -2.79-.95c-1.48-.73-1.48-.78-1.25-2.43.32-2.38 1.57-4.92 2.41-7.18a124.11 124.11 0 0 1 5.27-12.13c.35-.71-1.06-1.12-1.37-.48a124.06 124.06 0 0 0 -6.36 15.22c-.49 1.45-2.31 5-1.76 6.41.45 1.2 2 1.39 3 1.73 9.43 3.08 18.22 7.74 28.11 9.33.23 0 .66 0 .77-.31 1.68-4.65 3.19-9.38 4.76-14.07.79-2.33 3.73-6.88 1.57-8.95-1.12-1.08-3.7-1.52-5.18-2.09l-7.42-2.85-14.85-5.7c-.8-.32-1.45.65-.54.99z" fill="#1a2e44"/><path d="m222.85 315.11c2.41 3.53 4.82 7.07 7.24 10.59 1.2 1.77 2.39 3.55 3.61 5.31.66.94 1.06 1.54 2.22 1.73 2.48.42 5.81-.82 8.13-1.57a38.59 38.59 0 0 0 9-4.34c.82-.53-.08-1.28-.78-.83a36.66 36.66 0 0 1 -7.73 3.84c-2.52.89-7.86 2.91-9.65.34-3.68-5.26-7.24-10.6-10.86-15.9-.39-.58-1.63.17-1.18.83z" fill="#1a2e44"/><path d="m251.85 327.72s-11.4 6-13 6.36-3.45-2.15-3.45-2.15a63.4 63.4 0 0 0 7-.87c1.45-.44 9.31-4.08 9.31-4.08z" fill="#1a2e44"/><path d="m146 333.79c1-.29 3.32 2.48 2.68 4.23s-6.11 23.14-6.93 23.58-34.52-7-34.78-8.61c-.07-.47-2.26-4 2.19-6.1 11.18-5.29 36.84-13.1 36.84-13.1z" fill="#1a2e44"/><path d="m113.84 325 31.16 8.87a2.51 2.51 0 0 1 1.48.84 2.45 2.45 0 0 1 0 1.9c-2.21 8.31-3.58 15.39-5.79 23.7-12.48-.73-23-5.7-34.34-8.07-.55-.11-1.19-.29-1.41-.82a1.75 1.75 0 0 1 0-1 136.23 136.23 0 0 1 7.06-24.13" fill="#fff"/><path d="m113.74 325.57 15 4.27c4.47 1.28 9.63 2.07 13.87 4a3.75 3.75 0 0 1 3.15 2.7c-.15.56-.3 1.12-.44 1.68-.28 1.1-.56 2.19-.82 3.28-.57 2.29-1.1 4.59-1.64 6.89-.49 2.12-1 4.23-1.5 6.34a15 15 0 0 1 -.81 3.27c0 1.2-.63 1.74-2 1.63l-1.65-.19c-8.87-1.14-17.23-4.34-25.83-6.61-1-.27-2-.52-3.06-.76-2.19-.5-2.07-1.55-1.85-3.69a44.71 44.71 0 0 1 1.59-6.68 139.7 139.7 0 0 1 5-15.07c.3-.76-1.14-1.23-1.4-.56a141.14 141.14 0 0 0 -5.48 17q-.63 2.5-1.17 5c-.17.84-.8 2.48-.45 3.38.42 1.07 1.59 1.25 2.58 1.48 11.36 2.69 22.28 7.16 34 8a.63.63 0 0 0 .64-.44c1.41-5.33 2.62-10.7 3.89-16.06.58-2.46 1.62-5.12 1.91-7.64.16-1.4.26-2.22-1-3-1.86-1.17-4.79-1.44-6.89-2l-8.09-2.3-17.33-4.93c-.96-.38-1.13.75-.22 1.01z" fill="#1a2e44"/><path d="m111.83 326.13 9.08 11c1.52 1.85 3 3.69 4.55 5.52.91 1.1 1.49 2 3 2.17 2.82.26 6.66-1.53 9.2-2.63a42.61 42.61 0 0 0 9.62-5.76c.79-.61-.11-1.39-.8-.86a41.76 41.76 0 0 1 -8.35 5.16c-3.08 1.41-8.15 4.09-11.05 1.52-2.57-2.27-4.63-5.62-6.81-8.28l-7.2-8.74c-.47-.52-1.76.27-1.24.9z" fill="#1a2e44"/><path d="m146.09 337.64s-12.35 8-14.11 8.56-4.14-2.1-4.14-2.1a72.1 72.1 0 0 0 7.9-1.71c1.61-.65 10.17-5.59 10.17-5.59z" fill="#1a2e44"/><path d="m51 344c-5 .12-15.1.19-15.1.19l-2.72 4.89-12.75-.15-2-4.94s-11.31-1.06-17-1.33c-.73 8 .08 8.24-.59 15.54a1.73 1.73 0 0 0 1.73 1.89c16.74-.08 30-.39 46.31.42a2.91 2.91 0 0 0 2.12-.41 2.88 2.88 0 0 0 .7-2.19c.22-6.22 1-5.86.34-12.06" fill="#fff"/><path d="m50.78 343.44c-5 .11-10.07.15-15.11.19a.57.57 0 0 0 -.42.21l-1.5 2.69c-.24.43-1.71 2.49-.65 2-1.3.62-4.65-.06-6.05-.07-2.15 0-4.38.1-6.53-.08-.27 0 .58.81.48.22a10.45 10.45 0 0 0 -.68-1.67c-.41-1-.81-2-1.22-3a.87.87 0 0 0 -.72-.5c-5.65-.52-11.29-1-16.95-1.33-.34 0-.66.12-.7.5-.27 3.16-.31 6.29-.3 9.46 0 2.09-1.16 6.14.33 7.77a3 3 0 0 0 2.05.85 57.49 57.49 0 0 0 6.82 0c4.92 0 9.84-.09 14.75-.09q6.54 0 13.06.14 3.51.07 7 .21a30.59 30.59 0 0 0 5.4.22c3.11-.49 2.51-3.49 2.73-6a48.32 48.32 0 0 0 .16-9.16c-.07-.71-1.52-.93-1.45-.15a33.42 33.42 0 0 1 .05 7.14 30 30 0 0 1 -.36 4.38c-.84 3.08-3.5 2.58-6 2.47-7.22-.29-14.45-.38-21.67-.37-3.23 0-6.47 0-9.7 0-2.12 0-11 1.24-12-1.18-.38-.95.24-3.11.27-4.21s0-2.2 0-3.29c0-2.7.09-5.36.32-8l-.7.5c4.92.25 9.82.69 14.73 1.13a11.94 11.94 0 0 0 1.88.17c.29 0 .48.22 0-.18-.67-.55-.11.07-.11.3 0 1.25 1.28 3.16 1.76 4.36a.86.86 0 0 0 .72.49l12.75.15c.2 0 .5 0 .61-.21l2-3.62c.2-.35 1-1.4.33-1.05a4.9 4.9 0 0 1 1.38 0c4.56 0 9.11-.07 13.68-.17.95-.11.31-1.24-.44-1.22z" fill="#1a2e44"/><path d="m210.55 342c5 .12 15.1.18 15.1.18l2.72 4.9 12.74-.16 2-4.94s11.3-1.05 16.95-1.33c.73 8-.09 8.25.59 15.54a1.74 1.74 0 0 1 -1.74 1.9c-16.74-.08-30-.39-46.31.42a2.93 2.93 0 0 1 -2.07-.41 2.89 2.89 0 0 1 -.71-2.19c-.22-6.22-1-5.87-.34-12.06" fill="#fff"/><path d="m210.49 342.69c4.56.1 9.12.14 13.68.18 1.53 0 1-.38 1.63.88s1.41 2.56 2.12 3.83a.47.47 0 0 0 .39.19l12.75-.15a.65.65 0 0 0 .51-.39l1.22-3a14.25 14.25 0 0 1 .68-1.67c.35-.61-.66.25-.25.1 2.28-.83 5.68-.51 8.08-.7 2-.17 4.07-.33 6.1-.46 1.08-.07 1.65-.39 2.2.44.35.53.15 2.05.18 2.74a92.38 92.38 0 0 1 .2 10.25c-.19 2.68-1.31 2.4-3.31 2.39h-4.51l-8.12-.06c-5.21 0-10.44 0-15.66 0q-4 .06-7.95.18l-4.38.16c-2 .08-3 .5-4.52-.9s-1.15-2.1-1.3-3.95c-.08-.86-.19-1.73-.28-2.59a31.75 31.75 0 0 1 .12-6.39c.09-1-1.06-.75-1.14.09a43.36 43.36 0 0 0 .1 8.6c.24 2.44-.52 6.23 2.65 6.74 1.7.27 3.65-.14 5.36-.2 2.52-.1 5-.17 7.56-.23 4.35-.1 8.7-.12 13.05-.12s8.86 0 13.3.07c2.43 0 4.93.2 7.35 0a2.77 2.77 0 0 0 2.37-.95 3.87 3.87 0 0 0 .47-2.89c-.14-1.83-.2-3.65-.19-5.48 0-3-.05-6-.31-9.07a.53.53 0 0 0 -.51-.5c-5.66.3-11.31.81-16.95 1.33a.66.66 0 0 0 -.51.39l-1.22 3c-.21.5-.44 1-.61 1.52-.25.7.21 0 .2 0-1.95.45-4.53 0-6.53.08h-3.75a7.12 7.12 0 0 1 -2.3 0c.61.32-.65-1.63-.87-2-.49-.9-1-1.8-1.49-2.69a.45.45 0 0 0 -.39-.19c-5 0-10.07-.07-15.11-.18-.7.13-.9 1.58-.11 1.6z" fill="#1a2e44"/><path d="m108.09 353.62c5.55.13 16.66.21 16.66.21l3 5.39 14.06-.17 2.19-5.45s12.46-.38 18.69-.68c.81 8.84-.09 9.09.65 17.14a2 2 0 0 1 -1.91 2.09 284.44 284.44 0 0 1 -51.07 1 3.74 3.74 0 0 1 -2.29-.46 3.17 3.17 0 0 1 -.79-2.41c-.23-6.86-1.1-7.77-.36-14.59" fill="#fff"/><path d="m108.06 354.35c5 .11 10 .16 15 .19a6.78 6.78 0 0 1 1.56 0c.39.12-.63-.55-.2-.08a5.66 5.66 0 0 1 .57 1l2.3 4.15a.51.51 0 0 0 .48.31l14.05-.17a.64.64 0 0 0 .51-.4 40.38 40.38 0 0 1 2.1-5.18c.3-.5-.68.22-.17.13a4.25 4.25 0 0 1 .8 0 35.77 35.77 0 0 0 3.58-.11c3.22-.11 6.46-.22 9.68-.35l2.51-.11c1 0 1-.19 1.48.53.76 1.25.26 4.58.26 6.13 0 2.63.24 5.35.14 8-.09 2.21-.86 3-2.89 3.23l-3.39.32q-3.8.33-7.6.59-13.44.88-26.91.47-3.87-.12-7.73-.34a14.74 14.74 0 0 1 -3.71-.23 3.86 3.86 0 0 1 -2.55-2.5 13 13 0 0 1 -.1-1.87 74.66 74.66 0 0 1 -.27-12.42c.1-1-1.05-.72-1.13.11a58.15 58.15 0 0 0 .15 11c.24 2.81-.58 6.49 2.87 7.14 4.28.8 9.07.51 13.42.64q7.28.19 14.56 0 7.55-.19 15.08-.79c2.6-.2 5.23-.37 7.82-.7 1.21-.15 2.39-.18 3.16-1.26a4.14 4.14 0 0 0 .4-2.92c-.15-1.88-.23-3.76-.22-5.65 0-3.51 0-7-.34-10.48a.51.51 0 0 0 -.52-.48c-6.23.3-12.47.49-18.69.68a.68.68 0 0 0 -.51.4c-.4 1-.8 2-1.21 3a13.26 13.26 0 0 0 -.77 1.88c-.18.78-.1.22.15.17-2.24.42-4.93.06-7.2.09-1.9 0-4.82.63-6.65.08.49.15.28.3 0-.35a18.27 18.27 0 0 0 -1-1.78l-1.63-2.95a.54.54 0 0 0 -.48-.32c-5.55 0-11.1-.08-16.65-.21-.74-.06-.9 1.39-.11 1.41z" fill="#1a2e44"/><path d="m104 310-35 11" fill="none" stroke="#1a2e44" stroke-dasharray="3 4" stroke-linecap="square"/><path d="m169 308a84.47 84.47 0 0 1 32 10" fill="none" stroke="#1a2e44" stroke-dasharray="3 4" stroke-linecap="square"/><path d="m137 308v15" fill="none" stroke="#1a2e44" stroke-dasharray="3 4" stroke-linecap="square"/><path d="m173.28 290.22c0 3-15.77 3.6-35.66 3.6-9.48 0-21.86.9-28.29 0-7-1-7.71-3.84-7.71-5.4 0-3 47.32-2.95 67-5.52 1.43-.17 4.66 4.35 4.66 7.32z" fill="#1a2e44"/><path d="m103.32 272.43a2.89 2.89 0 0 1 3-2.49c17.12-.3 47.7-.58 57.33-.69 1.83 0 3.33 1 3.49 2.32.49 4.22.21 10.59.45 15.15.11 2-2.14 3.75-4.9 3.74-16.06-.06-46.25.77-56.21 1.05-1.76.05-3.23-.91-3.36-2.2-.33-3.38.01-12.48.2-16.88z" fill="#fff"/><path d="m104.05 272.58c.59-2.93 6.42-2.15 8.81-2.19l8-.11 16.21-.2 15.74-.16c3.41 0 7.39-.66 10.77-.12 3.14.51 2.94 2 3.06 4.18.08 1.52.11 3 .12 4.55s0 2.83 0 4.25c0 1.85.65 4.49-.83 5.93-1.86 1.81-6 1.17-8.39 1.18s-5.12 0-7.67.07c-10.74.14-21.48.39-32.22.67l-7 .18c-2 .06-6 .82-6.84-1.75-.66-2.14-.15-5.22-.1-7.43.06-3 .17-6 .31-9.05 0-.74-1.42-1-1.45-.3-.12 2.72-.22 5.44-.28 8.16s-.46 5.92.08 8.64c.85 4.21 6.79 2.92 9.9 2.84 12.73-.34 25.46-.66 38.18-.82 2.78 0 5.56-.07 8.34-.07 2.5 0 5.49.45 7.69-1s1.81-3.48 1.75-5.82c-.08-3.91.23-7.94-.28-11.82-.63-4.67-6.1-3.63-9.61-3.59l-17.28.18q-11.44.12-22.88.27l-9.9.14c-2.42.05-5.13.07-5.71 3-.12.61 1.33.91 1.48.19z" fill="#1a2e44"/><path d="m112.43 262.18c17.1-.53 35.17.44 44.78.18 1.83-.06 9.53 5.46 9.67 7.7.07 1-1.4.12-4.15.18-16 .32-46.23 1.4-56.19 1.76-1.76.06-3.2-.38-3.32-1-.28-1.67 7.57-8.77 9.21-8.82z" fill="#fff"/><path d="m112.31 262.89c11.76-.33 23.51 0 35.27.18 2.16 0 4.31.06 6.46.05 1.64 0 3.11-.23 4.61.49a22.53 22.53 0 0 1 4.41 3 19.19 19.19 0 0 1 1.83 1.65c.57.58 1.19 1.84 1.55 1.6-.33.22-2.23-.26-2.63-.29-1 0-1.94 0-2.9 0l-6.09.15q-6.72.18-13.44.39-13.09.4-26.21.87c-1.64.06-11.22 1-10.93-1 .18-1.25 3-3.3 3.9-4.11 1.12-1 2.74-2.71 4.32-3 .69-.11.78-1.53-.07-1.39-2.9.47-6.19 4.33-8 6.41-1.46 1.7-3 3.91.1 4.68 1.72.44 3.85.08 5.61 0l6.84-.24 16.1-.55c10.74-.35 21.64-1.17 32.37-.62 2.9.15 2-2.24.6-3.79-2-2.24-5.51-5.3-8.6-5.74-2.65-.37-5.66 0-8.35 0-3.61 0-7.23-.13-10.85-.2-8.57-.16-17.14-.25-25.71 0-.67.05-.97 1.49-.19 1.46z" fill="#1a2e44"/><path d="m113.08 279.82c0 1-1 1.55-2 1.55a1.74 1.74 0 1 1 0-3.47 2.17 2.17 0 0 1 2 1.92z" fill="#1a2e44"/><path d="m119 279.83c0 .95-1.06 1.54-2 1.54a1.74 1.74 0 1 1 0-3.47 2.17 2.17 0 0 1 2 1.93z" fill="#1a2e44"/><path d="m125.64 279.83c0 .95-1.06 1.54-2 1.54a1.74 1.74 0 1 1 0-3.47 2.18 2.18 0 0 1 2 1.93z" fill="#fff" stroke="#1a2e44" stroke-linecap="square"/><path d="m102.77 253.64a2.75 2.75 0 0 1 2.88-2.36c16.17-.28 45.09-.55 54.18-.65 1.73 0 3.15.93 3.3 2.2.46 4 .2 10 .43 14.31.1 1.92-2 3.54-4.63 3.54-15.19-.06-43.72.73-53.14 1-1.66.05-3.05-.86-3.18-2.09-.35-3.2-.02-11.79.16-15.95z" fill="#fff"/><path d="m103.31 253.91c.55-2.72 6-2 8-2 2.65 0 5.3-.08 8-.1l15.73-.19 14.48-.16c3.28 0 7.13-.63 10.37-.1 3.74.6 3 5.56 3 8.42 0 2.53 1.15 7.78-1.19 9.39-1.89 1.3-4.93.77-7.11.78-2.4 0-4.81 0-7.21.07-10.3.13-20.61.37-30.91.64l-6.37.17c-2 .05-4.5.61-6-.78-1.8-1.65-1.05-5.64-1-8 .06-2.78.16-5.55.28-8.33 0-.85-1.09-1.12-1.13-.16-.12 2.78-.22 5.55-.28 8.33 0 2.46-.43 5.39.14 7.81.93 4 6.81 2.61 9.78 2.53 12.1-.32 24.21-.62 36.32-.76 2.72 0 5.43-.06 8.15-.06 2.26 0 4.84.28 6.61-1.43s1.12-4.09 1.09-6.25c0-3.5.4-7.38-.33-10.83-.82-3.89-5.57-3-8.56-2.95l-16.41.17q-11 .12-21.94.26l-9.8.14c-2.21 0-4.25.36-4.75 2.85-.2.76.85 1.48 1.04.54z" fill="#1a2e44"/><path d="m111.36 243.93c16.16-.5 33.24.42 42.33.17 1.72 0 9 5.16 9.14 7.27.06.94-1.32.12-3.93.17-15.16.31-43.69 1.33-53.11 1.67-1.65.06-3-.35-3.13-1-.26-1.52 7.15-8.21 8.7-8.28z" fill="#fff"/><path d="m111.46 244.66c11-.31 21.9 0 32.86.16 2 0 4.05.06 6.08.05 1.72 0 3.3-.24 4.89.53a21.32 21.32 0 0 1 4.29 2.94 10.45 10.45 0 0 1 1.78 1.67c.82 1.14.61 1-.71.89a86.37 86.37 0 0 0 -10.65.1q-6.36.18-12.71.38-12.3.39-24.61.83l-4.79.17c-.66 0-1.33.07-2 .07s-1.83.27-2.2-.31-.16-.38.23-1.08a17.1 17.1 0 0 1 3.73-3.82c1-.9 2.41-2.37 3.82-2.61.73-.12.51-1.58-.22-1.46-2.65.45-12.88 9.12-7.28 10.6 3.21.85 7.6-.06 10.88-.18l15-.51c10.66-.35 21.31-.62 31.94-.59 2.6 0 1.25-2.42.16-3.66-1.91-2.14-5.31-5.08-8.26-5.49-2.37-.33-5.08 0-7.48 0-3.39 0-6.78-.11-10.18-.18-8.27-.15-16.55-.25-24.82 0-.7.06-.49 1.52.25 1.5z" fill="#1a2e44"/><path d="m112 260.61c0 .9-1 1.46-1.91 1.46a1.65 1.65 0 0 1 0-3.29 2.05 2.05 0 0 1 1.91 1.83z" fill="#1a2e44"/><path d="m117.59 260.61c0 .9-1 1.46-1.91 1.46a1.65 1.65 0 0 1 0-3.29 2.05 2.05 0 0 1 1.91 1.83z" fill="#1a2e44"/><path d="m123.87 260.61c0 .9-1 1.46-1.91 1.46a1.65 1.65 0 0 1 0-3.29 2.05 2.05 0 0 1 1.91 1.83z" fill="#fff" stroke="#1a2e44" stroke-linecap="square"/><path d="m104.79 235.24a2.76 2.76 0 0 1 2.88-2.36c16.18-.28 45.09-.54 54.18-.65 1.73 0 3.15.93 3.3 2.2.46 4 .2 10 .43 14.32.1 1.92-2 3.54-4.63 3.53-15.18-.06-43.72.73-53.14 1-1.66 0-3-.86-3.17-2.08-.35-3.2-.03-11.8.15-15.96z" fill="#fff"/><path d="m105.53 235.29c.53-2.64 6.51-1.93 8.43-2l7.6-.11q7.88-.1 15.74-.18l14.4-.16h5.34c1.39 0 3.34-.39 4.69-.05a4.16 4.16 0 0 1 2.77 2.51 10.06 10.06 0 0 1 .12 1.66c.07 1.38.08 2.75.1 4.13 0 2.37 1 7.88-.73 9.61s-6.05 1-8.33 1c-2.45 0-4.9 0-7.35.08-9.72.13-19.45.35-29.18.61-3.17.08-12.33 1.73-13.8-1.79-.75-1.8-.11-5.23-.07-7.14.06-2.78.16-5.55.28-8.33 0-.72-1.44-.56-1.47.18-.12 2.78-.22 5.56-.27 8.33 0 2.36-.68 6 .28 8.2 1.36 3.17 7.21 1.87 9.87 1.8 12.3-.34 24.6-.64 36.91-.78q4 0 8 0c2.16 0 4.53.12 6.23-1.49s1.13-4 1.1-6.18c0-3.4.57-7.53-.33-10.83-1-3.69-6.28-2.63-9.16-2.6l-16.67.17-21.92.26c-3.22.05-6.45 0-9.67.15-2 .07-3.94.61-4.39 2.87-.13.79 1.34.79 1.48.08z" fill="#1a2e44"/><path d="m114 227c16.17-.5 32.63-1 41.72-1.28 1.72 0 9 5.16 9.14 7.28.06.94-1.33.12-3.93.17-15.17.31-43.69 1.33-53.11 1.67-1.66.06-3-.36-3.13-.95-.24-1.56 7.8-6.83 9.31-6.89z" fill="#fff"/><path d="m113.93 227.6 32.74-1c3.34-.1 7.9-1.1 10.91.57a23.7 23.7 0 0 1 4.07 2.9 13.51 13.51 0 0 1 1.71 1.67c.15.19.71.75.69 1s.12-.12-.38 0a14.56 14.56 0 0 1 -2.58-.18c-.75 0-1.51 0-2.27 0l-5.76.14q-6.33.16-12.63.37-11.93.38-23.83.8c-1.52.05-9.94 1.15-10.54-.31-.38-.92.35-1.23 1.13-1.89s1.45-1.14 2.21-1.66c1.19-.83 3-2.27 4.53-2.48.74-.1 1.19-1.32.24-1.19-2.83.4-6 2.94-8 4.74-1.54 1.34-3.36 3.38-.34 4.14 3.36.84 7.81-.06 11.24-.19l14.7-.5c10.34-.34 21-1.42 31.36-.67 2.34.17 3.2-.85 1.57-2.91-1.79-2.28-5.39-5.29-8.34-5.85-2.23-.43-5 .09-7.21.16l-10.39.32-24.54.76c-.82.1-1.22 1.29-.29 1.26z" fill="#1a2e44"/><path d="m114 242.21c0 .91-1 1.47-1.91 1.47a1.65 1.65 0 0 1 0-3.29 2 2 0 0 1 1.91 1.82z" fill="#1a2e44"/><path d="m119.63 242.21c0 .91-1 1.47-1.91 1.47a1.65 1.65 0 0 1 0-3.29 2 2 0 0 1 1.91 1.82z" fill="#1a2e44"/><path d="m125.91 242.21c0 .91-1 1.47-1.91 1.47a1.65 1.65 0 0 1 0-3.29 2 2 0 0 1 1.91 1.82z" fill="#fff" stroke="#1a2e44" stroke-linecap="square"/><path d="m164.18 267s2 1.92 1.81 2.56-3 .39-3 .39z" fill="#1a2e44"/></svg>