<svg height="130.17mm" viewBox="0 0 266 369" width="93.84mm" xmlns="http://www.w3.org/2000/svg"><path d="m113.47 158.88c38.42 5.75 91.28-21.87 97.1-60.7s-26.76-72.52-65.17-78.27-74.28 21.09-80.1 59.87 9.75 73.34 48.17 79.1z" fill="#22d172"/><path d="m97.93 153.21s-49-5.64-60.35-4.43a2 2 0 0 0 -1.81 2.3c.07 2.87 74.16 26.39 89.11 29.56a48.36 48.36 0 0 0 8.08.54c1.73-.23 28-3 38-4 1.06-.11 3.39-2 2.38-2.33z" fill="#1a2e44"/><path d="m211.9 98.5c4.42 1.12 6 1 7.92 5.11 1.35 2.9.54 6.25.16 9.43-2.27 18.77-5.41 32.38-11.36 50.82l-7.62-1.72" fill="#1a2e44"/><path d="m211.72 99.25c1.91.47 4.19.7 5.72 2.06 2.71 2.43 2.63 6.35 2.21 9.64-.79 6.16-1.6 12.32-2.71 18.43a272.94 272.94 0 0 1 -8.94 34.44l.78-.69-7.62-1.73c-.71-.16-1.17 1.31-.35 1.49l7.62 1.72c.38.09.68-.4.77-.69a266.71 266.71 0 0 0 10-40.74c.5-3.22.92-6.46 1.33-9.69.39-3 1.15-6.22.28-9.21-1.34-4.59-4.55-5.48-8.72-6.51-.72-.18-1.18 1.28-.37 1.48z" fill="#1a2e44"/><path d="m206.16 97.38c4.42 1.12 6.22-.18 8.14 4 1.35 2.91-.1 4.94-.5 8.11-2.73 21.83-7.58 37.84-13.07 53.22l-13.35-2.71z" fill="#fff"/><path d="m205.87 98c1.92.44 4.68.24 6.28 1.52 2.86 2.3 1.66 6 1.09 9-1.3 6.72-2 13.54-3.37 20.25a263.29 263.29 0 0 1 -9.82 33.83l1-.51-8.18-1.62c-1.26-.25-3.06-1-4.35-.86a1.83 1.83 0 0 1 -.79-.16c.59.34.32.8.48.34 1.18-3.57 2.16-7.22 3.23-10.82l12.24-40.8c1.08-3.6 2.16-7.21 3.23-10.8.25-.84-1.25-.58-1.45.11q-8.26 27.39-16.46 54.84c-.78 2.58-1.55 5.18-2.33 7.77-.09.29.19.51.44.56l13.35 2.64a.94.94 0 0 0 1-.51 261 261 0 0 0 10.75-38.29q1.09-5.76 1.91-11.58c.42-3 1.66-6.5 1.51-9.53-.31-5.76-4.83-5.63-9.12-6.62-.8-.16-1.59 1.04-.64 1.24z" fill="#1a2e44"/><path d="m188.08 164.62s10 .76 8.65 3.21-32.64 1.62-34.23 0 4-5.45 6.94-5.52 18.64 2.31 18.64 2.31z" fill="#1a2e44" stroke="#fff" stroke-linecap="square" stroke-width=".25"/><path d="m99.91 139.87c8-18.41 12.44-55 20-58.78s17.82 3.46 19.09 12.29c2.4 16.81-14.21 48.31-17.66 59s-12.48 16.24-21.57 12.17l-22.92-15.55-13.41 4.58-8-3.73 3.65-17.11 18.65 3.69z" fill="#fff"/><path d="m100.5 140c4-9.28 6.25-19.27 8.7-29 2.15-8.57 3.74-18.28 8.13-26.07 2.18-3.86 6-4.9 10.33-3.58a15.94 15.94 0 0 1 10.8 13.17c1.08 9.82-2.88 20.34-6.25 29.37-3.19 8.58-7.08 16.87-10.39 25.39-2 5.1-3.62 10.21-8.38 13.46a13.07 13.07 0 0 1 -13.62.9c-5.49-3.13-10.61-7.2-15.84-10.75-1.88-1.28-4.18-3.55-6.34-4.31-1.39-.49-2.78.38-4.23.88l-5.84 2a18.81 18.81 0 0 1 -4 1.38c.25 0 .25 0-.35-.24-.93-.41-1.84-.86-2.75-1.29-1.36-.64-3.23-1.15-4.41-2.07.38.3-.08.73.23-.1a12.09 12.09 0 0 0 .37-1.71c.42-2 .83-3.94 1.26-5.9.62-2.95 1.25-5.91 1.88-8.85l-.91.76c13.58 2.68 27.12 5 40.8 7.18.73.12 1.36-1.3.55-1.42-13.72-2.2-27.24-4.55-40.84-7.2-.47-.09-.83.36-.91.76q-1.83 8.55-3.65 17.1c0 .19 0 .51.21.6 2.4 1.12 5 2.88 7.56 3.54 1.64.43 3.45-.65 5-1.2l5.39-1.8a17.89 17.89 0 0 1 3.63-1.24c.7-.06-.47-.18-.05 0a2.31 2.31 0 0 1 .66.46c.87.73 1.94 1.31 2.88 2l17.28 11.75a14.54 14.54 0 0 0 18.21-1.28c3.58-3.17 5.28-7.31 6.88-11.69 1.31-3.57 2.85-7.06 4.34-10.56 3.92-9.22 7.82-18.5 10.51-28.16 2.19-7.84 4.69-18-.13-25.33-3.68-5.61-13.8-11.16-19.33-4.78-2.3 2.65-3.51 6.36-4.61 9.63-1.61 4.78-2.87 9.68-4.11 14.57-2.86 11.24-5.24 22.8-9.82 33.5-.41.8.82.94 1.16.13z" fill="#1a2e44"/><path d="m108.44 170.77a405.69 405.69 0 0 1 42.26-4.16.65.65 0 0 0 .06-1.27l-46.08-10.75" fill="#fff"/><path d="m108.43 171.44c12.15-1.91 24.41-3.08 36.68-3.83.59 0 8.6.4 6.62-2.53-.42-.61-1.64-.68-2.27-.83l-33.2-7.74-11.26-2.63c-.72-.16-1.48 1.18-.69 1.37l24.24 5.65 16 3.75c1.54.36 3.08.68 4.61 1.07.22.05.92.09 1.06.25-.4-.44-4.31.18-5.4.25-12.19.76-24.36 1.94-36.43 3.84-.68.13-.92 1.53.04 1.38z" fill="#1a2e44"/><path d="m112.68 143.11c7.47.45 79.12 18.41 104.47 22.85z" fill="#fff"/><path d="m112.66 143.69c3.75.26 7.54 1.33 11.19 2.11 6.86 1.49 13.7 3.07 20.55 4.65 16.83 3.87 33.63 7.85 50.5 11.56 7.31 1.6 14.64 3.21 22 4.5.86.15 1.46-.93.45-1.11-30.77-5.4-61.04-13.7-91.57-20.4-4.27-.94-8.7-2.19-13.09-2.5-.96-.04-.99 1.12-.03 1.19z" fill="#1a2e44"/><path d="m179.6 157.93c-15.8-4.47-46.53-8.82-66.92-14.82.78-7 1.73-13.68 3.17-24 .39-2.83-2.59-8.58-2.21-11.43 1.7-12.43 9.76-13.58 9-27.65 6.5-5.45 15-8.15 28.24-8.15 25.88 0 53.44 4.65 53.44 20.82s-16.7 59.62-24.72 65.23z" fill="#fff"/><path d="m179.66 157.21c-22-6.15-44.95-8.42-66.92-14.82l.54.94c.46-4 1-8.07 1.52-12.1.58-4.22 2-9 1.64-13.27-.34-4.08-2.75-7.53-1.9-11.72a31.9 31.9 0 0 1 4.37-10.13 30 30 0 0 0 3.63-7.86 24.48 24.48 0 0 0 .7-5c.1-2.45.28-3.07 2.36-4.47 7.57-5.08 16.94-6.09 25.83-6.08a143.29 143.29 0 0 1 28.72 2.51c7 1.44 15.15 3.64 20.15 9.08 4.34 4.72 3.53 10.79 2.44 16.59a147.49 147.49 0 0 1 -5.61 20.41 195.22 195.22 0 0 1 -9.13 22.54c-2.17 4.46-4.66 10.41-8.79 13.45-.6.44.1 1.8.77 1.31 3.69-2.71 6-7.69 8-11.64a182 182 0 0 0 8.75-20.54 173.13 173.13 0 0 0 6.62-22.2c1.12-5.12 2.58-11.2.64-16.3-2.26-6-8.37-9.37-14-11.48-8.65-3.24-18.11-4.36-27.27-4.93-9.74-.6-20.11-1.07-29.53 1.94a32.24 32.24 0 0 0 -9.82 5c-1.84 1.4-1.23 1.89-1.31 4.31a21.27 21.27 0 0 1 -1.27 6.7c-2.53 6.87-9.17 13-7.44 21 .54 2.45 1.78 4.92 1.92 7.45.17 3.11-.78 6.5-1.2 9.59-.7 5.12-1.39 10.25-2 15.39a.93.93 0 0 0 .54.93c22 6.41 44.91 8.67 66.92 14.82.87.28.84-1.22.13-1.42z" fill="#1a2e44"/><path d="m153.4 57.89c-14.25 2.25-27.32-5.5-29.17-17.29s2-24.08 16.2-26.33c2.36-.37 12.25-1.21 13.16 4.57 10.21-8.25 18.9-2.38 20.45 7.46 1.85 11.8-6.38 29.35-20.64 31.59z" fill="#1a2e44"/><path d="m169.45 26.91-12.85 4.94 4.34 27.48q3.59 1.16 9.49-1.5a31 31 0 0 0 10.57-7.83q-5 .8-8.63-4.89t-2.92-18.2z" fill="#1a2e44"/><path d="m126.18 29.18 13.74.75 4.33 27.48q-3.06 2.19-9.5 1.49a30.81 30.81 0 0 1 -12.41-4.22q5-.78 6.71-7.3t-2.87-18.2z" fill="#1a2e44"/><path d="m163.37 48.48q2.5 12.41 3.39 16.62c.6 2.83 1.6 2.72 3.47 8.25-2.67 5-11.23 9-19.42 11.35-6.12 1.2-11.24-3-8.55-11.28 3.3-4.33 3-4.85 2.66-8.43 4.84-7.79 8.36-12.63 10.5-14.47 1.97-1.69 4.58-2.38 7.95-2.04z" fill="#fff"/><path d="m162.73 48.83c.92 4.51 1.83 9 2.76 13.54a22.41 22.41 0 0 0 1.85 6.13c1 2 2.68 4.19 1.17 6.3s-4 3.41-6.07 4.58c-4 2.22-10.14 5.49-14.85 4.67-5.22-.92-6.75-6.91-4.21-11.15a19.34 19.34 0 0 0 2.08-3.5 12.52 12.52 0 0 0 .24-3.56c.15-2.37 2.44-4.85 3.74-6.79 1.06-1.58 2.15-3.14 3.31-4.65 2.77-3.6 5.63-5.56 10.46-5.22.73 0 1.24-1.35.35-1.42-7.5-.54-11 4.56-14.78 10.19-1.31 1.94-3.64 4.44-4.31 6.67-.32 1.07.08 2.15 0 3.27-.16 2.25-1.82 3.36-2.72 5.25a11.43 11.43 0 0 0 -.88 4.9 7.49 7.49 0 0 0 3.72 6.58c3.36 1.84 7 .64 10.32-.56a43 43 0 0 0 11.6-5.87 16.35 16.35 0 0 0 3.6-3.59c1.1-1.55.64-2.12-.1-3.94-1.11-2.7-2.4-4.93-3-7.83q-1.51-7.35-3-14.71c-.17-.86-1.42-.01-1.28.71z" fill="#1a2e44"/><path d="m152.89 63-7.89-1.15v8.9a38.06 38.06 0 0 0 4.1-3.37 44.27 44.27 0 0 0 3.79-4.38z" fill="#1a2e44"/><path d="m140.78 64.16c-8.2-1.9-11.82-8.75-10.77-22.93.21-2.79-.69-7.74.35-9.82a53.59 53.59 0 0 0 21.94-6.75c.36 5.87 2 11.6 6.77 16 5.63-4.94 9-.47 9.46 1.26 1 3.78-2.93 9.91-8.63 9.13-2.67 11.54-10.9 15.01-19.12 13.11z" fill="#fff"/><path d="m141.1 63.6c-10.81-2.71-10.5-14-10.29-23.09.06-2.35-.75-5.3-.09-7.57.44-1.48 1.32-1.12 2.9-1.35s2.92-.48 4.37-.8a59.28 59.28 0 0 0 14.77-5.69l-1.22-.34c.45 6.23 2.35 11.88 6.91 16.31a1 1 0 0 0 1.23-.06c2-1.66 4.76-2.92 6.94-.76a4.28 4.28 0 0 1 1.29 2.94c.13 4.2-3.87 7.62-7.89 7.3a.83.83 0 0 0 -.88.53c-2.21 8.81-8.71 14.56-18 12.58-.77-.17-1.63.89-.64 1.1 10.19 2.18 17.75-3.78 20.2-13.57l-.88.53c4.95.4 11-4.32 9.52-9.82s-7.52-4.16-10.82-1.49l1.22-.05c-4.41-4.28-6.19-9.74-6.63-15.75 0-.58-.88-.52-1.22-.34a58.58 58.58 0 0 1 -21.58 6.61.83.83 0 0 0 -.68.53c-1.35 3.47-.3 8.25-.46 11.89a36.15 36.15 0 0 0 .9 11.07 13.88 13.88 0 0 0 10.39 10.39c.77.2 1.62-.85.64-1.1z" fill="#1a2e44"/><path d="m153.21 64.05c-1.4-5.93-6.94-2.34-5.68-7.77s5.22-9.16 8.85-8.33 5.54 5.93 4.28 11.37-6.05 10.68-7.45 4.73z" fill="#fff"/><path d="m133.48 37.33a1.37 1.37 0 0 1 -1.74-1.33c0-.65.88-1.14 1.75-1.08s1.67.09 1.62.74a2 2 0 0 1 -1.63 1.67z" fill="#1a2e44"/><path d="m137.42 37.67a29.62 29.62 0 0 1 .24 4.11c-.07 1.83-.57 4-.59 4.66 0 1.11.63 2.07 2 2.87" fill="#fff"/><path d="m136.65 37.76a30.62 30.62 0 0 1 -.21 7.77c-.28 2 .39 3.16 2.08 4.28.61.4 1.81-.51 1.06-1-2.28-1.51-1.64-3.11-1.34-5.37a25.15 25.15 0 0 0 -.07-5.88c-.08-.84-1.59-.56-1.52.2z" fill="#1a2e44"/><path d="m147.63 49.78a8.24 8.24 0 0 1 -2.48 4.15 4.58 4.58 0 0 1 -4.34.69" fill="#fff"/><path d="m146.86 49.76a8.21 8.21 0 0 1 -1.92 3.49 3.8 3.8 0 0 1 -3.83.8c-.78-.18-1.59.89-.6 1.12 4.15 1 6.7-1.58 7.89-5.37.23-.8-1.31-.75-1.54-.04z" fill="#1a2e44"/><path d="m143.15 40.51a1.19 1.19 0 0 1 1.11 1.4c0 .76-.51 1.36-1.06 1.33a1 1 0 0 1 -.95-1.13c.04-.76.13-1.65.9-1.6z" fill="#1a2e44"/><path d="m132.9 44.6c-.77.07-.89-.38-1-1.15s.19-1.24.74-1.29a1 1 0 0 1 1.1 1c.11.74-.08 1.37-.84 1.44z" fill="#1a2e44"/><path d="m145.57 35.48c-1.57-.48-2.78-1.34-2.57-2.18s1.66-.71 3.35-.64 2.67 1.46 2.43 2.3-1.64.97-3.21.52z" fill="#1a2e44"/><path d="m164.61 43.16a8.54 8.54 0 0 0 -2.27.18 15 15 0 0 0 -2.51 1.14" fill="#fff"/><path d="m164.82 42.42a8.61 8.61 0 0 0 -2.67.27 15.28 15.28 0 0 0 -2.43 1.12c-.65.35-.62 1.81.23 1.36a8.48 8.48 0 0 1 4.46-1.27c.73 0 1.22-1.47.41-1.48z" fill="#1a2e44"/><path d="m154.35 19.3c-.29-.05-1-.54-2.88-7.26s1.81-12.57 8.19-10.83 1.07 7.3-2.54 11.53-2.49 6.61-2.77 6.56z" fill="#1a2e44"/><path d="m154.26 18.48c-1.59.25-2.26-.08-2.36-.7s.71-.36 2.31-.61 1.83-.56 1.93.06-.28 1-1.88 1.25z" fill="#fff"/><path d="m154.25 17.89a3.13 3.13 0 0 1 -1.22 0 3.61 3.61 0 0 1 -.37-.27l-.33.32h.19a1.6 1.6 0 0 0 .49 0 12.37 12.37 0 0 0 1.24-.14 5.35 5.35 0 0 0 1.14-.22l.28-.05c0-.05-.29-.13-.27-.13s0 .22 0 .21a3.5 3.5 0 0 1 -1.15.31c-.88.15-.95 1.36.06 1.19s2.76-.59 2.59-2-1.88-.63-2.7-.5-3.17-.1-3 1.36 2.15 1.28 3.14 1.14.91-1.36-.09-1.22z" fill="#1a2e44"/><path d="m166.47 141.05c8-18.41 7.8-53 19.81-60.72 7.56-3.83 17.82 3.45 19.08 12.28 2.4 16.81-10.89 49.94-14.34 60.59s-5.73 15.07-16.47 14.05c0 0-38.4-7.33-47.48-9.5s-19.67 8-21.12 7.15c-2-1.16-1.17-4.76-2.37-10.37l-1.67-3.83c.85-4 10.65-8.57 14.67-7.77l9.81 1a9.11 9.11 0 0 0 3.21.07z" fill="#fff"/><path d="m167.19 141.18c5.18-12.16 6.43-25.68 9.31-38.48 1.32-5.87 2.79-12.08 6-17.27 1.68-2.74 3.91-5.22 7.32-5.52 3.87-.32 7.63 1.65 10.32 4.3 5.25 5.16 5.18 12.29 4.38 19.11a125.4 125.4 0 0 1 -4.28 19.89c-3.3 11.6-7.18 23.3-11.53 34.56-1 2.59-2.2 5.38-4.45 7.14-2.57 2-6.3 2.19-9.42 1.78-2.33-.31-4.67-.9-7-1.34-10.79-2.09-21.59-4.17-32.35-6.4-4.14-.86-8.7-2.5-12.95-1.94-5.8.75-10 4.35-15.1 6.81-1.22.59-1.49.44-2-1-.53-1.63-.4-3.59-.61-5.29a17 17 0 0 0 -.72-3.61c-.33-.91-1.21-2-1.29-3-.23-2.62 4.51-4.94 6.58-5.87a14.52 14.52 0 0 1 7.62-1.45c4.08.4 8.41 1.28 12.5 1 2.57-.18 5.14-.41 7.7-.62l27.22-2.16 1.94-.16c.87-.07 1.17-1.27.15-1.18l-25.07 2c-3.8.3-7.6.57-11.41.9-4.12.36-8.54-.5-12.65-.94-4.94-.53-10.38 1.66-14 5-1.31 1.19-2.4 2.43-2 4.14.28 1.07 1 2 1.35 3.1a29.1 29.1 0 0 1 .83 6.19c.16 1.5.3 4.37 2.29 4.7 1.48.24 3.49-1.5 4.63-2.19 3.27-2 6.71-4 10.5-4.89 3-.68 5.7-.11 8.64.54 11.51 2.51 23.11 4.7 34.68 6.94 7 1.35 16.82 4.7 22.33-1.63 3.7-4.25 4.85-10.53 6.68-15.73 2.24-6.38 4.5-12.76 6.51-19.21a167 167 0 0 0 5.53-21.89c1-6 2.13-13.25-.47-19s-9.15-10.66-15.73-9.68c-5 .75-7.93 5.26-9.87 9.57-5.92 13.17-6.62 28.33-10.19 42.19a70.54 70.54 0 0 1 -3.4 10.33c-.31.81 1.19.94 1.48.26z" fill="#1a2e44"/><path d="m150.83 166.85a6.74 6.74 0 0 0 -.83 2.15c-.09 2.32-41.52 5.51-41.72 4.12v-2.12" fill="#1a2e44"/><path d="m150.33 166.59c-1 1.82-.26 2.09-2.18 2.64a39.46 39.46 0 0 1 -4.73.9c-4.8.74-9.64 1.22-14.48 1.64s-9.41.75-14.12.91c-1.62.06-3.27-.05-4.89 0a2.54 2.54 0 0 1 -1.1-.12s.28.52.09-.11a6.42 6.42 0 0 1 0-1.58c0-1-1.25-.58-1.25.23 0 1.16-.37 2.27.63 2.9.84.52 2.81.19 3.73.19 5.3-.05 10.61-.45 15.89-.9 5.59-.47 11.21-1 16.75-1.94a18.29 18.29 0 0 0 4.61-1.07c1.54-.71 1.26-1.68 2.08-3.18.46-.82-.57-1.36-1.03-.51z" fill="#1a2e44"/><path d="m108.93 173.43c1.85.43 4.09-2.14 3.53-3.7-6.21-20.16-11.2-36.63-17.79-51-.24-.65-2.51-2-3.2-2.14s-3.91-.83-3.91-.83" fill="#1a2e44"/><path d="m108.8 174.16a4.32 4.32 0 0 0 4-2.53c1.17-2.42-.76-5.69-1.47-8-2.31-7.5-4.63-15-7.16-22.44-2.23-6.57-4.61-13.1-7.38-19.48-1-2.36-1.57-4.2-4-5.38a19.89 19.89 0 0 0 -5-1.26c-.72-.14-1.39 1.25-.58 1.41a28.14 28.14 0 0 1 3.9.83c2.54.88 3.37 2.85 4.37 5.18 2.09 4.83 4 9.75 5.72 14.71 1.87 5.24 3.59 10.53 5.27 15.83.91 2.86 1.8 5.73 2.69 8.59.7 2.27 4.45 11.36-.15 11.1-.67-.04-1.11 1.39-.21 1.44z" fill="#1a2e44"/><path d="m176.57 139-10.91 1.34c-.73.09-1 1.57-.06 1.46l10.91-1.34c.72-.06.95-1.54.06-1.46z" fill="#1a2e44"/><path d="m41.27 151 66.09 22a2 2 0 0 0 2.49-2.55c-6.22-20.16-12.56-38.39-19.14-52.74a2 2 0 0 0 -1.5-1.27c-18.34-5.65-39.48-9.25-62.31-11.6a2 2 0 0 0 -2.23 2.63l15.33 42.28a2 2 0 0 0 1.27 1.25z" fill="#fff"/><path d="m41 151.53 32.45 10.82 22.55 7.51c3.56 1.18 7.38 3 11.08 3.69 5.84 1 2.6-6.39 1.77-9-2.35-7.47-4.81-14.9-7.44-22.28-2.27-6.34-4.67-12.65-7.3-18.86-.87-2.05-1.73-5.82-3.61-7.15a10.39 10.39 0 0 0 -2.89-1c-2-.59-3.95-1.14-5.94-1.67a328.7 328.7 0 0 0 -45.11-8.29c-2-.24-4-.47-5.92-.68-1.38-.15-3.17-.71-4.53-.37a2.68 2.68 0 0 0 -2.21 3 19.53 19.53 0 0 0 1.42 4.1q4.45 12.29 8.92 24.55 1.92 5.29 3.85 10.6c.67 1.84 1 3.9 2.77 5 .64.39 1.76-.51.92-1-1.36-.83-1.67-2.86-2.17-4.25l-3.06-8.43q-3.84-10.6-7.69-21.18c-.87-2.42-1.75-4.82-2.62-7.24a7.81 7.81 0 0 1 -.63-1.73c-.22-3.14 3.63-2 5.44-1.76a363.84 363.84 0 0 1 42.85 7.09c3.07.72 6.12 1.49 9.15 2.33a37.47 37.47 0 0 1 4.95 1.37c2.17 1 2.69 2.66 3.57 4.68 2.68 6.11 5.11 12.35 7.39 18.62 2.46 6.72 4.74 13.5 6.93 20.3.48 1.51 1 3 1.44 4.53.38 1.2 2 4.54 1.79 5.76a1.84 1.84 0 0 1 -1.91 1.68c-1.26 0-3-1-4.2-1.4l-7.34-2.44-20.73-6.91-33.36-11.12c-.78-.26-1.58.81-.58 1.13z" fill="#1a2e44"/><path d="m58.11 124.31c1.25-.38 1.79-2.27 1.21-4.23s-2.07-3.25-3.32-2.88-1.79 2.26-1.21 4.23 2.07 3.25 3.32 2.88z" fill="#1a2e44" stroke="#fff" stroke-linecap="square" stroke-width=".25"/><path d="m38.17 55.42c.53-.64 3-1 3.36.44s6.41 18.26 6.06 18.92-26.26 11-27.18 10c-.26-.28-3.33-1.65-1.3-5.08 5.1-8.6 19.06-24.28 19.06-24.28z" fill="#1a2e44"/><path d="m12.34 62.94 24.9-8.22a1.93 1.93 0 0 1 1.37-.1 2 2 0 0 1 .88 1.26c2.28 6.56 4.59 11.92 6.87 18.49-8.68 5.17-18 6.61-26.63 10.18a1.48 1.48 0 0 1 -1.32.09 1.47 1.47 0 0 1 -.41-.64 110.81 110.81 0 0 1 -6.24-19.35" fill="#fff"/><path d="m12.57 63.45 22.82-7.54c1.27-.42 2.32-1.2 3.43.16a14.81 14.81 0 0 1 1.08 3c.58 1.61 1.2 3.21 1.81 4.81.73 1.89 1.46 3.78 2.17 5.67.58 1.55 2.06 3.88.75 5.13s-3.54 1.78-5 2.41c-1.91.8-3.88 1.49-5.85 2.14-3.38 1.12-6.8 2.1-10.17 3.27-1.72.59-3.76 2-5.36.29-1.07-1.13-1.59-4-2.12-5.5a114.12 114.12 0 0 1 -3.67-12.72c-.16-.69-1.57-.59-1.42.08a116.25 116.25 0 0 0 4.26 14.54c.89 2.42 1.42 6.81 4.7 5.81 4.57-1.29 9.15-3.12 13.69-4.61a67.55 67.55 0 0 0 13-5.6.5.5 0 0 0 .29-.62c-1.48-4.22-3.12-8.38-4.7-12.55-.73-1.93-1.25-5-2.49-6.68a2.05 2.05 0 0 0 -1.79-.94c-1.51-.06-3.71 1.11-5.12 1.57l-6.75 2.22-14 4.62c-.88.32-.33 1.29.44 1.04z" fill="#1a2e44"/><path d="m11.42 64.6 11.36 3.34c2.21.65 5.88 2.67 8.17 1.77 2.12-.83 3.83-3.81 5-5.64a35.2 35.2 0 0 0 4.15-8.71c.25-.78-1.14-.65-1.35 0a34.12 34.12 0 0 1 -3.28 7.29c-1.35 2.2-3.53 6.22-6.42 5.89-2.71-.3-5.65-1.66-8.26-2.43l-8.78-2.58c-.62-.22-1.44.82-.59 1.07z" fill="#1a2e44"/><path d="m39.63 56.76s-4.63 10.93-5.56 12.13-3.71.47-3.71.47a60.72 60.72 0 0 0 4.51-4.73c.78-1.16 4.26-8.35 4.26-8.35z" fill="#1a2e44"/><path d="m95.61 72.42c.56-.18 2.18.53 1.85 1.55s-3.46 14.89-3.92 15.16-19.68-4.84-19.86-5.78a2.4 2.4 0 0 1 1.15-3.56c6.37-3.25 20.78-7.37 20.78-7.37z" fill="#1a2e44"/><path d="m77.18 67.08 18.14 4.56a1.38 1.38 0 0 1 .86.46 1.44 1.44 0 0 1 0 1.1l-3.34 14.47c-6.4 0-13.25-2.12-19.46-4.75-.3-.13-.7-.15-.83-.45a1 1 0 0 1 0-.57 79.78 79.78 0 0 1 3.63-14" fill="#fff"/><path d="m77 67.74 8.54 2.14 4.27 1.12c1.26.32 3.14.44 4.27 1.07 1.2 0 1.68.63 1.42 2-.16.68-.33 1.37-.49 2.07-.32 1.37-.64 2.76-1 4.13-.43 1.84-.6 6.36-2.62 6.72-2.39.42-5.93-.74-8.22-1.33a65 65 0 0 1 -7.75-2.66c-1.86-.74-2.2-.91-2-3a24.59 24.59 0 0 1 .88-4 81.5 81.5 0 0 1 2.4-7.94c.26-.75-.68-1.27-1-.42a82 82 0 0 0 -3.07 11c-.31 1.53-1.3 3.66.12 4.78 1 .8 3.07 1.22 4.28 1.66 1.93.71 3.87 1.34 5.86 1.86a43.36 43.36 0 0 0 9.94 1.43.57.57 0 0 0 .53-.48q1.22-5.16 2.42-10.34c.32-1.35 1.82-4.6.78-6-.57-.74-1.85-.8-2.64-1l-5.33-1.34-11.2-2.81c-.76-.16-1.01 1.18-.39 1.34z" fill="#1a2e44"/><path d="m75.81 67.91 5.74 6.54c1.12 1.29 2.49 3.83 4.35 4 1.46.15 3.59-.92 4.89-1.49a25.34 25.34 0 0 0 6-3.73c.7-.56-.11-1.27-.72-.77-2.26 1.85-8.1 6.26-10.87 4.07-1.48-1.17-2.7-3.08-3.94-4.5-1.44-1.64-2.87-3.27-4.3-4.92-.47-.48-1.64.24-1.15.8z" fill="#1a2e44"/><path d="m96 73.8s-7 4.81-8 5.2-2.42-1.14-2.42-1.14a40.47 40.47 0 0 0 4.53-1.13c.91-.4 5.76-3.4 5.76-3.4z" fill="#1a2e44"/><path d="m236.6 49.33c.86-.15 3.07 1.23 2.36 2.65s-7.41 19.47-8.14 19.76-25.91-9.64-28.5-11.23c0-.4-1.51-3.6 2.44-4.93 9.98-3.36 31.84-6.25 31.84-6.25z" fill="#1a2e44"/><path d="m210.91 37.6 25.43 10.55a2 2 0 0 1 1.16.86 2 2 0 0 1 -.17 1.61l-8.05 20.38a226.06 226.06 0 0 0 -27.28-11.15c-.47-.16-1-.37-1.11-.84a1.45 1.45 0 0 1 .09-.82 116 116 0 0 1 8.31-19.66" fill="#fff"/><path d="m210.48 38.14 22.89 9.49c.63.26 2.07.53 2.54 1 1.34 1.51.23 3.42-.34 4.85-.73 1.86-1.47 3.73-2.21 5.59l-4.64 11.7 1-.4a232.56 232.56 0 0 0 -22.46-9.37 22.06 22.06 0 0 1 -3-1l-1-.34q-2.07-1.52-1.07-3.36c.3-2.09 1.65-4.6 2.43-6.52a119.67 119.67 0 0 1 5.2-11.05c.43-.81-.79-.91-1.13-.27a121 121 0 0 0 -6 12.94c-.75 1.93-4 7.4-1.57 8.9 1.66 1.05 4.1 1.44 5.95 2.11 2.45.88 4.9 1.81 7.32 2.79 4.86 1.95 9.65 4.09 14.38 6.37a.78.78 0 0 0 1-.41l5.64-14.24c.8-2 1.73-4 2.42-6.11.39-1.17.49-1.81-.34-2.7-1.11-1.18-3.87-1.71-5.35-2.32l-6.54-2.79-14.24-5.9c-.61-.29-1.55.76-.88 1.04z" fill="#1a2e44"/><path d="m209 38.33q3.33 5.14 6.65 10.31l3.18 4.94a5.33 5.33 0 0 0 1.67 2c2.12 1.15 6.46-.42 8.52-1a37.35 37.35 0 0 0 9-4c.79-.48-.07-1.2-.74-.79a34.77 34.77 0 0 1 -8.28 3.7 33.84 33.84 0 0 1 -3.71.87 10.15 10.15 0 0 1 -1.89.28c-2 0-2.49-.47-3.53-2.07-3.2-4.92-6.36-9.87-9.55-14.8-.39-.59-1.67-.02-1.32.56z" fill="#1a2e44"/><path d="m236.86 51.42s-11.2 5.51-12.74 5.83-3.28-2.18-3.28-2.18a63.36 63.36 0 0 0 6.83-.66c1.43-.38 9.12-3.71 9.12-3.71z" fill="#1a2e44"/><path d="m109.59 159.7 2.7-2.37c.54-.47 0-1.91-.61-1.32-.9.78-1.8 1.57-2.69 2.37-.55.47-.06 1.91.6 1.32z" fill="#1a2e44"/><path d="m108.47 155 1.51-1a.52.52 0 0 0 .06-.84.94.94 0 0 0 -1.08.08l-1.5 1a.51.51 0 0 0 -.07.83 1 1 0 0 0 1.08-.07z" fill="#1a2e44"/><path d="m48.18 50.24c2.41-2.93 2.82-4.48 5.71-7.24z" fill="#fff"/><path d="m48.69 50.54c1.9-2.34 3.39-4.95 5.58-7.07.68-.66 0-1.58-.74-.9-2.29 2.22-3.87 4.9-5.87 7.37-.66.79.48 1.29 1.03.6z" fill="#1a2e44"/><path d="m37.58 44.08c1.69-3.38 2.39-5.42 2.31-8.81z" fill="#fff"/><path d="m38.26 44.2a19.53 19.53 0 0 0 2.37-9.14c0-.81-1.47-.34-1.47.41a18.13 18.13 0 0 1 -2.25 8.53c-.43.83 1.02.88 1.35.2z" fill="#1a2e44"/><path d="m23.94 46.12a43 43 0 0 0 -3.61-9.32z" fill="#fff"/><path d="m24.53 45.88a55.09 55.09 0 0 0 -3.66-9.51c-.42-.87-1.39.18-1.07.87a52.92 52.92 0 0 1 3.56 9.14c.26.98 1.37.28 1.17-.5z" fill="#1a2e44"/><path d="m68.32 267.83c-.89-.12-1.78-.25-2.65-.4" fill="none" stroke="#1a2e44" stroke-dasharray="3 4" stroke-linecap="square"/><path d="m60.59 266.29c-43.36-11.51-46.5-65.07-10.23-52.29 38.32 13.51 13.77 27.31 5.8 22.9-24-13.33 24.11-23.62 40.29-45.49" fill="none" stroke="#1a2e44" stroke-dasharray="3 4" stroke-linecap="square"/><path d="m97.75 189.52c.42-.65.79-1.31 1.15-2" fill="none" stroke="#1a2e44" stroke-dasharray="3 4" stroke-linecap="square"/><path d="m171 364.67c0 2.23-15.55 4-34.73 4-9.16 0-20.22.67-26.42 0-6.81-.73-4.46-2.54-4.46-3.7 0-2.23 25.88-4 45.06-4s20.55 1.48 20.55 3.7z" fill="#1a2e44"/><path d="m120.76 326h30.56l12.68 20.65-1 19.35-54.63-.74-.37-15.38z" fill="#fff"/><path d="m121 327h29.5c.7 0 .78-1.45 0-1.45h-29.5c-.66-.02-.75 1.45 0 1.45z" fill="#1a2e44"/><path d="m120.16 326.35c-4.14 6.62-9.34 12.45-12.85 19.47-.34.66.4 1.74.83.88 3.51-7 8.72-12.84 12.85-19.46.4-.65-.32-1.71-.83-.89z" fill="#1a2e44"/><path d="m151 326.53c2.1 3.8 4.27 7.56 6.45 11.32a32.37 32.37 0 0 0 2.7 4.36 10.21 10.21 0 0 1 2.5 4c.26.93 1.21.23 1-.56-.84-3-3.28-5.1-4.84-7.78-2.35-4.07-4.71-8.14-7-12.25-.5-.83-1.21.25-.81.91z" fill="#1a2e44"/><path d="m1 353.89c0 1.67 10.62.89 27 .89 7.82 0 17.28.5 22.58 0 5.82-.55 6.36-2.15 6.36-3 0-1.67-24.66-2.76-41.06-2.76s-14.88 3.2-14.88 4.87z" fill="#1a2e44"/><path d="m42.59 321.07-24.69-1.07-17.9 16.51.94 17.49h49.74l.32-13.87z" fill="#fff"/><path d="m45.49 321c-8.9-.05-17.75-1-26.65-1.07-.95 0-.79 1.14.06 1.14 8.9 0 17.75 1 26.65 1.07.95.04.79-1.09-.06-1.14z" fill="#1a2e44"/><path d="m45.46 322.55c2.21 5.34 4 10.78 5.77 16.27.26.81 1.41 0 1.19-.7-1.79-5.5-3.55-10.92-5.76-16.28-.33-.79-1.47.06-1.2.71z" fill="#1a2e44"/><path d="m17.82 319.93c-3 2.91-6.31 5.57-9.48 8.33-2.49 2.15-5.24 4.33-7.16 7-.41.59.37 1.71.9.95 2-2.83 5-5.08 7.57-7.33 3-2.56 6-5.06 8.87-7.79.48-.44-.08-1.75-.7-1.16z" fill="#1a2e44"/><path d="m11.53 336.65c.36-1 7.35-7.11 7.35-7.11l25.32.8 2.82 7h-11.02l-2.85 5.76-12.75-.15-2-4.94z" fill="#1a2e44"/><path d="m18.31 321.05v10.34c0 .91 1.11 1 1.11 0v-10.3c0-.91-1.11-.96-1.11-.04z" fill="#1a2e44"/><path d="m43.64 322.17c-.11 3.39-.21 6.78-.32 10.17 0 .92 1.09 1 1.11 0q.16-5.08.31-10.17c.03-.87-1.07-.93-1.1 0z" fill="#1a2e44"/><path d="m266 351.89c0 1.67-10.82.89-27.51.89-8 0-17.59.5-23 0-5.92-.55-6.47-2.15-6.47-3 0-1.67 25.11-2.76 41.8-2.76s15.18 3.2 15.18 4.87z" fill="#1a2e44"/><path d="m218.41 319.07 24.69-1.07 17.9 16.51-.94 17.49h-49.75l-.31-13.88z" fill="#fff"/><g fill="#1a2e44"><path d="m216.09 320.3c8.89-.05 17.75-1 26.64-1.07.73 0 .6-1.47-.14-1.47-8.89.05-17.75 1-26.65 1.07-.72.01-.59 1.48.15 1.47z"/><path d="m214.91 320.06c-2.21 5.34-4 10.77-5.76 16.27-.3.92.86 1 1.12.17 1.79-5.49 3.56-10.92 5.77-16.27.37-.9-.81-.93-1.13-.17z"/><path d="m243 319.08c2.85 2.72 5.9 5.22 8.87 7.79 2.6 2.24 5.59 4.49 7.58 7.32.54.75 1.35-.32.94-.91-4.27-6.07-11.31-10.28-16.64-15.38-.65-.59-1.29.69-.75 1.18z"/><path d="m250 334.61c-.37-1-7.36-7.11-7.36-7.11l-25.32.79-2.81 7h11l2.85 5.77 12.74-.15 2-4.94z"/><path d="m242.12 319v10.33c0 .92 1.1 1 1.1 0v-10.33c.01-.87-1.1-.92-1.1 0z"/><path d="m216.78 320.13c.1 3.39.21 6.79.31 10.17 0 .91 1.14 1 1.11 0-.11-3.39-.21-6.78-.32-10.17-.02-.86-1.13-.93-1.1 0z"/><path d="m155.09 346.9c-.4-1.07-4.12-8.06-4.12-8.06h-29.62l-4.64 8.41h8l3.15 6.37 14-.17 2.14-5.45z"/><path d="m121 327.6c.11 3.74.23 7.47.34 11.21 0 .91 1.13 1 1.1.05-.11-3.75-.22-7.48-.34-11.22-.1-.91-1.17-.97-1.1-.04z"/><path d="m149.62 326.77q.18 5.6.35 11.21c0 .91 1.13 1 1.1 0-.11-3.74-.23-7.47-.34-11.21-.02-.87-1.13-.93-1.11 0z"/><path d="m43.56 312c.62-.76 4.11 0 4.54 1.74s7.5 21.63 7.08 22.41-31.11 12.85-32.18 11.72c-.31-.33-3.93-2-1.52-6 6.06-10.2 22.08-29.87 22.08-29.87z"/></g><path d="m13.53 322 29.47-9.62a2.28 2.28 0 0 1 1.62-.11 2.29 2.29 0 0 1 1 1.49c2.67 7.78 5.38 14.13 8 21.9-10.3 6.08-21.3 7.73-31.56 11.91a1.71 1.71 0 0 1 -1.56.11 1.61 1.61 0 0 1 -.52-.78 130.66 130.66 0 0 1 -7.19-22.9" fill="#fff"/><path d="m14 322.52 14.15-4.6c4.28-1.4 8.61-3.18 13-4.22 1.43-.34 2.84-1.07 3.81.2a17.29 17.29 0 0 1 1.2 3.42c.78 2.16 1.6 4.32 2.42 6.47.95 2.53 5.21 10.33 3.16 12.2-1.38 1.27-4 2-5.75 2.74-2.09.88-4.21 1.64-6.36 2.36-4 1.36-8.14 2.5-12.19 3.85-2.06.68-5.17 2.64-7.06.7-1.28-1.31-1.95-5-2.56-6.75a133 133 0 0 1 -4.24-14.89c-.17-.74-1.77-.87-1.58 0a134.94 134.94 0 0 0 4.7 16.35c1 2.88 1.77 8.93 5.83 7.85 5.13-1.36 10.25-3.5 15.33-5.1a82.62 82.62 0 0 0 16.32-6.84.53.53 0 0 0 .29-.69c-1.77-5.11-3.74-10.14-5.63-15.21-.84-2.36-1.38-5.27-2.64-7.36a2.45 2.45 0 0 0 -2-1.43c-1.82-.21-4 1-5.72 1.57l-8.26 2.69-17.11 5.57c-.97.34.16 1.36.89 1.12z" fill="#1a2e44"/><path d="m12.45 323.9 13.43 4c2.4.72 4.86 1.68 7.32 2.19a3.55 3.55 0 0 0 2.3-.06c2.5-1 4.54-4.48 6-6.63a40.93 40.93 0 0 0 4.94-10.28c.28-.87-1.28-.73-1.52 0a40.51 40.51 0 0 1 -3.93 8.6c-1.61 2.62-4.21 7.36-7.67 7-3.2-.38-6.67-2-9.76-2.92l-10.37-3.1c-.78-.26-1.71.91-.74 1.2z" fill="#1a2e44"/><path d="m45.86 314.8s-5.54 12.91-6.63 14.33-4.4.54-4.4.54a69.45 69.45 0 0 0 5.36-5.57c.93-1.38 5.09-9.86 5.09-9.86z" fill="#1a2e44"/><path d="m252.65 318.39c.88-.17 2.09 2.39 1.4 3.87s-7.15 19.72-7.89 20-29.58-8.78-29.68-10.24c0-.41-1.66-3.66 2.39-5.15 10.2-3.7 33.78-8.48 33.78-8.48z" fill="#1a2e44"/><path d="m224.72 308.18 26.52 10.19a2.08 2.08 0 0 1 1.22.85 2.14 2.14 0 0 1 -.13 1.67c-2.58 7.11-4.33 13.11-6.91 20.22-10.83-1.62-19.61-6.79-29.33-9.73-.48-.14-1-.36-1.17-.83a1.55 1.55 0 0 1 .08-.85 118.88 118.88 0 0 1 8-20.52" fill="#fff"/><path d="m224.46 308.68 24.93 9.58c2 .77 2.26 1.49 1.7 3.95-.25 1-.73 2.06-1.07 3.07-.62 1.83-1.22 3.64-1.82 5.47-.66 2-1.32 4-2 6-.2.61-.63 2.63-1.08 3.08-.84.87-1.6.42-2.71.19-7.76-1.67-14.89-5.22-22.32-7.88a24.1 24.1 0 0 1 -2.79-.95c-1.48-.73-1.48-.78-1.25-2.43.32-2.38 1.57-4.92 2.41-7.18a124.11 124.11 0 0 1 5.27-12.13c.35-.71-1.06-1.12-1.37-.48a124.06 124.06 0 0 0 -6.36 15.22c-.49 1.45-2.31 5-1.76 6.41.45 1.2 2 1.39 3 1.73 9.43 3.08 18.22 7.74 28.11 9.33.23 0 .66 0 .77-.31 1.68-4.65 3.19-9.38 4.76-14.07.79-2.33 3.73-6.88 1.57-8.95-1.12-1.08-3.7-1.52-5.18-2.09l-7.42-2.85-14.85-5.7c-.8-.32-1.45.65-.54.99z" fill="#1a2e44"/><path d="m222.85 309.11c2.41 3.53 4.82 7.07 7.24 10.59 1.2 1.77 2.39 3.55 3.61 5.31.66.94 1.06 1.54 2.22 1.73 2.48.42 5.81-.82 8.13-1.57a38.59 38.59 0 0 0 9-4.34c.82-.53-.08-1.28-.78-.83a36.66 36.66 0 0 1 -7.73 3.84c-2.52.89-7.86 2.91-9.65.34-3.68-5.26-7.24-10.6-10.86-15.9-.39-.58-1.63.17-1.18.83z" fill="#1a2e44"/><path d="m251.85 321.72s-11.4 6-13 6.36-3.45-2.15-3.45-2.15a63.4 63.4 0 0 0 7-.87c1.45-.44 9.31-4.08 9.31-4.08z" fill="#1a2e44"/><path d="m146 327.79c1-.29 3.32 2.48 2.68 4.23s-6.11 23.14-6.93 23.58-34.52-7-34.78-8.61c-.07-.47-2.26-4 2.19-6.1 11.18-5.29 36.84-13.1 36.84-13.1z" fill="#1a2e44"/><path d="m113.84 319 31.16 8.87a2.51 2.51 0 0 1 1.48.84 2.45 2.45 0 0 1 0 1.9c-2.21 8.31-3.58 15.39-5.79 23.7-12.48-.73-23-5.7-34.34-8.07-.55-.11-1.19-.29-1.41-.82a1.75 1.75 0 0 1 0-1 136.23 136.23 0 0 1 7.06-24.13" fill="#fff"/><path d="m113.74 319.57 15 4.27c4.47 1.28 9.63 2.07 13.87 4a3.75 3.75 0 0 1 3.15 2.7c-.15.56-.3 1.12-.44 1.68-.28 1.1-.56 2.19-.82 3.28-.57 2.29-1.1 4.59-1.64 6.89-.49 2.12-1 4.23-1.5 6.34a15 15 0 0 1 -.81 3.27c0 1.2-.63 1.74-2 1.63l-1.65-.19c-8.87-1.14-17.23-4.34-25.83-6.61-1-.27-2-.52-3.06-.76-2.19-.5-2.07-1.55-1.85-3.69a44.71 44.71 0 0 1 1.59-6.68 139.7 139.7 0 0 1 5-15.07c.3-.76-1.14-1.23-1.4-.56a141.14 141.14 0 0 0 -5.48 17q-.63 2.5-1.17 5c-.17.84-.8 2.48-.45 3.38.42 1.07 1.59 1.25 2.58 1.48 11.36 2.69 22.28 7.16 34 8a.63.63 0 0 0 .64-.44c1.41-5.33 2.62-10.7 3.89-16.06.58-2.46 1.62-5.12 1.91-7.64.16-1.4.26-2.22-1-3-1.86-1.17-4.79-1.44-6.89-2l-8.09-2.3-17.33-4.93c-.96-.38-1.13.75-.22 1.01z" fill="#1a2e44"/><path d="m111.83 320.13 9.08 11c1.52 1.85 3 3.69 4.55 5.52.91 1.1 1.49 2 3 2.17 2.82.26 6.66-1.53 9.2-2.63a42.61 42.61 0 0 0 9.62-5.76c.79-.61-.11-1.39-.8-.86a41.76 41.76 0 0 1 -8.35 5.16c-3.08 1.41-8.15 4.09-11.05 1.52-2.57-2.27-4.63-5.62-6.81-8.28l-7.2-8.74c-.47-.52-1.76.27-1.24.9z" fill="#1a2e44"/><path d="m146.09 331.64s-12.35 8-14.11 8.56-4.14-2.1-4.14-2.1a72.1 72.1 0 0 0 7.9-1.71c1.61-.65 10.17-5.59 10.17-5.59z" fill="#1a2e44"/><path d="m51 338c-5 .12-15.1.19-15.1.19l-2.72 4.89-12.75-.15-2-4.94s-11.31-1.06-17-1.33c-.73 8 .08 8.24-.59 15.54a1.73 1.73 0 0 0 1.73 1.89c16.74-.08 30-.39 46.31.42a2.91 2.91 0 0 0 2.12-.41 2.88 2.88 0 0 0 .7-2.19c.22-6.22 1-5.86.34-12.06" fill="#fff"/><path d="m50.78 337.44c-5 .11-10.07.15-15.11.19a.57.57 0 0 0 -.42.21l-1.5 2.69c-.24.43-1.71 2.49-.65 2-1.3.62-4.65-.06-6.05-.07-2.15 0-4.38.1-6.53-.08-.27 0 .58.81.48.22a10.45 10.45 0 0 0 -.68-1.67c-.41-1-.81-2-1.22-3a.87.87 0 0 0 -.72-.5c-5.65-.52-11.29-1-16.95-1.33-.34 0-.66.12-.7.5-.27 3.16-.31 6.29-.3 9.46 0 2.09-1.16 6.14.33 7.77a3 3 0 0 0 2.05.85 57.49 57.49 0 0 0 6.82 0c4.92 0 9.84-.09 14.75-.09q6.54 0 13.06.14 3.51.07 7 .21a30.59 30.59 0 0 0 5.4.22c3.11-.49 2.51-3.49 2.73-6a48.32 48.32 0 0 0 .16-9.16c-.07-.71-1.52-.93-1.45-.15a33.42 33.42 0 0 1 .05 7.14 30 30 0 0 1 -.36 4.38c-.84 3.08-3.5 2.58-6 2.47-7.22-.29-14.45-.38-21.67-.37-3.23 0-6.47 0-9.7 0-2.12 0-11 1.24-12-1.18-.38-.95.24-3.11.27-4.21s0-2.2 0-3.29c0-2.7.09-5.36.32-8l-.7.5c4.92.25 9.82.69 14.73 1.13a11.94 11.94 0 0 0 1.88.17c.29 0 .48.22 0-.18-.67-.55-.11.07-.11.3 0 1.25 1.28 3.16 1.76 4.36a.86.86 0 0 0 .72.49l12.75.15c.2 0 .5 0 .61-.21l2-3.62c.2-.35 1-1.4.33-1.05a4.9 4.9 0 0 1 1.38 0c4.56 0 9.11-.07 13.68-.17.95-.11.31-1.24-.44-1.22z" fill="#1a2e44"/><path d="m210.55 336c5 .12 15.1.18 15.1.18l2.72 4.9 12.74-.16 2-4.94s11.3-1.05 16.95-1.33c.73 8-.09 8.25.59 15.54a1.74 1.74 0 0 1 -1.74 1.9c-16.74-.08-30-.39-46.31.42a2.93 2.93 0 0 1 -2.07-.41 2.89 2.89 0 0 1 -.71-2.19c-.22-6.22-1-5.87-.34-12.06" fill="#fff"/><path d="m210.49 336.69c4.56.1 9.12.14 13.68.18 1.53 0 1-.38 1.63.88s1.41 2.56 2.12 3.83a.47.47 0 0 0 .39.19l12.75-.15a.65.65 0 0 0 .51-.39l1.22-3a14.25 14.25 0 0 1 .68-1.67c.35-.61-.66.25-.25.1 2.28-.83 5.68-.51 8.08-.7 2-.17 4.07-.33 6.1-.46 1.08-.07 1.65-.39 2.2.44.35.53.15 2.05.18 2.74a92.38 92.38 0 0 1 .2 10.25c-.19 2.68-1.31 2.4-3.31 2.39h-4.51l-8.12-.06c-5.21 0-10.44 0-15.66 0q-4 .06-7.95.18l-4.38.16c-2 .08-3 .5-4.52-.9s-1.15-2.1-1.3-3.95c-.08-.86-.19-1.73-.28-2.59a31.75 31.75 0 0 1 .12-6.39c.09-1-1.06-.75-1.14.09a43.36 43.36 0 0 0 .1 8.6c.24 2.44-.52 6.23 2.65 6.74 1.7.27 3.65-.14 5.36-.2 2.52-.1 5-.17 7.56-.23 4.35-.1 8.7-.12 13.05-.12s8.86 0 13.3.07c2.43 0 4.93.2 7.35 0a2.77 2.77 0 0 0 2.37-.95 3.87 3.87 0 0 0 .47-2.89c-.14-1.83-.2-3.65-.19-5.48 0-3-.05-6-.31-9.07a.53.53 0 0 0 -.51-.5c-5.66.3-11.31.81-16.95 1.33a.66.66 0 0 0 -.51.39l-1.22 3c-.21.5-.44 1-.61 1.52-.25.7.21 0 .2 0-1.95.45-4.53 0-6.53.08h-3.75a7.12 7.12 0 0 1 -2.3 0c.61.32-.65-1.63-.87-2-.49-.9-1-1.8-1.49-2.69a.45.45 0 0 0 -.39-.19c-5 0-10.07-.07-15.11-.18-.7.13-.9 1.58-.11 1.6z" fill="#1a2e44"/><path d="m108.09 347.62c5.55.13 16.66.21 16.66.21l3 5.39 14.06-.17 2.19-5.45s12.46-.38 18.69-.68c.81 8.84-.09 9.09.65 17.14a2 2 0 0 1 -1.91 2.09 284.44 284.44 0 0 1 -51.07 1 3.74 3.74 0 0 1 -2.29-.46 3.17 3.17 0 0 1 -.79-2.41c-.23-6.86-1.1-7.77-.36-14.59" fill="#fff"/><path d="m108.06 348.35c5 .11 10 .16 15 .19a6.78 6.78 0 0 1 1.56 0c.39.12-.63-.55-.2-.08a5.66 5.66 0 0 1 .57 1l2.3 4.15a.51.51 0 0 0 .48.31l14.05-.17a.64.64 0 0 0 .51-.4 40.38 40.38 0 0 1 2.1-5.18c.3-.5-.68.22-.17.13a4.25 4.25 0 0 1 .8 0 35.77 35.77 0 0 0 3.58-.11c3.22-.11 6.46-.22 9.68-.35l2.51-.11c1 0 1-.19 1.48.53.76 1.25.26 4.58.26 6.13 0 2.63.24 5.35.14 8-.09 2.21-.86 3-2.89 3.23l-3.39.32q-3.8.33-7.6.59-13.44.88-26.91.47-3.87-.12-7.73-.34a14.74 14.74 0 0 1 -3.71-.23 3.86 3.86 0 0 1 -2.55-2.5 13 13 0 0 1 -.1-1.87 74.66 74.66 0 0 1 -.27-12.42c.1-1-1.05-.72-1.13.11a58.15 58.15 0 0 0 .15 11c.24 2.81-.58 6.49 2.87 7.14 4.28.8 9.07.51 13.42.64q7.28.19 14.56 0 7.55-.19 15.08-.79c2.6-.2 5.23-.37 7.82-.7 1.21-.15 2.39-.18 3.16-1.26a4.14 4.14 0 0 0 .4-2.92c-.15-1.88-.23-3.76-.22-5.65 0-3.51 0-7-.34-10.48a.51.51 0 0 0 -.52-.48c-6.23.3-12.47.49-18.69.68a.68.68 0 0 0 -.51.4c-.4 1-.8 2-1.21 3a13.26 13.26 0 0 0 -.77 1.88c-.18.78-.1.22.15.17-2.24.42-4.93.06-7.2.09-1.9 0-4.82.63-6.65.08.49.15.28.3 0-.35a18.27 18.27 0 0 0 -1-1.78l-1.63-2.95a.54.54 0 0 0 -.48-.32c-5.55 0-11.1-.08-16.65-.21-.74-.06-.9 1.39-.11 1.41z" fill="#1a2e44"/><path d="m104 304-35 11" fill="none" stroke="#1a2e44" stroke-dasharray="3 4" stroke-linecap="square"/><path d="m169 302a84.47 84.47 0 0 1 32 10" fill="none" stroke="#1a2e44" stroke-dasharray="3 4" stroke-linecap="square"/><path d="m137 302v15" fill="none" stroke="#1a2e44" stroke-dasharray="3 4" stroke-linecap="square"/><path d="m173.28 284.22c0 3-15.77 3.6-35.66 3.6-9.48 0-21.86.9-28.29 0-7-1-7.71-3.84-7.71-5.4 0-3 47.32-2.95 67-5.52 1.43-.17 4.66 4.35 4.66 7.32z" fill="#1a2e44"/><path d="m103.32 266.43a2.89 2.89 0 0 1 3-2.49c17.12-.3 47.7-.58 57.33-.69 1.83 0 3.33 1 3.49 2.32.49 4.22.21 10.59.45 15.15.11 2-2.14 3.75-4.9 3.74-16.06-.06-46.25.77-56.21 1.05-1.76.05-3.23-.91-3.36-2.2-.33-3.38.01-12.48.2-16.88z" fill="#fff"/><path d="m104.05 266.58c.59-2.93 6.42-2.15 8.81-2.19l8-.11 16.21-.2 15.74-.16c3.41 0 7.39-.66 10.77-.12 3.14.51 2.94 2 3.06 4.18.08 1.52.11 3 .12 4.55s0 2.83 0 4.25c0 1.85.65 4.49-.83 5.93-1.86 1.81-6 1.17-8.39 1.18s-5.12 0-7.67.07c-10.74.14-21.48.39-32.22.67l-7 .18c-2 .06-6 .82-6.84-1.75-.66-2.14-.15-5.22-.1-7.43.06-3 .17-6 .31-9.05 0-.74-1.42-1-1.45-.3-.12 2.72-.22 5.44-.28 8.16s-.46 5.92.08 8.64c.85 4.21 6.79 2.92 9.9 2.84 12.73-.34 25.46-.66 38.18-.82 2.78 0 5.56-.07 8.34-.07 2.5 0 5.49.45 7.69-1s1.81-3.48 1.75-5.82c-.08-3.91.23-7.94-.28-11.82-.63-4.67-6.1-3.63-9.61-3.59l-17.28.18q-11.44.12-22.88.27l-9.9.14c-2.42.05-5.13.07-5.71 3-.12.61 1.33.91 1.48.19z" fill="#1a2e44"/><path d="m112.43 256.18c17.1-.53 35.17.44 44.78.18 1.83-.06 9.53 5.46 9.67 7.7.07 1-1.4.12-4.15.18-16 .32-46.23 1.4-56.19 1.76-1.76.06-3.2-.38-3.32-1-.28-1.67 7.57-8.77 9.21-8.82z" fill="#fff"/><path d="m112.31 256.89c11.76-.33 23.51 0 35.27.18 2.16 0 4.31.06 6.46.05 1.64 0 3.11-.23 4.61.49a22.53 22.53 0 0 1 4.41 3 19.19 19.19 0 0 1 1.83 1.65c.57.58 1.19 1.84 1.55 1.6-.33.22-2.23-.26-2.63-.29-1 0-1.94 0-2.9 0l-6.09.15q-6.72.18-13.44.39-13.09.4-26.21.87c-1.64.06-11.22 1-10.93-1 .18-1.25 3-3.3 3.9-4.11 1.12-1 2.74-2.71 4.32-3 .69-.11.78-1.53-.07-1.39-2.9.47-6.19 4.33-8 6.41-1.46 1.7-3 3.91.1 4.68 1.72.44 3.85.08 5.61 0l6.84-.24 16.1-.55c10.74-.35 21.64-1.17 32.37-.62 2.9.15 2-2.24.6-3.79-2-2.24-5.51-5.3-8.6-5.74-2.65-.37-5.66 0-8.35 0-3.61-.05-7.23-.13-10.85-.2-8.57-.16-17.14-.25-25.71 0-.67.05-.97 1.49-.19 1.46z" fill="#1a2e44"/><path d="m113.08 273.82c0 1-1 1.55-2 1.55a1.74 1.74 0 1 1 0-3.47 2.17 2.17 0 0 1 2 1.92z" fill="#1a2e44"/><path d="m119 273.83c0 .95-1.06 1.54-2 1.54a1.74 1.74 0 1 1 0-3.47 2.17 2.17 0 0 1 2 1.93z" fill="#1a2e44"/><path d="m125.64 273.83c0 .95-1.06 1.54-2 1.54a1.74 1.74 0 1 1 0-3.47 2.18 2.18 0 0 1 2 1.93z" fill="#fff" stroke="#1a2e44" stroke-linecap="square"/><path d="m102.77 247.64a2.75 2.75 0 0 1 2.88-2.36c16.17-.28 45.09-.55 54.18-.65 1.73 0 3.15.93 3.3 2.2.46 4 .2 10 .43 14.31.1 1.92-2 3.54-4.63 3.54-15.19-.06-43.72.73-53.14 1-1.66.05-3.05-.86-3.18-2.09-.35-3.2-.02-11.79.16-15.95z" fill="#fff"/><path d="m103.31 247.91c.55-2.72 6-2 8-2 2.65 0 5.3-.08 8-.1l15.73-.19 14.48-.16c3.28 0 7.13-.63 10.37-.1 3.74.6 3 5.56 3 8.42 0 2.53 1.15 7.78-1.19 9.39-1.89 1.3-4.93.77-7.11.78-2.4 0-4.81 0-7.21.07-10.3.13-20.61.37-30.91.64l-6.37.17c-2 .05-4.5.61-6-.78-1.8-1.65-1.05-5.64-1-8 .06-2.78.16-5.55.28-8.33 0-.85-1.09-1.12-1.13-.16-.12 2.78-.22 5.55-.28 8.33 0 2.46-.43 5.39.14 7.81.93 4 6.81 2.61 9.78 2.53 12.1-.32 24.21-.62 36.32-.76 2.72 0 5.43-.06 8.15-.06 2.26 0 4.84.28 6.61-1.43s1.12-4.09 1.09-6.25c0-3.5.4-7.38-.33-10.83-.82-3.89-5.57-3-8.56-2.95l-16.41.17q-11 .12-21.94.26l-9.8.14c-2.21 0-4.25.36-4.75 2.85-.2.76.85 1.48 1.04.54z" fill="#1a2e44"/><path d="m111.36 237.93c16.16-.5 33.24.42 42.33.17 1.72 0 9 5.16 9.14 7.27.06.94-1.32.12-3.93.17-15.16.31-43.69 1.33-53.11 1.67-1.65.06-3-.35-3.13-1-.26-1.52 7.15-8.21 8.7-8.28z" fill="#fff"/><path d="m111.46 238.66c11-.31 21.9 0 32.86.16 2 0 4.05.06 6.08.05 1.72 0 3.3-.24 4.89.53a21.32 21.32 0 0 1 4.29 2.94 10.45 10.45 0 0 1 1.78 1.67c.82 1.14.61 1-.71.89a86.37 86.37 0 0 0 -10.65.1q-6.36.18-12.71.38-12.3.39-24.61.83l-4.79.17c-.66 0-1.33.07-2 .07s-1.83.27-2.2-.31-.16-.38.23-1.08a17.1 17.1 0 0 1 3.73-3.82c1-.9 2.41-2.37 3.82-2.61.73-.12.51-1.58-.22-1.46-2.65.45-12.88 9.12-7.28 10.6 3.21.85 7.6-.06 10.88-.18l15-.51c10.66-.35 21.31-.62 31.94-.59 2.6 0 1.25-2.42.16-3.66-1.91-2.14-5.31-5.08-8.26-5.49-2.37-.33-5.08 0-7.48 0-3.39 0-6.78-.11-10.18-.18-8.27-.15-16.55-.25-24.82 0-.7.06-.49 1.52.25 1.5z" fill="#1a2e44"/><path d="m112 254.6c0 .91-1 1.47-1.91 1.47a1.65 1.65 0 0 1 0-3.29 2.05 2.05 0 0 1 1.91 1.82z" fill="#1a2e44"/><path d="m117.59 254.6c0 .91-1 1.47-1.91 1.47a1.65 1.65 0 0 1 0-3.29 2.05 2.05 0 0 1 1.91 1.82z" fill="#1a2e44"/><path d="m123.87 254.6c0 .91-1 1.47-1.91 1.47a1.65 1.65 0 0 1 0-3.29 2.05 2.05 0 0 1 1.91 1.82z" fill="#fff" stroke="#1a2e44" stroke-linecap="square"/><path d="m104.79 229.24a2.76 2.76 0 0 1 2.88-2.36c16.18-.28 45.09-.54 54.18-.65 1.73 0 3.15.93 3.3 2.2.46 4 .2 10 .43 14.32.1 1.92-2 3.54-4.63 3.53-15.18-.06-43.72.73-53.14 1-1.66 0-3-.86-3.17-2.08-.35-3.2-.03-11.8.15-15.96z" fill="#fff"/><path d="m105.53 229.29c.53-2.64 6.51-1.93 8.43-2l7.6-.11q7.88-.1 15.74-.18l14.4-.16h5.34c1.39 0 3.34-.39 4.69-.05a4.16 4.16 0 0 1 2.77 2.51 10.06 10.06 0 0 1 .12 1.66c.07 1.38.08 2.75.1 4.13 0 2.37 1 7.88-.73 9.61s-6.05 1-8.33 1c-2.45 0-4.9 0-7.35.08-9.72.13-19.45.35-29.18.61-3.17.08-12.33 1.73-13.8-1.79-.75-1.8-.11-5.23-.07-7.14.06-2.78.16-5.55.28-8.33 0-.72-1.44-.56-1.47.18-.12 2.78-.22 5.56-.27 8.33 0 2.36-.68 6 .28 8.2 1.36 3.17 7.21 1.87 9.87 1.8 12.3-.34 24.6-.64 36.91-.78q4 0 8 0c2.16 0 4.53.12 6.23-1.49s1.13-4 1.1-6.18c0-3.4.57-7.53-.33-10.83-1-3.69-6.28-2.63-9.16-2.6l-16.67.17-21.92.26c-3.22.05-6.45 0-9.67.15-2 .07-3.94.61-4.39 2.87-.13.79 1.34.79 1.48.08z" fill="#1a2e44"/><path d="m114 221c16.17-.5 32.63-1 41.72-1.28 1.72 0 9 5.16 9.14 7.28.06.94-1.33.12-3.93.17-15.17.31-43.69 1.33-53.11 1.67-1.66.06-3-.36-3.13-.95-.24-1.56 7.8-6.83 9.31-6.89z" fill="#fff"/><path d="m113.93 221.6 32.74-1c3.34-.1 7.9-1.1 10.91.57a23.7 23.7 0 0 1 4.07 2.9 13.51 13.51 0 0 1 1.71 1.67c.15.19.71.75.69 1s.12-.12-.38 0a14.56 14.56 0 0 1 -2.58-.18c-.75 0-1.51 0-2.27 0l-5.76.14q-6.33.16-12.63.37-11.93.38-23.83.8c-1.52.05-9.94 1.15-10.54-.31-.38-.92.35-1.23 1.13-1.89s1.45-1.14 2.21-1.66c1.19-.83 3-2.27 4.53-2.48.74-.1 1.19-1.32.24-1.19-2.83.4-6 2.94-8 4.74-1.54 1.34-3.36 3.38-.34 4.14 3.36.84 7.81-.06 11.24-.19l14.7-.5c10.34-.34 21-1.42 31.36-.67 2.34.17 3.2-.85 1.57-2.91-1.79-2.28-5.39-5.29-8.34-5.85-2.23-.43-5 .09-7.21.16l-10.39.32-24.54.76c-.82.1-1.22 1.29-.29 1.26z" fill="#1a2e44"/><path d="m114 236.21c0 .91-1 1.47-1.91 1.47a1.65 1.65 0 0 1 0-3.29 2 2 0 0 1 1.91 1.82z" fill="#1a2e44"/><path d="m119.63 236.21c0 .91-1 1.47-1.91 1.47a1.65 1.65 0 0 1 0-3.29 2 2 0 0 1 1.91 1.82z" fill="#1a2e44"/><path d="m125.91 236.21c0 .91-1 1.47-1.91 1.47a1.65 1.65 0 0 1 0-3.29 2 2 0 0 1 1.91 1.82z" fill="#fff" stroke="#1a2e44" stroke-linecap="square"/><path d="m164.18 261s2 1.92 1.81 2.56-3 .39-3 .39z" fill="#1a2e44"/></svg>