<svg xmlns="http://www.w3.org/2000/svg" width="39" height="41"><defs><clipPath id="a"><path fill="none" d="M0 0h39v41H0z"/></clipPath></defs><g clip-path="url(#a)"><path d="M2.48 19.84a18.63 18.63 0 005.64 16.6C12.17 40 17.39 41 22.43 41a18.66 18.66 0 008.8-1.82A13.92 13.92 0 0038 31.57c2.14-5.71.43-12.31-2.3-17.09a28.8 28.8 0 00-6-7.35C25.93 3.94 8.8-2.83 3.29 15" fill="#1a2e44"/><path d="M.6 17.22a18.6 18.6 0 005.64 16.56c4 3.54 9.27 4.61 14.31 4.56a18.77 18.77 0 008.8-1.81 14 14 0 006.75-7.62c2.13-5.71.42-12.31-2.31-17.09a28.8 28.8 0 00-6-7.35C24.09 1.28 7-5.45 1.41 12.4" fill="#fff"/><path d="M.21 17.14C-1.16 26.52 4.1 35.38 13 37.94c8.5 2.44 19.7.89 23.41-8.5C39.94 20.59 34.9 9.65 28.06 4a20.24 20.24 0 00-12.3-4C8.29 0 3.33 5.18 1.07 12.22c-.22.58.51 1.06.72.35C3.71 6.69 7.6 2 13.84 1.2a20.22 20.22 0 0111.87 2.52C31.74 7 36.09 15 36.65 21.92a14.42 14.42 0 01-5.6 13c-3.8 2.75-8.71 3.15-13.2 2.79-4.7-.39-9.39-2-12.64-5.66A18.51 18.51 0 011 17.27c.11-.71-.7-.8-.79-.13z" fill="#1a2e44"/></g></svg>