<svg xmlns="http://www.w3.org/2000/svg" width="2.53mm" height="4mm" viewBox="0 0 7.17 11.34"><path d="M1,5.74c2.32,2.26,2.72,2,5,4.69Z" style="fill: #fff"/><path d="M1.45,4.83C3.24,6.49,5,7.79,6.7,9.63A1,1,0,1,1,5.26,11C3.73,9.31,2,8.1.37,6.5-.58,5.64.5,4,1.45,4.83Z" style="fill: #1a2e44"/><path d="M1.44,5.32C3.88,3.17,3.61,3.59,6.27,1.14Z" style="fill: #fff"/><path d="M1,4.42C2.59,3,4.17,1.67,5.8.25c1-.91,2,.92.89,1.91C5.07,3.58,3.49,4.9,1.86,6.33.93,7.12-.08,5.3,1,4.42Z" style="fill: #1a2e44"/></svg>