<svg height="132.29mm" viewBox="0 0 269 375" width="94.9mm" xmlns="http://www.w3.org/2000/svg"><path d="m171 370.67c0 2.23-15.55 4-34.73 4-9.16 0-20.22.67-26.42 0-6.81-.73-4.46-2.54-4.46-3.7 0-2.23 25.88-4 45.06-4s20.55 1.48 20.55 3.7z" fill="#1a2e44"/><path d="m120.76 332h30.56l12.68 20.65-1 19.35-54.63-.74-.37-15.38z" fill="#fff"/><path d="m121 333h29.5c.7 0 .78-1.45 0-1.45h-29.5c-.66-.02-.75 1.45 0 1.45z" fill="#1a2e44"/><path d="m120.16 332.35c-4.14 6.62-9.34 12.45-12.85 19.47-.34.66.4 1.74.83.88 3.51-7 8.72-12.84 12.85-19.46.4-.65-.32-1.71-.83-.89z" fill="#1a2e44"/><path d="m151 332.53c2.1 3.8 4.27 7.56 6.45 11.32a32.37 32.37 0 0 0 2.7 4.36 10.21 10.21 0 0 1 2.5 4c.26.93 1.21.23 1-.56-.84-3-3.28-5.1-4.84-7.78-2.35-4.07-4.71-8.14-7-12.25-.5-.83-1.21.25-.81.91z" fill="#1a2e44"/><path d="m1 359.89c0 1.67 10.62.89 27 .89 7.82 0 17.28.5 22.58 0 5.82-.55 6.36-2.15 6.36-3 0-1.67-24.66-2.76-41.06-2.76s-14.88 3.2-14.88 4.87z" fill="#1a2e44"/><path d="m42.59 327.07-24.69-1.07-17.9 16.51.94 17.49h49.74l.32-13.87z" fill="#fff"/><path d="m45.49 327c-8.9-.05-17.75-1-26.65-1.07-.95 0-.79 1.14.06 1.14 8.9 0 17.75 1 26.65 1.07.95.04.79-1.09-.06-1.14z" fill="#1a2e44"/><path d="m45.46 328.55c2.21 5.34 4 10.78 5.77 16.27.26.81 1.41 0 1.19-.7-1.79-5.5-3.55-10.92-5.76-16.28-.33-.79-1.47.06-1.2.71z" fill="#1a2e44"/><path d="m17.82 325.93c-3 2.91-6.31 5.57-9.48 8.33-2.49 2.15-5.24 4.33-7.16 7-.41.59.37 1.71.9.95 2-2.83 5-5.08 7.57-7.33 3-2.56 6-5.06 8.87-7.79.48-.44-.08-1.75-.7-1.16z" fill="#1a2e44"/><path d="m11.53 342.65c.36-1 7.35-7.11 7.35-7.11l25.32.8 2.82 7h-11.02l-2.85 5.76-12.75-.15-2-4.94z" fill="#1a2e44"/><path d="m18.31 327.05v10.34c0 .91 1.11 1 1.11 0v-10.3c0-.91-1.11-.96-1.11-.04z" fill="#1a2e44"/><path d="m43.64 328.17c-.11 3.39-.21 6.78-.32 10.17 0 .92 1.09 1 1.11 0q.16-5.08.31-10.17c.03-.87-1.07-.93-1.1 0z" fill="#1a2e44"/><path d="m266 357.89c0 1.67-10.82.89-27.51.89-8 0-17.59.5-23 0-5.92-.55-6.47-2.15-6.47-3 0-1.67 25.11-2.76 41.8-2.76s15.18 3.2 15.18 4.87z" fill="#1a2e44"/><path d="m218.41 325.07 24.69-1.07 17.9 16.51-.94 17.49h-49.75l-.31-13.88z" fill="#fff"/><g fill="#1a2e44"><path d="m216.09 326.3c8.89-.05 17.75-1 26.64-1.07.73 0 .6-1.47-.14-1.47-8.89.05-17.75 1-26.65 1.07-.72.01-.59 1.48.15 1.47z"/><path d="m214.91 326.06c-2.21 5.34-4 10.77-5.76 16.27-.3.92.86 1 1.12.17 1.79-5.49 3.56-10.92 5.77-16.27.37-.9-.81-.93-1.13-.17z"/><path d="m243 325.08c2.85 2.72 5.9 5.22 8.87 7.79 2.6 2.24 5.59 4.49 7.58 7.32.54.75 1.35-.32.94-.91-4.27-6.07-11.31-10.28-16.64-15.38-.65-.59-1.29.69-.75 1.18z"/><path d="m250 340.61c-.37-1-7.36-7.11-7.36-7.11l-25.32.79-2.81 7h11l2.85 5.77 12.74-.15 2-4.94z"/><path d="m242.12 325v10.33c0 .92 1.1 1 1.1 0v-10.33c.01-.87-1.1-.92-1.1 0z"/><path d="m216.78 326.13c.1 3.39.21 6.79.31 10.17 0 .91 1.14 1 1.11 0-.11-3.39-.21-6.78-.32-10.17-.02-.86-1.13-.93-1.1 0z"/><path d="m155.09 352.9c-.4-1.07-4.12-8.06-4.12-8.06h-29.62l-4.64 8.41h8l3.15 6.37 14-.17 2.14-5.45z"/><path d="m121 333.6c.11 3.74.23 7.47.34 11.21 0 .91 1.13 1 1.1.05-.11-3.75-.22-7.48-.34-11.22-.1-.91-1.17-.97-1.1-.04z"/><path d="m149.62 332.77q.18 5.6.35 11.21c0 .91 1.13 1 1.1 0-.11-3.74-.23-7.47-.34-11.21-.02-.87-1.13-.93-1.11 0z"/><path d="m43.56 318c.62-.76 4.11 0 4.54 1.74s7.5 21.63 7.08 22.41-31.11 12.85-32.18 11.72c-.31-.33-3.93-2-1.52-6 6.06-10.2 22.08-29.87 22.08-29.87z"/></g><path d="m13.53 328 29.47-9.62a2.28 2.28 0 0 1 1.62-.11 2.29 2.29 0 0 1 1 1.49c2.67 7.78 5.38 14.13 8 21.9-10.3 6.08-21.3 7.73-31.56 11.91a1.71 1.71 0 0 1 -1.56.11 1.61 1.61 0 0 1 -.52-.78 130.66 130.66 0 0 1 -7.19-22.9" fill="#fff"/><path d="m14 328.52 14.15-4.6c4.28-1.4 8.61-3.18 13-4.22 1.43-.34 2.84-1.07 3.81.2a17.29 17.29 0 0 1 1.2 3.42c.78 2.16 1.6 4.32 2.42 6.47.95 2.53 5.21 10.33 3.16 12.2-1.38 1.27-4 2-5.75 2.74-2.09.88-4.21 1.64-6.36 2.36-4 1.36-8.14 2.5-12.19 3.85-2.06.68-5.17 2.64-7.06.7-1.28-1.31-1.95-5-2.56-6.75a133 133 0 0 1 -4.24-14.89c-.17-.74-1.77-.87-1.58 0a134.94 134.94 0 0 0 4.7 16.35c1 2.88 1.77 8.93 5.83 7.85 5.13-1.36 10.25-3.5 15.33-5.1a82.62 82.62 0 0 0 16.32-6.84.53.53 0 0 0 .29-.69c-1.77-5.11-3.74-10.14-5.63-15.21-.84-2.36-1.38-5.27-2.64-7.36a2.45 2.45 0 0 0 -2-1.43c-1.82-.21-4 1-5.72 1.57l-8.26 2.69-17.11 5.57c-.97.34.16 1.36.89 1.12z" fill="#1a2e44"/><path d="m12.45 329.9 13.43 4c2.4.72 4.86 1.68 7.32 2.19a3.55 3.55 0 0 0 2.3-.06c2.5-1 4.54-4.48 6-6.63a40.93 40.93 0 0 0 4.94-10.28c.28-.87-1.28-.73-1.52 0a40.51 40.51 0 0 1 -3.93 8.6c-1.61 2.62-4.21 7.36-7.67 7-3.2-.38-6.67-2-9.76-2.92l-10.37-3.1c-.78-.26-1.71.91-.74 1.2z" fill="#1a2e44"/><path d="m45.86 320.8s-5.54 12.91-6.63 14.33-4.4.54-4.4.54a69.45 69.45 0 0 0 5.36-5.57c.93-1.38 5.09-9.86 5.09-9.86z" fill="#1a2e44"/><path d="m252.65 324.39c.88-.17 2.09 2.39 1.4 3.87s-7.15 19.72-7.89 20-29.58-8.78-29.68-10.24c0-.41-1.66-3.66 2.39-5.15 10.2-3.7 33.78-8.48 33.78-8.48z" fill="#1a2e44"/><path d="m224.72 314.18 26.52 10.19a2.08 2.08 0 0 1 1.22.85 2.14 2.14 0 0 1 -.13 1.67c-2.58 7.11-4.33 13.11-6.91 20.22-10.83-1.62-19.61-6.79-29.33-9.73-.48-.14-1-.36-1.17-.83a1.55 1.55 0 0 1 .08-.85 118.88 118.88 0 0 1 8-20.52" fill="#fff"/><path d="m224.46 314.68 24.93 9.58c2 .77 2.26 1.49 1.7 3.95-.25 1-.73 2.06-1.07 3.07-.62 1.83-1.22 3.64-1.82 5.47-.66 2-1.32 4-2 6-.2.61-.63 2.63-1.08 3.08-.84.87-1.6.42-2.71.19-7.76-1.67-14.89-5.22-22.32-7.88a24.1 24.1 0 0 1 -2.79-.95c-1.48-.73-1.48-.78-1.25-2.43.32-2.38 1.57-4.92 2.41-7.18a124.11 124.11 0 0 1 5.27-12.13c.35-.71-1.06-1.12-1.37-.48a124.06 124.06 0 0 0 -6.36 15.22c-.49 1.45-2.31 5-1.76 6.41.45 1.2 2 1.39 3 1.73 9.43 3.08 18.22 7.74 28.11 9.33.23 0 .66 0 .77-.31 1.68-4.65 3.19-9.38 4.76-14.07.79-2.33 3.73-6.88 1.57-8.95-1.12-1.08-3.7-1.52-5.18-2.09l-7.42-2.85-14.85-5.7c-.8-.32-1.45.65-.54.99z" fill="#1a2e44"/><path d="m222.85 315.11c2.41 3.53 4.82 7.07 7.24 10.59 1.2 1.77 2.39 3.55 3.61 5.31.66.94 1.06 1.54 2.22 1.73 2.48.42 5.81-.82 8.13-1.57a38.59 38.59 0 0 0 9-4.34c.82-.53-.08-1.28-.78-.83a36.66 36.66 0 0 1 -7.73 3.84c-2.52.89-7.86 2.91-9.65.34-3.68-5.26-7.24-10.6-10.86-15.9-.39-.58-1.63.17-1.18.83z" fill="#1a2e44"/><path d="m251.85 327.72s-11.4 6-13 6.36-3.45-2.15-3.45-2.15a63.4 63.4 0 0 0 7-.87c1.45-.44 9.31-4.08 9.31-4.08z" fill="#1a2e44"/><path d="m146 333.79c1-.29 3.32 2.48 2.68 4.23s-6.11 23.14-6.93 23.58-34.52-7-34.78-8.61c-.07-.47-2.26-4 2.19-6.1 11.18-5.29 36.84-13.1 36.84-13.1z" fill="#1a2e44"/><path d="m113.84 325 31.16 8.87a2.51 2.51 0 0 1 1.48.84 2.45 2.45 0 0 1 0 1.9c-2.21 8.31-3.58 15.39-5.79 23.7-12.48-.73-23-5.7-34.34-8.07-.55-.11-1.19-.29-1.41-.82a1.75 1.75 0 0 1 0-1 136.23 136.23 0 0 1 7.06-24.13" fill="#fff"/><path d="m113.74 325.57 15 4.27c4.47 1.28 9.63 2.07 13.87 4a3.75 3.75 0 0 1 3.15 2.7c-.15.56-.3 1.12-.44 1.68-.28 1.1-.56 2.19-.82 3.28-.57 2.29-1.1 4.59-1.64 6.89-.49 2.12-1 4.23-1.5 6.34a15 15 0 0 1 -.81 3.27c0 1.2-.63 1.74-2 1.63l-1.65-.19c-8.87-1.14-17.23-4.34-25.83-6.61-1-.27-2-.52-3.06-.76-2.19-.5-2.07-1.55-1.85-3.69a44.71 44.71 0 0 1 1.59-6.68 139.7 139.7 0 0 1 5-15.07c.3-.76-1.14-1.23-1.4-.56a141.14 141.14 0 0 0 -5.48 17q-.63 2.5-1.17 5c-.17.84-.8 2.48-.45 3.38.42 1.07 1.59 1.25 2.58 1.48 11.36 2.69 22.28 7.16 34 8a.63.63 0 0 0 .64-.44c1.41-5.33 2.62-10.7 3.89-16.06.58-2.46 1.62-5.12 1.91-7.64.16-1.4.26-2.22-1-3-1.86-1.17-4.79-1.44-6.89-2l-8.09-2.3-17.33-4.93c-.96-.38-1.13.75-.22 1.01z" fill="#1a2e44"/><path d="m111.83 326.13 9.08 11c1.52 1.85 3 3.69 4.55 5.52.91 1.1 1.49 2 3 2.17 2.82.26 6.66-1.53 9.2-2.63a42.61 42.61 0 0 0 9.62-5.76c.79-.61-.11-1.39-.8-.86a41.76 41.76 0 0 1 -8.35 5.16c-3.08 1.41-8.15 4.09-11.05 1.52-2.57-2.27-4.63-5.62-6.81-8.28l-7.2-8.74c-.47-.52-1.76.27-1.24.9z" fill="#1a2e44"/><path d="m146.09 337.64s-12.35 8-14.11 8.56-4.14-2.1-4.14-2.1a72.1 72.1 0 0 0 7.9-1.71c1.61-.65 10.17-5.59 10.17-5.59z" fill="#1a2e44"/><path d="m51 344c-5 .12-15.1.19-15.1.19l-2.72 4.89-12.75-.15-2-4.94s-11.31-1.06-17-1.33c-.73 8 .08 8.24-.59 15.54a1.73 1.73 0 0 0 1.73 1.89c16.74-.08 30-.39 46.31.42a2.91 2.91 0 0 0 2.12-.41 2.88 2.88 0 0 0 .7-2.19c.22-6.22 1-5.86.34-12.06" fill="#fff"/><path d="m50.78 343.44c-5 .11-10.07.15-15.11.19a.57.57 0 0 0 -.42.21l-1.5 2.69c-.24.43-1.71 2.49-.65 2-1.3.62-4.65-.06-6.05-.07-2.15 0-4.38.1-6.53-.08-.27 0 .58.81.48.22a10.45 10.45 0 0 0 -.68-1.67c-.41-1-.81-2-1.22-3a.87.87 0 0 0 -.72-.5c-5.65-.52-11.29-1-16.95-1.33-.34 0-.66.12-.7.5-.27 3.16-.31 6.29-.3 9.46 0 2.09-1.16 6.14.33 7.77a3 3 0 0 0 2.05.85 57.49 57.49 0 0 0 6.82 0c4.92 0 9.84-.09 14.75-.09q6.54 0 13.06.14 3.51.07 7 .21a30.59 30.59 0 0 0 5.4.22c3.11-.49 2.51-3.49 2.73-6a48.32 48.32 0 0 0 .16-9.16c-.07-.71-1.52-.93-1.45-.15a33.42 33.42 0 0 1 .05 7.14 30 30 0 0 1 -.36 4.38c-.84 3.08-3.5 2.58-6 2.47-7.22-.29-14.45-.38-21.67-.37-3.23 0-6.47 0-9.7 0-2.12 0-11 1.24-12-1.18-.38-.95.24-3.11.27-4.21s0-2.2 0-3.29c0-2.7.09-5.36.32-8l-.7.5c4.92.25 9.82.69 14.73 1.13a11.94 11.94 0 0 0 1.88.17c.29 0 .48.22 0-.18-.67-.55-.11.07-.11.3 0 1.25 1.28 3.16 1.76 4.36a.86.86 0 0 0 .72.49l12.75.15c.2 0 .5 0 .61-.21l2-3.62c.2-.35 1-1.4.33-1.05a4.9 4.9 0 0 1 1.38 0c4.56 0 9.11-.07 13.68-.17.95-.11.31-1.24-.44-1.22z" fill="#1a2e44"/><path d="m210.55 342c5 .12 15.1.18 15.1.18l2.72 4.9 12.74-.16 2-4.94s11.3-1.05 16.95-1.33c.73 8-.09 8.25.59 15.54a1.74 1.74 0 0 1 -1.74 1.9c-16.74-.08-30-.39-46.31.42a2.93 2.93 0 0 1 -2.07-.41 2.89 2.89 0 0 1 -.71-2.19c-.22-6.22-1-5.87-.34-12.06" fill="#fff"/><path d="m210.49 342.69c4.56.1 9.12.14 13.68.18 1.53 0 1-.38 1.63.88s1.41 2.56 2.12 3.83a.47.47 0 0 0 .39.19l12.75-.15a.65.65 0 0 0 .51-.39l1.22-3a14.25 14.25 0 0 1 .68-1.67c.35-.61-.66.25-.25.1 2.28-.83 5.68-.51 8.08-.7 2-.17 4.07-.33 6.1-.46 1.08-.07 1.65-.39 2.2.44.35.53.15 2.05.18 2.74a92.38 92.38 0 0 1 .2 10.25c-.19 2.68-1.31 2.4-3.31 2.39h-4.51l-8.12-.06c-5.21 0-10.44 0-15.66 0q-4 .06-7.95.18l-4.38.16c-2 .08-3 .5-4.52-.9s-1.15-2.1-1.3-3.95c-.08-.86-.19-1.73-.28-2.59a31.75 31.75 0 0 1 .12-6.39c.09-1-1.06-.75-1.14.09a43.36 43.36 0 0 0 .1 8.6c.24 2.44-.52 6.23 2.65 6.74 1.7.27 3.65-.14 5.36-.2 2.52-.1 5-.17 7.56-.23 4.35-.1 8.7-.12 13.05-.12s8.86 0 13.3.07c2.43 0 4.93.2 7.35 0a2.77 2.77 0 0 0 2.37-.95 3.87 3.87 0 0 0 .47-2.89c-.14-1.83-.2-3.65-.19-5.48 0-3-.05-6-.31-9.07a.53.53 0 0 0 -.51-.5c-5.66.3-11.31.81-16.95 1.33a.66.66 0 0 0 -.51.39l-1.22 3c-.21.5-.44 1-.61 1.52-.25.7.21 0 .2 0-1.95.45-4.53 0-6.53.08h-3.75a7.12 7.12 0 0 1 -2.3 0c.61.32-.65-1.63-.87-2-.49-.9-1-1.8-1.49-2.69a.45.45 0 0 0 -.39-.19c-5 0-10.07-.07-15.11-.18-.7.13-.9 1.58-.11 1.6z" fill="#1a2e44"/><path d="m108.09 353.62c5.55.13 16.66.21 16.66.21l3 5.39 14.06-.17 2.19-5.45s12.46-.38 18.69-.68c.81 8.84-.09 9.09.65 17.14a2 2 0 0 1 -1.91 2.09 284.44 284.44 0 0 1 -51.07 1 3.74 3.74 0 0 1 -2.29-.46 3.17 3.17 0 0 1 -.79-2.41c-.23-6.86-1.1-7.77-.36-14.59" fill="#fff"/><path d="m108.06 354.35c5 .11 10 .16 15 .19a6.78 6.78 0 0 1 1.56 0c.39.12-.63-.55-.2-.08a5.66 5.66 0 0 1 .57 1l2.3 4.15a.51.51 0 0 0 .48.31l14.05-.17a.64.64 0 0 0 .51-.4 40.38 40.38 0 0 1 2.1-5.18c.3-.5-.68.22-.17.13a4.25 4.25 0 0 1 .8 0 35.77 35.77 0 0 0 3.58-.11c3.22-.11 6.46-.22 9.68-.35l2.51-.11c1 0 1-.19 1.48.53.76 1.25.26 4.58.26 6.13 0 2.63.24 5.35.14 8-.09 2.21-.86 3-2.89 3.23l-3.39.32q-3.8.33-7.6.59-13.44.88-26.91.47-3.87-.12-7.73-.34a14.74 14.74 0 0 1 -3.71-.23 3.86 3.86 0 0 1 -2.55-2.5 13 13 0 0 1 -.1-1.87 74.66 74.66 0 0 1 -.27-12.42c.1-1-1.05-.72-1.13.11a58.15 58.15 0 0 0 .15 11c.24 2.81-.58 6.49 2.87 7.14 4.28.8 9.07.51 13.42.64q7.28.19 14.56 0 7.55-.19 15.08-.79c2.6-.2 5.23-.37 7.82-.7 1.21-.15 2.39-.18 3.16-1.26a4.14 4.14 0 0 0 .4-2.92c-.15-1.88-.23-3.76-.22-5.65 0-3.51 0-7-.34-10.48a.51.51 0 0 0 -.52-.48c-6.23.3-12.47.49-18.69.68a.68.68 0 0 0 -.51.4c-.4 1-.8 2-1.21 3a13.26 13.26 0 0 0 -.77 1.88c-.18.78-.1.22.15.17-2.24.42-4.93.06-7.2.09-1.9 0-4.82.63-6.65.08.49.15.28.3 0-.35a18.27 18.27 0 0 0 -1-1.78l-1.63-2.95a.54.54 0 0 0 -.48-.32c-5.55 0-11.1-.08-16.65-.21-.74-.06-.9 1.39-.11 1.41z" fill="#1a2e44"/><path d="m104 310-35 11" fill="none" stroke="#1a2e44" stroke-dasharray="3 4" stroke-linecap="square"/><path d="m169 308a84.47 84.47 0 0 1 32 10" fill="none" stroke="#1a2e44" stroke-dasharray="3 4" stroke-linecap="square"/><path d="m137 308v15" fill="none" stroke="#1a2e44" stroke-dasharray="3 4" stroke-linecap="square"/><path d="m173.28 290.22c0 3-15.77 3.6-35.66 3.6-9.48 0-21.86.9-28.29 0-7-1-7.71-3.84-7.71-5.4 0-3 47.32-2.95 67-5.52 1.43-.17 4.66 4.35 4.66 7.32z" fill="#1a2e44"/><path d="m103.32 272.43a2.89 2.89 0 0 1 3-2.49c17.12-.3 47.7-.58 57.33-.69 1.83 0 3.33 1 3.49 2.32.49 4.22.21 10.59.45 15.15.11 2-2.14 3.75-4.9 3.74-16.06-.06-46.25.77-56.21 1.05-1.76.05-3.23-.91-3.36-2.2-.33-3.38.01-12.48.2-16.88z" fill="#fff"/><path d="m104.05 272.58c.59-2.93 6.42-2.15 8.81-2.19l8-.11 16.21-.2 15.74-.16c3.41 0 7.39-.66 10.77-.12 3.14.51 2.94 2 3.06 4.18.08 1.52.11 3 .12 4.55s0 2.83 0 4.25c0 1.85.65 4.49-.83 5.93-1.86 1.81-6 1.17-8.39 1.18s-5.12 0-7.67.07c-10.74.14-21.48.39-32.22.67l-7 .18c-2 .06-6 .82-6.84-1.75-.66-2.14-.15-5.22-.1-7.43.06-3 .17-6 .31-9.05 0-.74-1.42-1-1.45-.3-.12 2.72-.22 5.44-.28 8.16s-.46 5.92.08 8.64c.85 4.21 6.79 2.92 9.9 2.84 12.73-.34 25.46-.66 38.18-.82 2.78 0 5.56-.07 8.34-.07 2.5 0 5.49.45 7.69-1s1.81-3.48 1.75-5.82c-.08-3.91.23-7.94-.28-11.82-.63-4.67-6.1-3.63-9.61-3.59l-17.28.18q-11.44.12-22.88.27l-9.9.14c-2.42.05-5.13.07-5.71 3-.12.61 1.33.91 1.48.19z" fill="#1a2e44"/><path d="m112.43 262.18c17.1-.53 35.17.44 44.78.18 1.83-.06 9.53 5.46 9.67 7.7.07 1-1.4.12-4.15.18-16 .32-46.23 1.4-56.19 1.76-1.76.06-3.2-.38-3.32-1-.28-1.67 7.57-8.77 9.21-8.82z" fill="#fff"/><path d="m112.31 262.89c11.76-.33 23.51 0 35.27.18 2.16 0 4.31.06 6.46.05 1.64 0 3.11-.23 4.61.49a22.53 22.53 0 0 1 4.41 3 19.19 19.19 0 0 1 1.83 1.65c.57.58 1.19 1.84 1.55 1.6-.33.22-2.23-.26-2.63-.29-1 0-1.94 0-2.9 0l-6.09.15q-6.72.18-13.44.39-13.09.4-26.21.87c-1.64.06-11.22 1-10.93-1 .18-1.25 3-3.3 3.9-4.11 1.12-1 2.74-2.71 4.32-3 .69-.11.78-1.53-.07-1.39-2.9.47-6.19 4.33-8 6.41-1.46 1.7-3 3.91.1 4.68 1.72.44 3.85.08 5.61 0l6.84-.24 16.1-.55c10.74-.35 21.64-1.17 32.37-.62 2.9.15 2-2.24.6-3.79-2-2.24-5.51-5.3-8.6-5.74-2.65-.37-5.66 0-8.35 0-3.61 0-7.23-.13-10.85-.2-8.57-.16-17.14-.25-25.71 0-.67.05-.97 1.49-.19 1.46z" fill="#1a2e44"/><path d="m113.08 279.82c0 1-1 1.55-2 1.55a1.74 1.74 0 1 1 0-3.47 2.17 2.17 0 0 1 2 1.92z" fill="#1a2e44"/><path d="m119 279.83c0 .95-1.06 1.54-2 1.54a1.74 1.74 0 1 1 0-3.47 2.17 2.17 0 0 1 2 1.93z" fill="#1a2e44"/><path d="m125.64 279.83c0 .95-1.06 1.54-2 1.54a1.74 1.74 0 1 1 0-3.47 2.18 2.18 0 0 1 2 1.93z" fill="#fff" stroke="#1a2e44" stroke-linecap="square"/><path d="m102.77 253.64a2.75 2.75 0 0 1 2.88-2.36c16.17-.28 45.09-.55 54.18-.65 1.73 0 3.15.93 3.3 2.2.46 4 .2 10 .43 14.31.1 1.92-2 3.54-4.63 3.54-15.19-.06-43.72.73-53.14 1-1.66.05-3.05-.86-3.18-2.09-.35-3.2-.02-11.79.16-15.95z" fill="#fff"/><path d="m103.31 253.91c.55-2.72 6-2 8-2 2.65 0 5.3-.08 8-.1l15.73-.19 14.48-.16c3.28 0 7.13-.63 10.37-.1 3.74.6 3 5.56 3 8.42 0 2.53 1.15 7.78-1.19 9.39-1.89 1.3-4.93.77-7.11.78-2.4 0-4.81 0-7.21.07-10.3.13-20.61.37-30.91.64l-6.37.17c-2 .05-4.5.61-6-.78-1.8-1.65-1.05-5.64-1-8 .06-2.78.16-5.55.28-8.33 0-.85-1.09-1.12-1.13-.16-.12 2.78-.22 5.55-.28 8.33 0 2.46-.43 5.39.14 7.81.93 4 6.81 2.61 9.78 2.53 12.1-.32 24.21-.62 36.32-.76 2.72 0 5.43-.06 8.15-.06 2.26 0 4.84.28 6.61-1.43s1.12-4.09 1.09-6.25c0-3.5.4-7.38-.33-10.83-.82-3.89-5.57-3-8.56-2.95l-16.41.17q-11 .12-21.94.26l-9.8.14c-2.21 0-4.25.36-4.75 2.85-.2.76.85 1.48 1.04.54z" fill="#1a2e44"/><path d="m111.36 243.93c16.16-.5 33.24.42 42.33.17 1.72 0 9 5.16 9.14 7.27.06.94-1.32.12-3.93.17-15.16.31-43.69 1.33-53.11 1.67-1.65.06-3-.35-3.13-1-.26-1.52 7.15-8.21 8.7-8.28z" fill="#fff"/><path d="m111.46 244.66c11-.31 21.9 0 32.86.16 2 0 4.05.06 6.08.05 1.72 0 3.3-.24 4.89.53a21.32 21.32 0 0 1 4.29 2.94 10.45 10.45 0 0 1 1.78 1.67c.82 1.14.61 1-.71.89a86.37 86.37 0 0 0 -10.65.1q-6.36.18-12.71.38-12.3.39-24.61.83l-4.79.17c-.66 0-1.33.07-2 .07s-1.83.27-2.2-.31-.16-.38.23-1.08a17.1 17.1 0 0 1 3.73-3.82c1-.9 2.41-2.37 3.82-2.61.73-.12.51-1.58-.22-1.46-2.65.45-12.88 9.12-7.28 10.6 3.21.85 7.6-.06 10.88-.18l15-.51c10.66-.35 21.31-.62 31.94-.59 2.6 0 1.25-2.42.16-3.66-1.91-2.14-5.31-5.08-8.26-5.49-2.37-.33-5.08 0-7.48 0-3.39 0-6.78-.11-10.18-.18-8.27-.15-16.55-.25-24.82 0-.7.06-.49 1.52.25 1.5z" fill="#1a2e44"/><path d="m112 260.61c0 .9-1 1.46-1.91 1.46a1.65 1.65 0 0 1 0-3.29 2.05 2.05 0 0 1 1.91 1.83z" fill="#1a2e44"/><path d="m117.59 260.61c0 .9-1 1.46-1.91 1.46a1.65 1.65 0 0 1 0-3.29 2.05 2.05 0 0 1 1.91 1.83z" fill="#1a2e44"/><path d="m123.87 260.61c0 .9-1 1.46-1.91 1.46a1.65 1.65 0 0 1 0-3.29 2.05 2.05 0 0 1 1.91 1.83z" fill="#fff" stroke="#1a2e44" stroke-linecap="square"/><path d="m104.79 235.24a2.76 2.76 0 0 1 2.88-2.36c16.18-.28 45.09-.54 54.18-.65 1.73 0 3.15.93 3.3 2.2.46 4 .2 10 .43 14.32.1 1.92-2 3.54-4.63 3.53-15.18-.06-43.72.73-53.14 1-1.66 0-3-.86-3.17-2.08-.35-3.2-.03-11.8.15-15.96z" fill="#fff"/><path d="m105.53 235.29c.53-2.64 6.51-1.93 8.43-2l7.6-.11q7.88-.1 15.74-.18l14.4-.16h5.34c1.39 0 3.34-.39 4.69-.05a4.16 4.16 0 0 1 2.77 2.51 10.06 10.06 0 0 1 .12 1.66c.07 1.38.08 2.75.1 4.13 0 2.37 1 7.88-.73 9.61s-6.05 1-8.33 1c-2.45 0-4.9 0-7.35.08-9.72.13-19.45.35-29.18.61-3.17.08-12.33 1.73-13.8-1.79-.75-1.8-.11-5.23-.07-7.14.06-2.78.16-5.55.28-8.33 0-.72-1.44-.56-1.47.18-.12 2.78-.22 5.56-.27 8.33 0 2.36-.68 6 .28 8.2 1.36 3.17 7.21 1.87 9.87 1.8 12.3-.34 24.6-.64 36.91-.78q4 0 8 0c2.16 0 4.53.12 6.23-1.49s1.13-4 1.1-6.18c0-3.4.57-7.53-.33-10.83-1-3.69-6.28-2.63-9.16-2.6l-16.67.17-21.92.26c-3.22.05-6.45 0-9.67.15-2 .07-3.94.61-4.39 2.87-.13.79 1.34.79 1.48.08z" fill="#1a2e44"/><path d="m114 227c16.17-.5 32.63-1 41.72-1.28 1.72 0 9 5.16 9.14 7.28.06.94-1.33.12-3.93.17-15.17.31-43.69 1.33-53.11 1.67-1.66.06-3-.36-3.13-.95-.24-1.56 7.8-6.83 9.31-6.89z" fill="#fff"/><path d="m113.93 227.6 32.74-1c3.34-.1 7.9-1.1 10.91.57a23.7 23.7 0 0 1 4.07 2.9 13.51 13.51 0 0 1 1.71 1.67c.15.19.71.75.69 1s.12-.12-.38 0a14.56 14.56 0 0 1 -2.58-.18c-.75 0-1.51 0-2.27 0l-5.76.14q-6.33.16-12.63.37-11.93.38-23.83.8c-1.52.05-9.94 1.15-10.54-.31-.38-.92.35-1.23 1.13-1.89s1.45-1.14 2.21-1.66c1.19-.83 3-2.27 4.53-2.48.74-.1 1.19-1.32.24-1.19-2.83.4-6 2.94-8 4.74-1.54 1.34-3.36 3.38-.34 4.14 3.36.84 7.81-.06 11.24-.19l14.7-.5c10.34-.34 21-1.42 31.36-.67 2.34.17 3.2-.85 1.57-2.91-1.79-2.28-5.39-5.29-8.34-5.85-2.23-.43-5 .09-7.21.16l-10.39.32-24.54.76c-.82.1-1.22 1.29-.29 1.26z" fill="#1a2e44"/><path d="m114 242.21c0 .91-1 1.47-1.91 1.47a1.65 1.65 0 0 1 0-3.29 2 2 0 0 1 1.91 1.82z" fill="#1a2e44"/><path d="m119.63 242.21c0 .91-1 1.47-1.91 1.47a1.65 1.65 0 0 1 0-3.29 2 2 0 0 1 1.91 1.82z" fill="#1a2e44"/><path d="m125.91 242.21c0 .91-1 1.47-1.91 1.47a1.65 1.65 0 0 1 0-3.29 2 2 0 0 1 1.91 1.82z" fill="#fff" stroke="#1a2e44" stroke-linecap="square"/><path d="m164.18 267s2 1.92 1.81 2.56-3 .39-3 .39z" fill="#1a2e44"/><path d="m78.25 157.65c38.51 5.78 91.5-21.92 97.33-60.84s-26.82-72.69-65.33-78.47-74.46 21.1-80.25 60.02 9.73 73.52 48.25 79.29z" fill="#22d172"/><path d="m73 170.55s-4.07.68.51 2.36c11.18 4.11 39.3 11.46 40 11.32 2-.37 72.07-29.35 71.43-31.26s-5.79-1.8-5.79-1.8l-71.23 30.31z" fill="#1a2e44"/><path d="m20.69 94c-4.55 1.15-6.17 1-8.15 5.26-1.38 3-.55 6.43-.16 9.7 2.34 19.31 5.57 33.31 11.69 52.3l8.39-2" fill="#fff"/><path d="m20.49 93.26c-4.33 1.08-7.57 2.1-8.91 6.84-.87 3.09-.1 6.39.29 9.49.44 3.45.9 6.89 1.44 10.33a274.38 274.38 0 0 0 10.21 41.59c.12.36.36.6.75.51 2.8-.67 5.59-1.35 8.39-2 .71-.17.43-1.69-.38-1.49l-8.39 2 .74.51a281.83 281.83 0 0 1 -9.14-35.24c-1.15-6.33-2-12.69-2.81-19.06-.43-3.36-.56-7.31 2.18-9.81 1.56-1.43 4.05-1.69 6-2.18.74-.18.45-1.69-.37-1.49z" fill="#1a2e44"/><path d="m26.57 92.63c-4.54 1.16-6.4-.19-8.37 4.07-1.39 3 .1 5.07.5 8.34 2.81 22.46 7.81 38.94 13.45 54.77l22.85-4.36z" fill="#1a2e44"/><path d="m26.47 92.05c-4.29 1-8.47.69-9.49 6.06-.57 3 .86 6.49 1.26 9.45q.84 6.21 2 12.36a265.81 265.81 0 0 0 11.16 40 .72.72 0 0 0 .88.43l22.8-4.35c.41-.08.8-.43.6-.87q-12.43-27.52-24.89-55l-3.51-7.78c-.31-.67-1.77-.18-1.43.58l24.89 55c1.18 2.59 2.34 5.19 3.52 7.78l.61-.87-22.87 4.39.88.43a273.23 273.23 0 0 1 -9.88-33.77c-1.41-6.55-2.5-13.16-3.4-19.81-.48-3.48-2.29-7.34 0-10.52 1.56-2.13 4.65-1.81 7-2.36 1.02-.2.82-1.37-.13-1.15z" fill="#1a2e44"/><path d="m72.58 167c.13 2 .06.67.2 2.7a2.13 2.13 0 0 0 .19.87 2 2 0 0 0 1.34.77c4 1.07 8.07 2.11 12 3.43 7.64 2.55 13.56 6 21.59 6.73a4 4 0 0 1 -.16-1.13 27.07 27.07 0 0 1 -.32-4" fill="#fff"/><path d="m72.1 167c.11 1.58-.16 3.64 1.29 4.63 1.27.87 3.73 1.06 5.22 1.46 2.19.6 4.39 1.21 6.55 1.91 7.64 2.45 14.72 6.23 22.8 7.1.39 0 .46-.58.4-.82a20.73 20.73 0 0 1 -.44-5c0-.78-.94-.72-.94.05a22.47 22.47 0 0 0 .5 5.3c.13-.27.27-.54.4-.82-6.85-.74-12.93-3.63-19.32-6-3-1.11-6.11-2-9.22-2.86-1.3-.36-3.82-.55-5-1.32s-1.26-2.49-1.35-3.77c.01-.7-.99-.65-.89.14z" fill="#1a2e44"/><path d="m174.38 152.88c-25.94 9.58-60.66 22.61-68.35 23.4l-32.8-9.28a.36.36 0 0 1 0-.7l79.52-17.69z" fill="#fff"/><path d="m174.25 152.2c-19.11 7.06-38.15 14.49-57.6 20.59-3.75 1.18-8.27 3.35-12.19 2.24l-16.74-4.74-9.84-2.79c-1.11-.31-3.82-.62-4.44-1.48 0 .35 0 .7-.07 1 .23-.29 2.55-.65 3.38-.84l8.88-2 26.73-5.95 27-6 9.24-2.06a25 25 0 0 1 4.06-.9c2.45-.09 6.93 1.4 9.78 2l11.72 2.33c.73.15 1.23-1.32.4-1.48l-9.89-2c-3.65-.73-7.79-2.2-11.52-2.29-3.48-.08-7.63 1.59-11 2.34l-55.05 12.32-10.54 2.34c-1.28.29-3.14.3-4 1.37a.87.87 0 0 0 -.07 1c.65.88 2.28 1 3.26 1.27l8.08 2.29 18.74 5.31a16.56 16.56 0 0 0 3.43.93c2.32.11 5.13-1.1 7.29-1.74 8.6-2.52 17.05-5.57 25.48-8.59 12-4.29 23.84-8.72 35.75-13.12.69-.25.65-1.69-.27-1.35z" fill="#1a2e44"/><path d="m54.39 154.77c-8 .49-16.44 4.78-43.77 9.58z" fill="#fff"/><path d="m54.48 154c-4.86.33-9.57 1.81-14.25 3.06q-14.62 3.9-29.52 6.51c-.72.13-1.07 1.62-.19 1.47 9.65-1.71 19.21-3.78 28.68-6.29 4.95-1.31 9.95-2.94 15.09-3.29.71-.01 1.09-1.46.19-1.46z" fill="#1a2e44"/><path d="m89.16 152.38s12.67 1.5 9.91 4.23-36.24 4.09-44.06.93-1.49-6.37-1.49-6.37l4.78 4.35c11.84.29 20.15-1.33 30.86-3.14z" fill="#1a2e44"/><path d="m30.55 86.8a12.71 12.71 0 0 1 .92-2c3.53-5.8 12.59-11.64 22.92-10.41 7.93.94 9.61-3.65 18.91-3.39 5.34-6 10.44.53 28.62 1.44 3.68.18 9 .11 11.46.7 5.09 1.19 9.65 8.31 11.31 13 4.88 8.2 10.69 9.6 11.95 11.79l18.1 6c-7.23 7.91-6.28 24.21-4.47 29.75-7.86.06 3.44 2.41-1-5.33-.59-1-28.05-1.73-28.7-3-7.23 5.1-37.12 3.51-47.34 5.07-7.16 7-9.32 22.2-8.85 27.52-7.67-1.71-33.12-10.77-35.73-19.31-3.65-11.93-7.04-40.13 1.9-51.83z" fill="#fff"/><path d="m31.18 86.83c2.37-5.8 8.65-9.7 14.51-11.17 5.29-1.34 10.62.39 15.8-1.35 1.77-.6 3.46-1.38 5.26-1.87a20.21 20.21 0 0 1 4.3-.7 6.5 6.5 0 0 0 2.53-.2c1.33-.66 1.92-1.88 3.55-2.19a12 12 0 0 1 4.76.37c4.18.91 8.27 2.09 12.51 2.72 5.78.87 11.69.34 17.44 1.2 5.52.82 9.22 6.24 11.4 11a26.92 26.92 0 0 0 9.29 11c1.22.86 2.39 2.11 3.59 2.9 2.07 1.37 5.56 1.86 7.95 2.65l10.28 3.38c0-.35 0-.7-.07-1-6.62 7.63-7.58 21.06-4.69 30.46.3-.35.59-.68.88-1-.86 0-2.89-.23-3.52.63-.16.2-.36.61-.17.85 1.24 1.58 3.89-1.22 4.14-2.4s-.27-3.69-1.36-4.42a7.2 7.2 0 0 0 -2.91-.54c-4.77-.53-9.57-.73-14.36-1.06-2.41-.17-4.82-.34-7.23-.59-.71-.07-3.48 0-3.93-.61a.62.62 0 0 0 -.9 0c-5.16 3.42-13.37 3.21-19.28 3.54-7.34.41-14.71.41-22 .84-1.79.11-4.62-.14-6.17.83-2.61 1.66-4.46 6.21-5.57 8.93-2.4 5.91-4 12.88-3.49 19.29l1-1a96.88 96.88 0 0 1 -14.79-4.94c-5.76-2.35-11.73-5-16.59-9-4.33-3.54-5.11-8.31-6.06-13.58a104.37 104.37 0 0 1 -1.74-20.57c.14-7.39.93-15.82 5.45-22 .56-.77-.31-1.55-.9-.76-7.86 10.7-6.58 27.11-4.85 39.51.69 4.94 1.09 11.84 4.35 15.88 3.69 4.58 9.76 7.42 15 9.82a102 102 0 0 0 19.41 6.88.9.9 0 0 0 1-1 42.25 42.25 0 0 1 4.36-20.64 20.51 20.51 0 0 1 3.25-5.09c1.09-1.12 2.26-1 3.8-1.14 3-.23 5.92-.32 8.89-.41 7.1-.23 14.23-.34 21.3-1 4.66-.44 10.19-.79 14.22-3.46l-.9-.06c1 1.22 4.33 1 5.68 1.17 4.26.41 8.54.65 12.81.93 1.95.14 3.9.27 5.84.44a13.82 13.82 0 0 1 3.91.45c1.62.71 1.75 3 .78 4.3-.21.27-1 .1-1.12.28-1.36 1.78 1.52 1 2.22 1 .46 0 1-.52.88-1-2.75-8.89-2-21.83 4.24-29.06.23-.27.4-.9-.07-1.05q-4.85-1.6-9.68-3.18c-2.58-.85-6.1-1.36-8.36-2.83-1.1-.72-2.16-1.82-3.27-2.59a30 30 0 0 1 -5.6-4.89c-2.3-2.66-3.33-5.67-5.07-8.63-2.35-4-5.69-8-10.5-8.84-6.3-1-12.8-.4-19.15-1.46-4.35-.73-8.58-2.26-13-2.85-3-.41-4.43.51-6.91 1.91-1.63.91-4.44.58-6.41 1.09-2.34.6-4.5 1.72-6.82 2.34-3.34.9-6.59.07-10 .26a25.81 25.81 0 0 0 -8.89 2.19c-4.93 2.18-9.54 5.94-11.61 11-.3.97 1.07.82 1.36.09z" fill="#1a2e44"/><path d="m56.12 105.6c.83 2.86 1.67 5.67 2.51 8.41 1.09 3.59.82 6.21 0 7.51a2.17 2.17 0 0 1 -3.05.81c-.66-.6-1.1-1.71.54-2.55 1.25-.63 3.38 1.1 6.43 2.9" fill="#fff"/><path d="m55.36 105.77c1.09 3.72 2.89 7.76 3.15 11.65a8.67 8.67 0 0 1 -.08 2.44l-.15.58c-.13.93-.35 1-.68.36-.53-.55-.42-.6.32-.15l1.34.76c.92.55 1.82 1.13 2.74 1.69.64.38 1.91-.37 1.08-.86-1.89-1.14-5.08-4.11-7.53-2.86a2 2 0 0 0 .64 3.82c7.94 1.29 1.33-15.53.67-17.79-.21-.7-1.73-.41-1.5.36z" fill="#1a2e44"/><path d="m58.78 19.86c-1.78-3.06-1.67-7.86-1.31-9.93.52 1.58.78 3.74 2.68 4.08s4.08-1.39 3.72.66-3.28 8.24-5.09 5.19z" fill="#1a2e44"/><path d="m61.12 16.07c-1.52-2.1-1.57-5.39-1.34-6.78.46 1.08.73 2.56 2.23 2.8a11.75 11.75 0 0 0 4-.45c1.08-.17-3.37 6.52-4.89 4.43z" fill="#1a2e44"/><path d="m91.38 18.69q.84 6.82 1.36 11.1c.53 4.28 6.32 20.69 3.25 26.46a10.3 10.3 0 0 1 -9.63 5.83 85.78 85.78 0 0 0 3.06 11.62 21 21 0 0 0 2.29 5.71s4 5-5.43 5.56-21.37-12.6-21.37-12.6c1.23-7.71.7-1.5.7-5.6v-15.48l-3.9-20.91q7.17-11.29 15.65-14.63 6.38-2.5 14.02 2.94z" fill="#fff"/><path d="m90.79 18.93c.51 4.19.77 8.5 1.64 12.63.68 3.23 1.63 6.4 2.36 9.62.84 3.7 1.71 7.63 1.46 11.45-.35 5.31-4.79 8.46-9.85 8.67-.45 0-.7.64-.63 1a71.29 71.29 0 0 0 4.23 15.26c.48 1.08 1.47 2.25 1.75 3.41.72 3-4.11 3.26-6.12 3.23-5.69-.08-11-4.08-15.18-7.59-1.33-1.15-3.45-2.61-4.45-4.14-.56-.94-.29-.18-.38-1.07 0-.58.71-2.93.33-2.56l-.8-.22c0-.27.09-.54.13-.81l.84-.07s.06-2.9.06-3.63v-6a52.35 52.35 0 0 0 -.18-7.87c-.68-4.52-1.68-9-2.52-13.52-.33-1.76-1.1-3.91-1.07-5.71 0-1 0-.36.26-1.11.78-2 2.82-4 4.19-5.54a27.43 27.43 0 0 1 10.2-7.75c5-2 9.69-.13 13.92 2.76.69.47 1.3-1 .68-1.37-3.66-2.55-8.05-4.57-12.66-3.53-3.64.81-7 3.18-9.73 5.64a42.28 42.28 0 0 0 -4.79 5.21c-1 1.32-3 3.29-3.36 4.9-.24 1.14.43 2.79.63 3.9l3 16.08c.61 3.3.24 6.84.24 10.18 0 2.33-.11 4.68 0 7a2.88 2.88 0 0 0 .22 1.51c.21.33.64.19.84-.06a1.14 1.14 0 0 0 .17-1.07.5.5 0 0 0 -.8-.21c-.9.84-1.44 4.26-1.09 5.22s2.24 2.34 3.09 3.13c4.67 4.34 10.8 9.41 17.46 9.81 3.71.21 9.79-1.19 7.76-6.06a64.68 64.68 0 0 1 -2.72-6.4c-1.12-3.81-2.26-7.54-3-11.45l-.63 1c4.44-.18 8.35-2.33 10.27-6.46 1.44-3.11.93-7.03.44-10.34-.67-4.36-1.85-8.61-2.91-12.88-1.19-4.81-1.53-9.8-2.13-14.71-.11-1-1.27-.27-1.17.52z" fill="#1a2e44"/><path d="m74.75 21.46c-1.26 9.14-.32 9.54-5.16 13.4 7.34 8.38-5.79 16-10.31 13.29-5.28-3.15-8.23-18.69-8.23-20.35 0-3 .86-12.9 9.74-11.56 2.44-7.27 5.39-8.52 13-9.32 10-1 7.67-2.53 14.91-5.84 3.08-1.4 8 4.79 8 11.27 0 5.28-5.32 9.11-21.95 9.11z" fill="#1a2e44"/><path d="m86 62.14-5.38.22a9.81 9.81 0 0 0 2.52 1.86 10.63 10.63 0 0 0 3.25 1.11z" fill="#1a2e44"/><path d="m86.29 62.09-5.23-.25" fill="none" stroke="#1a2e44" stroke-linecap="round" stroke-width="2"/><path d="m78.72 30.42c-1.45.15-4.08-.1-3.31-.69s1-1.13 2.35-1.25 2.51-.26 2.58.26-.17 1.55-1.62 1.68z" fill="#1a2e44"/><path d="m69.75 52.25c-3.39.42-8.27-3.4-8.19-7.16s2.46-5.19 5.85-5.6a6.18 6.18 0 0 1 6.89 5.39c.43 3.39-1.16 6.95-4.55 7.37z" fill="#fff"/><path d="m69.94 51.53c-5.75.33-11.62-9-4.15-11.06 2.81-.77 5.77 0 7.22 2.7 1.67 3.08.45 7.69-3.24 8.39-.75.14-1 1.56 0 1.38 3.86-.74 5.78-4.7 5.24-8.41-.62-4.19-4.53-6.4-8.51-5.58-3.43.71-6 3.37-5.51 7.07.49 3.86 4.81 7.16 8.61 6.94.68-.05 1.23-1.48.34-1.43z" fill="#1a2e44"/><path d="m71.67 38.26-2 3.84 1.21 8.25 1.32 3.13c3.72-2 5.26-5 4.65-9s-2.35-6.15-5.18-6.22z" fill="#fff"/><path d="m69.14 43.83a5.3 5.3 0 0 0 -1.23-.33 4.53 4.53 0 0 0 -1.18.15" fill="#fff"/><path d="m69.54 43.16a4.54 4.54 0 0 0 -2.75-.2 1 1 0 0 0 -.73.82.5.5 0 0 0 .62.55 3.33 3.33 0 0 1 2.09.16c.7.26 1.55-1.05.77-1.33z" fill="#1a2e44"/><path d="m82.09 38.16c-.71.09-.77-.34-.83-.86s-.14-1.13.57-1.22.78.52.85 1.05.11.94-.59 1.03z" fill="#1a2e44"/><path d="m93 37c-.67.26-.82-.14-1-.63s-.24-1.13.26-1.33.88.32 1.07.82.35.93-.33 1.14z" fill="#1a2e44"/><path d="m84.75 34.08c1.45 3.1 2.6 5.74 3.47 7.93.47 1.2-.08 2.22-1.67 3.08" fill="#fff"/><path d="m84.07 34.45c.71 1.54 1.42 3.08 2.09 4.64.77 1.76 2.44 4.06.12 5.48-.82.51-.28 1.55.56 1 1.52-.93 2.6-2 2.1-3.89-.74-2.72-2.31-5.45-3.5-8-.32-.68-1.7.06-1.37.77z" fill="#1a2e44"/><path d="m81.39 48.7a10.22 10.22 0 0 0 1.81 1.72 3.92 3.92 0 0 0 2.8.58" fill="#fff"/><path d="m81 49.35a8.24 8.24 0 0 0 2.34 2.06 4.89 4.89 0 0 0 2.7.37c.73-.05.69-1.59-.15-1.53-1.84.15-3-.83-4.15-2.18-.55-.68-1.19.72-.74 1.28z" fill="#1a2e44"/><path d="m87.6 31c1.45-.19 2.75-.42 2.63-1.33s-.9-1-2.15-1.1-2.08-.05-2.24.63a1.53 1.53 0 0 0 1.76 1.8z" fill="#1a2e44"/><path d="m80.82 41.84c3.29-1.15 5.35-4.53 4-8a6.41 6.41 0 0 0 -7.67-3.69 6 6 0 0 0 -4.09 7.67 6.44 6.44 0 0 0 7.77 4c1-.23.16-1.3-.63-1.12-6 1.4-8.2-7.72-2.42-9.41 6-1.76 8.07 7.43 2.42 9.41-.97.36-.15 1.41.62 1.14z" fill="#1a2e44"/><path d="m94.31 40.62a6 6 0 0 0 4.12-7.33 6 6 0 0 0 -7.35-3.9 6 6 0 0 0 -4.35 6.8 6 6 0 0 0 7.38 4.48c.85-.2 1-1.44 0-1.2-5.62 1.3-8.54-7.26-2.83-8.9s8.18 7 2.63 9c-.91.27-.53 1.43.4 1.05z" fill="#1a2e44"/><path d="m85 35.61a6.6 6.6 0 0 1 2.41-.33c.34 0 .78-.18.8-.57s-.44-.59-.76-.61a8.79 8.79 0 0 0 -3.21.48.53.53 0 0 0 -.3.79.94.94 0 0 0 1.06.24z" fill="#1a2e44"/><path d="m142 143.24s-16.57-.58-25.68 4.11c-23.67 12.21-50.66 8.8-50.66 8.8s-1.69-3.43.08-11.23 7.9-16.06 8.53-16.31 34.68 0 34.68 0h1.46" fill="#fff"/><path d="m142.08 142.64c-9.7-.32-19.29 1-28.07 5.18-12.84 6.18-27.43 8.47-41.58 8.18-1.63 0-3.28-.12-4.91-.25a5 5 0 0 1 -1.4-.13c-.45-.2.4.61.13 0-.82-1.91-.63-4.49-.45-6.49a33.78 33.78 0 0 1 3.78-12.22 31.18 31.18 0 0 1 4.61-7.27c.65-.67 0-.3.44-.45a5.68 5.68 0 0 1 1.43 0c3.77-.06 7.54 0 11.31 0 7.64 0 15.29.11 22.93.11.88 0 1.22-1.19.19-1.19-7.23 0-14.46-.09-21.69-.1-4.18 0-8.36 0-12.55 0-2.82 0-3.43 1-5.07 3.5-4 6-7.09 13-7 20.26 0 2.23-.21 4.84 2.25 5.14 11.3 1.42 23.66-.07 34.57-3 8.58-2.31 16.21-7.25 24.93-8.85a76.55 76.55 0 0 1 16-1.15c.85-.05 1.17-1.24.15-1.27z" fill="#1a2e44"/><path d="m52.43 154.06c-2-1.31-.48-6.1 0-7.84a48.76 48.76 0 0 1 2.77-7.58 106 106 0 0 1 6.23-12.37c.93-1.46 2.61-4.66 4.74-4.19a11.42 11.42 0 0 1 2.57 1.44l7.62 4.31c.79.44 1.07-1 .43-1.41-3.21-1.81-6.38-3.79-9.67-5.46-3.48-1.76-5.83 2.91-7.33 5.46a90.77 90.77 0 0 0 -7.47 16c-1.07 3-4 10.65-.3 13.07.74.51 1.03-1.03.41-1.43z" fill="#1a2e44"/><path d="m77.88 127.58c-1.06-1.28-2.61-1.9-3.92-.68a13.54 13.54 0 0 0 -2.61 3.44c-.43.78.52 1.55 1 .66a13.47 13.47 0 0 1 1.65-2.26 3.77 3.77 0 0 1 1-1c.73-.31 1.61.46 2 1 .58.71 1.35-.6.88-1.16z" fill="#1a2e44"/><path d="m76.31 128s-.78-.64-1.3-.53-.75 1.1-.75 1.1z" fill="#1a2e44"/><path d="m107.92 176.79.22 5.26 55.71-19.35-.31-6.11" fill="#1a2e44"/><path d="m182 185.57c.15 1.77-9.8 4.36-24.88 5.69-7.19.64-12.59 0-17.51-.09-5.4-.11-7.3-2.79-7.37-3.72-.14-1.77 15.49-5.95 30.57-7.28s19.07 3.63 19.19 5.4z" fill="#1a2e44"/><path d="m174.6 182.8c.19 3-9.67 6.12-22 7s-22.52-.87-22.7-3.87c-.05-.65-.85-3.64 0-4.28 3-2.3 12.36-2 22-2.7 10-.7 19.24-2.38 22.21-.37.67.42.45 3.66.49 4.22z" fill="#fff"/><path d="m174 182.75c-.11 2.54-6.68 3.86-8.39 4.29a77.14 77.14 0 0 1 -15.43 2.11 65.72 65.72 0 0 1 -13.15-.56c-2.6-.42-6.08-.8-6.73-3.68-.52-2.36.53-3.19 2.75-3.74a37.63 37.63 0 0 1 6.36-.8c4.62-.32 9.26-.41 13.88-.77 4.88-.37 9.76-1.09 14.65-1.21 1.34 0 4-.31 5.23.49s.82 2.52.83 3.87c0 .89 1.21 1.14 1.2.12 0-2.08.44-4.51-1.81-5.44-2.95-1.22-6.83-.56-9.9-.3-5.86.48-11.71 1.08-17.59 1.36-4.46.22-9.25.1-13.6 1.26-2.62.7-3.6 1.55-3.31 4.3.18 1.77.4 3.15 1.94 4.18 2.68 1.78 6.64 2.06 9.72 2.32a82.48 82.48 0 0 0 15.07-.26c5.1-.52 10.47-1.3 15.23-3.33 1.81-.78 4.16-1.86 4.26-4.1.03-.86-1.16-1.13-1.21-.11z" fill="#1a2e44"/><path d="m152.34 185.53c12.36-.87 22.2-4 22-7s-10.39-4.72-22.74-3.86-22.2 4-22 7 10.4 4.72 22.74 3.86z" fill="#fff"/><path d="m173.73 178.49c-.11 2.46-6.25 3.74-8 4.18a73.34 73.34 0 0 1 -13.5 2.09 73.23 73.23 0 0 1 -13.81-.19c-1.58-.19-8.36-.83-8.1-3.1s6-3.49 7.79-3.94a73.79 73.79 0 0 1 14.1-2.13 73 73 0 0 1 13.22.23c1.79.22 7.87.63 8.29 3.06.17 1 1.3.65 1.13-.29-.83-4.8-11.63-4.58-14.85-4.68-8.85-.26-19.23.25-27.39 4-3.31 1.55-5.28 4.65-1.16 6.66 3 1.45 6.63 1.72 9.85 1.94a85.41 85.41 0 0 0 15.25-.45c4.82-.56 9.91-1.34 14.38-3.34 1.74-.77 3.87-1.82 4-4 .07-.82-1.16-1.05-1.2-.04z" fill="#1a2e44"/><path d="m165 178.66c0 1.32-4.91 3-11.51 3-3.14 0-5.24.4-7.38 0-2.34-.43-2.66-2.85-2.66-3.54 0-1.32 8-2.4 14.52-1.62s7.03.83 7.03 2.16z" fill="#1a2e44"/><path d="m182.5 82.42c5.74.13 8.61 0 8.69 3 .84 31.53-3.9 41.87-5.1 59.34-.57 8.28-3.35 7.11-9.2 8.9-18.4 5.63-59 10.25-79 15.82-8.9 2.48-13.43-.49-13.19-5.51 1.72-36.41-2.24-47-2.14-65.54 0-3.2 2.45-7.14 8.08-8.84 14.79-4.5 71.95-7.59 91.86-7.17z" fill="#fff"/><path d="m182.51 83a48.51 48.51 0 0 1 5.25.21c2.23.3 2.58 1.17 2.69 3.27.22 4.34.1 8.74 0 13.08-.19 6.1-.66 12.18-1.45 18.23-.65 5.09-1.55 10.15-2.31 15.22-.72 4.82-.63 10-1.75 14.74s-7.32 5-11.36 6.12c-5.54 1.49-11.19 2.62-16.83 3.7-13.23 2.5-26.54 4.54-39.78 7-5.66 1.06-11.32 2.18-16.9 3.6-3 .78-6.14 1.84-9.33 1.46-4.13-.5-5.3-3.15-5.17-6.87a325.87 325.87 0 0 0 -.62-39.53c-.36-4.42-.82-8.84-1.14-13.27-.3-4.11-1.4-9.76 0-13.7 1.78-5.13 7.62-6.46 12.36-7.37 4.49-.85 9-1.43 13.56-2 24-2.76 48.64-4.46 72.84-4 1 0 .87-1.19 0-1.2-23.66-.5-47.66 1.15-71.15 3.71-5.07.55-10.15 1.17-15.16 2.1-4.06.75-8.49 1.54-11.56 4.56-3.75 3.71-2.85 9.1-2.6 13.91s.74 9.66 1.17 14.49c.52 5.89.92 11.78 1.09 17.69.25 8.53-.5 17.06-.31 25.56.28 12.4 18.84 4.92 25.47 3.54 14.69-3.06 29.56-5.24 44.32-7.95 6.25-1.14 12.5-2.34 18.66-3.9 2.3-.58 4.56-1.3 6.85-1.88 1.83-.45 3.94-.71 5.39-2 2-1.84 2.06-5 2.26-7.47.24-3 .57-6 1-8.92.84-6 1.94-11.93 2.69-17.93a196 196 0 0 0 1.46-24.81c0-2.55 1.07-7.53-1.22-9.43-2.06-1.7-5.93-1.17-8.35-1.22-1.12.07-.97 1.26-.07 1.26z" fill="#1a2e44"/><path d="m185.66 82.41c5.74.13 8.68 0 8.69 3 .14 31.69-.5 42-1.69 59.43-.57 8.28-5 7-10.87 8.8-18.4 5.63-59 10.26-79 15.83-8.9 2.48-13.43-.49-13.19-5.51 1.72-36.41-2.24-47-2.14-65.55 0-3.19 2.45-7.13 8.08-8.84 14.79-4.5 70.21-7.57 90.12-7.16z" fill="#1a2e44"/><path d="m185.55 83c2.45 0 7.61-.82 8.07 2.54.58 4.26 0 9.06 0 13.37 0 6.36-.09 12.74-.27 19.1q-.21 7.08-.61 14.15c-.27 4.84-.09 10.12-1.11 14.86-1.16 5.44-8.35 5.58-12.87 6.79-5.34 1.44-10.76 2.54-16.19 3.58-13.22 2.53-26.52 4.56-39.76 7-5.65 1.05-11.32 2.16-16.9 3.55-4.6 1.15-14.48 4.26-15.51-3.13-.51-3.64.25-7.86.32-11.56s.1-7.22 0-10.83q-.12-8.81-.81-17.6c-.68-8.65-2-17.4-1.74-26.1.3-10.55 17.38-10.8 25.08-11.72a523.77 523.77 0 0 1 72.24-4c.82 0 1.24-1.25.22-1.26-23.77-.5-48 1.18-71.56 3.94-4.78.57-9.58 1.19-14.31 2.15-4.33.92-9.03 2.17-11.63 6.17-2.47 3.78-1.46 9.27-1.2 13.55.28 4.66.75 9.3 1.16 13.95.51 6 .9 11.94 1.06 17.92q.15 5.58.07 11.18c0 4.64-.73 9.51-.42 14.13.33 4.8 4.71 6.44 9 6.2 3-.18 5.93-1.19 8.86-1.9 3.19-.78 6.41-1.47 9.63-2.12 14.28-2.87 28.69-5 43-7.66 6.34-1.17 12.69-2.39 18.92-4 2.31-.6 4.57-1.31 6.9-1.81 2.08-.45 4.33-.83 5.91-2.38 2-2 2.2-5 2.38-7.62.2-2.95.4-5.91.58-8.86.35-5.76.62-11.54.78-17.3.22-8 .27-16 .27-24 0-2.62.35-5.55 0-8.13a3.13 3.13 0 0 0 -1-2.26c-2-1.64-6-1.06-8.31-1.11-.8-.02-1.26 1.22-.25 1.22z" fill="#1a2e44"/><path d="m142 112.22c0-2.63.47-4.43.81-4.75 5.87-5.52 15.8-5.3 17.23-.91.49 1.49 0 4.26.07 6.83.24 8.08.38 55.5.78 64.24.1 2.17-4.32 3.11-8.88 3.34-4.79.24-9.33-1.32-9.37-2.6-.21-6.47-.64-57.74-.64-66.15z" fill="#fff"/><path d="m142.71 112c.06-3 .69-4.75 3.44-6.23a15 15 0 0 1 6.81-1.84 8.26 8.26 0 0 1 5 1.24c2.12 1.56 1.48 4.29 1.41 6.62-.12 4 .09 8 .13 12 .12 12.67.19 25.34.33 38 0 4.73.09 9.48.23 14.21 0 1.26.16 2.25-1.11 3.11-2 1.33-5.63 1.28-8 1.26-1.75 0-6.68-.15-7.64-2.2a4.77 4.77 0 0 1 0-1.51c-.19-10.28-.24-20.57-.34-30.85-.1-11.27-.21-22.54-.27-33.8 0-.8-1.48-.31-1.47.43q.09 17.79.28 35.58.09 10.31.2 20.62 0 3.62.1 7.24c0 1.44-.28 2.89.89 3.9 2.9 2.5 8.8 2 12.23 1.56 2.35-.33 6.21-.88 6.65-3.75a34.13 34.13 0 0 0 -.14-5.44c-.06-3-.1-5.91-.14-8.86-.17-14.46-.22-28.93-.39-43.39 0-2.2-.09-4.4-.11-6.6 0-3.8 1.16-8.11-3.1-9.9-3.3-1.38-7.43-.72-10.63.63-1.56.67-4 1.82-5 3.3s-.85 3.48-.88 5.11c.03.79 1.51.3 1.52-.44z" fill="#1a2e44"/><path d="m142 107.68c0-1 1-1.28 3.8-2.51.18 1.53.52 66.16.91 75-1.46.19-1.38-.35-2.6-.26s-1.52-1-1.57-2.3c-.3-6.54-.54-69.61-.54-69.93z" fill="#fff"/><path d="m142.69 107.62c.13-.92 2.63-1.62 3.35-1.93l-1-.3c.72 7.77.21 15.84.27 23.63.12 12.88.22 25.75.38 38.62.06 4.26.07 8.53.25 12.79l.85-.85c-2 .07-3.24-.5-3.55-2.51a14.72 14.72 0 0 1 0-1.76c0-1.79-.05-3.59-.07-5.39-.07-5.59-.11-11.19-.15-16.79q-.14-18.47-.22-36.91 0-4.38 0-8.75c0-.81-1.48-.31-1.48.43.17 21.24.17 42.49.43 63.73 0 1.84 0 3.68.1 5.52.12 3.25 1.69 3.8 4.82 3.69a.87.87 0 0 0 .85-.85c-.94-22-.54-44.05-.77-66 0-3 .13-6-.14-9 0-.51-.7-.44-1-.3-1.43.62-4 1.21-4.27 3.08-.24.86 1.25.58 1.35-.15z" fill="#1a2e44"/><path d="m268.92 165.12c-.41 3.37-9.38 4.31-21.7 4.13-6-.09-10.46 0-14.54-.06-4.48-.11-6.05-2.33-6.11-3.1-.12-1.47 11.83-4.66 24.35-5.72s16.24 1.35 18 4.75z" fill="#1a2e44"/><path d="m262.36 160.7c.44 2.45-7.41 5.94-17.52 7.79s-18.66 1.35-19.09-1.1c-.1-.53-1-2.92-.41-3.52 2.25-2.18 10-2.82 17.93-4.28 8.22-1.5 15.65-3.74 18.29-2.35.61.32.72 3 .8 3.46z" fill="#fff"/><path d="m261.72 162.13c-.13 2.14-4.86 3.13-6.45 3.56a62.14 62.14 0 0 1 -12.43 1.88 58.25 58.25 0 0 1 -10.81-.25c-2.14-.28-5.75-.49-6.37-2.94-1-3.81 5.12-3.59 7.6-3.77 3.85-.28 7.72-.38 11.57-.7 4.09-.33 8.17-1 12.27-1 1 0 2.93-.23 3.83.33s.77 2 .79 3.13c0 .89 1.21 1.13 1.2.11 0-1.52.29-3.45-1.12-4.4-2.16-1.46-6.15-.68-8.5-.48-4.88.41-9.75.95-14.64 1.21-3.71.19-7.66.12-11.27 1-1.91.49-3.18 1.05-3.11 3.16.06 1.58.3 3.14 1.63 4.1 1.91 1.38 4.85 1.64 7.09 1.88a63.06 63.06 0 0 0 12.44 0c4.57-.41 9.35-1.06 13.61-2.82 1.5-.62 3.75-1.56 3.86-3.45.03-.83-1.14-1.56-1.19-.55z" fill="#1a2e44"/><path d="m244.11 165.05c10.24-.87 18.37-3.58 18.16-6.06s-8.68-3.79-18.92-2.93-18.37 3.58-18.17 6.06 8.69 3.8 18.93 2.93z" fill="#fff"/><path d="m261.68 158.75c-.1 2.05-4.5 3.07-6 3.5a59 59 0 0 1 -11.66 2 63.12 63.12 0 0 1 -10.65.09c-1.5-.13-6.85-.28-7.42-2.13-1-3.36 15.67-5.27 17.47-5.42a61.22 61.22 0 0 1 10.66-.09c1.53.13 7.18.31 7.63 2.41.2 1 1.32.63 1.12-.31-.43-2.07-3.06-2.67-4.81-3.06-5.15-1.13-10.67-.89-15.87-.38a48.56 48.56 0 0 0 -13.43 2.85c-1.56.63-4.27 1.72-4.15 3.82s2.66 2.72 4.18 3.11c4.57 1.17 9.54 1.06 14.2.73a54.87 54.87 0 0 0 15.05-2.74c1.71-.63 4.72-1.68 4.83-3.89.07-.79-1.1-1.5-1.15-.49z" fill="#1a2e44"/><path d="m253.57 159.22c0 1.1-4.08 2.46-9.55 2.46-2.61 0-4.08.33-5.85 0a3.13 3.13 0 0 1 -2.59-2.65c0-1.1 6.72-2.29 12.16-1.64s5.83.74 5.83 1.83z" fill="#1a2e44"/><path d="m255 79.49c4.09.29 6.12.26 6.27 2.71 1.64 25.93.46 33.58.19 47.88-.13 6.78-2.15 3.85-6.24 5.13-12.89 4-32.19 12.71-46.21 16.64-6.24 1.74-9.55-.85-9.55-5 0-29.84-3.13-46.18-3.67-61.39a7.14 7.14 0 0 1 5.45-7c10.37-3.13 39.64 0 53.76 1.03z" fill="#fff"/><path d="m255.06 80.09c1 .07 2 .1 3 .25 1.95.28 2.21 1.29 2.52 3a60.77 60.77 0 0 1 .45 8.33c.19 4.25.31 8.49.33 12.74 0 6.19-.23 12.38-.46 18.56-.05 1.46-.1 2.91-.14 4.37-.05 1.7.32 4.19-.42 5.74-.64 1.33-1.61 1.08-2.89 1.14a15.88 15.88 0 0 0 -4.17.91c-8.94 2.92-17.65 6.56-26.44 9.9-4.47 1.7-9 3.36-13.51 4.82-4 1.29-12.27 4.4-13.07-2.19-.64-5.17-.12-10.71-.31-15.92-.17-4.62-.44-9.22-.78-13.83-.53-7.36-1.31-14.68-2-22-.26-3-.49-6-.62-9-.21-4.63 2.41-7.32 6.87-8.23 8.23-1.68 17.12-.94 25.43-.48 8.72.49 17.42 1.32 26.12 2 1 .08.86-1.13 0-1.2-9-.66-18-1.51-27-2-8.13-.43-16.73-1.06-24.78.49-3.05.58-6.06 1.77-7.48 4.75s-.55 7.08-.3 10.28c.63 8.44 1.6 16.86 2.22 25.32q.59 8 .85 15.93c.09 3 .16 6 .19 8.94 0 2.2-.37 4.76.53 6.84 1.21 2.8 4.3 3.73 7.13 3.54 4.91-.35 10-2.69 14.62-4.34 10.42-3.75 20.61-8.11 31.09-11.7a22 22 0 0 1 5.83-1.51 5.92 5.92 0 0 0 2.92-.41c2.2-1.41 1.44-6 1.51-8.14.24-8.21.66-16.41.55-24.63-.08-6.24-.28-12.51-.75-18.74-.33-4.4-3.17-4.35-7.13-4.63-.97-.17-.8 1.01.09 1.1z" fill="#1a2e44"/><path d="m257.61 78.92c4.09.29 7.12-.08 7.25 4.71.68 26.05 1.59 32.43 1.31 46.73-.13 6.78-3.6 6.57-7.69 7.84-12.89 4-31.92 9.88-45.94 13.8-6.24 1.74-9.56-.84-9.55-5 0-29.84-3.14-46.17-3.67-61.39a7.13 7.13 0 0 1 5.44-7c10.34-3.12 38.69-.72 52.85.31z" fill="#1a2e44"/><path d="m257.32 79.54c1.5.1 3.55-.06 4.94.62 2.38 1.18 1.87 4.49 1.93 6.69q.21 7.17.5 14.32c.25 6.34.6 12.67.73 19q.1 4.2 0 8.4c0 2.07.17 4.67-1.13 6.43-1 1.41-2.87 1.73-4.45 2.17-8.92 2.48-17.71 5.45-26.58 8.12q-7.2 2.17-14.44 4.27c-3.88 1.12-11 4.51-14.12.52-1.27-1.62-1-3.76-1-5.69q0-4.56-.15-9.12c-.13-4.65-.35-9.31-.65-14-.49-7.64-1.26-15.27-2-22.89-.29-3.18-.56-6.36-.75-9.54-.27-4.74.25-8.44 5.58-9.91 7.63-2.11 16.48-1.4 24.3-1.13 9.09.31 18.16 1 27.24 1.68.73 0 1.54-1.18.58-1.25-8.89-.65-17.8-1.34-26.71-1.66-8.07-.3-16.59-.75-24.54.93-3.24.69-6.36 2.2-7.61 5.48-1.12 2.93-.29 6.78-.07 9.82.62 8.16 1.55 16.29 2.16 24.45.4 5.41.71 10.84.89 16.27.1 3 .16 5.92.2 8.89 0 2.35-.46 5.2.56 7.42 1.43 3.14 5.1 3.6 8.14 3.07 5.21-.9 10.4-2.85 15.46-4.35 10.75-3.18 21.43-6.61 32.17-9.82 2.53-.75 5.51-1.13 7.1-3.5 1.84-2.74 1.3-6.83 1.3-10 0-7.93-.44-15.85-.76-23.76-.26-6.23.2-12.83-.67-19-.58-4.12-4.22-4.06-7.63-4.28-.67.06-1.48 1.29-.52 1.35z" fill="#1a2e44"/><path d="m235 104.13c0-2.17.35-3.67.62-3.93 4.55-4.58 12.28-4.36 13.39-.72.39 1.23 0 3.54.08 5.68.2 6.71.42 46.07.75 53.32.08 1.8-3.36 2.57-6.9 2.75-3.72.19-7.26-1.12-7.29-2.17-.14-5.39-.58-47.94-.65-54.93z" fill="#fff"/><path d="m235.75 103.91c.06-2.73.42-3.91 2.89-5.23a10.75 10.75 0 0 1 4.86-1.3c5.48-.06 4.83 3.76 4.86 8 0 3 .1 6.07.14 9.11.12 10.36.2 20.73.34 31.09 0 3.79.1 7.59.21 11.38 0 1.41.32 1.93-1.37 2.91s-4.86.85-6.63.69c-1.45-.14-4-.35-4.66-1.88a5.81 5.81 0 0 1 0-1.72c-.16-8.44-.23-16.88-.33-25.32-.09-9.24-.2-18.47-.27-27.71 0-.81-1.48-.31-1.47.43q.12 14.93.3 29.83.09 8.64.21 17.26c0 2.18-.88 7.35.93 8.92 2.77 2.38 14.17 2.82 14.87-2a30.8 30.8 0 0 0 -.13-4.7c-.05-2.52-.09-5-.13-7.55-.16-11.93-.24-23.86-.4-35.79 0-2.12-.11-4.25-.08-6.36 0-3.07.53-6-2.85-7.34-2.72-1-6-.39-8.54.86-3.37 1.66-4.11 3.26-4.19 6.88-.05.78 1.43.28 1.44-.46z" fill="#1a2e44"/><path d="m235.38 100.74c0-.8 2-2.14 5.06-3.18.17 1.25 0 56.1.32 63.36-1.6.17-2.33-.76-3.65-.68s-1.64-.8-1.68-1.86c-.2-5.38-.05-57.38-.05-57.64z" fill="#fff"/><path d="m236.11 100.69c.31-1.23 3.52-2.22 4.41-2.53l-.82-.39c.69 6.52.09 13.4.09 19.94 0 10.85 0 21.71.08 32.56 0 3.62 0 7.25.15 10.87.28-.28.57-.56.85-.85-1.52 0-4.29-.66-4.7-2.12a6.46 6.46 0 0 1 0-1.32c0-1.41 0-2.82 0-4.23 0-4.59 0-9.19 0-13.8q0-15.49 0-31 0-3.64 0-7.31c0-.8-1.48-.31-1.48.43 0 17.83-.15 35.67 0 53.5 0 1.32-.06 2.69.06 4 .27 2.89 3.48 3 6 3.09a.88.88 0 0 0 .85-.85c-.77-18.5-.19-37.11-.24-55.62a76.8 76.8 0 0 0 -.08-7.74c0-.38-.52-.49-.82-.38-1.82.66-5.15 1.63-5.71 3.83-.33.89 1.18.63 1.36-.08z" fill="#1a2e44"/><path d="m188 273.91c.9.12 1.8.23 2.67.32" fill="none" stroke="#1a2e44" stroke-dasharray="3 4" stroke-linecap="square"/><path d="m195.93 274.8c76.89 7.4-19.48-40.59 20.92-41.17 39.33-.56 71.46-19.24 24.85-32.3" fill="none" stroke="#1a2e44" stroke-dasharray="3 4" stroke-linecap="square"/><path d="m239.18 200.64c-.84-.22-1.69-.43-2.57-.64" fill="none" stroke="#1a2e44" stroke-dasharray="3 4" stroke-linecap="square"/></svg>