<svg xmlns="http://www.w3.org/2000/svg" class="single-testimonial__icon d-block position-absolute" xmlns:xlink="https://www.w3.org/1999/xlink" width="50" height="52" viewBox="0 0 50 52"><defs><clipPath class="a"><rect y="1" width="50" height="50" style="fill: none"/></clipPath></defs><path d="M3.18,25.16a23.5,23.5,0,0,0,7.23,21.06c5.2,4.54,11.88,5.84,18.34,5.78A24.33,24.33,0,0,0,40,49.7,17.77,17.77,0,0,0,48.69,40c2.74-7.25.55-15.61-3-21.68A36.3,36.3,0,0,0,38,9C33.25,5,11.29-3.59,4.22,19" style="fill: #1a2e44"/><path d="M.77,21.84A23.48,23.48,0,0,0,8,42.85c5.2,4.49,11.88,5.84,18.35,5.78a24.31,24.31,0,0,0,11.28-2.3,17.77,17.77,0,0,0,8.65-9.66c2.74-7.24.55-15.61-3-21.68A36.3,36.3,0,0,0,35.6,5.67C30.89,1.63,8.93-6.91,1.81,15.72" style="fill: #fff"/><path d="M.28,21.73c-1.76,11.91,5,23.14,16.37,26.4,10.9,3.08,25.25,1.12,30-10.79C51.21,26.11,44.74,12.24,36,5.11,31.71,1.68,25.58,0,20.21,0,10.63.06,4.27,6.57,1.37,15.5c-.27.73.66,1.35.93.45C4.77,8.48,9.75,2.47,17.75,1.52A26.22,26.22,0,0,1,33,4.72C40.69,8.93,46.28,19,47,27.8c.49,6.45-1.92,12.74-7.17,16.51-4.88,3.48-11.18,4-16.93,3.53-6-.5-12-2.52-16.21-7.18A23.28,23.28,0,0,1,1.32,21.9C1.43,21,.39,20.89.28,21.73Z" style="fill: #1a2e44"/><g style="clip-path: url(.a)"><g><path d="M3.18,25.19a22.1,22.1,0,0,0,7.23,20.25c5.2,4.37,11.88,5.61,18.34,5.56A25.15,25.15,0,0,0,40,48.79a17.33,17.33,0,0,0,8.65-9.29c2.74-7,.55-15-3-20.84a35.25,35.25,0,0,0-7.72-9C33.25,5.81,11.29-2.46,4.22,19.3" style="fill: #1a2e44"/><path d="M.77,22A22.08,22.08,0,0,0,8,42.2c5.2,4.32,11.88,5.61,18.35,5.56a25.11,25.11,0,0,0,11.28-2.21,17.33,17.33,0,0,0,8.65-9.29c2.74-7,.55-15-3-20.84a35.25,35.25,0,0,0-7.72-9C30.89,2.57,8.93-5.64,1.81,16.12" style="fill: #fff"/><path d="M.28,21.9A22.46,22.46,0,0,0,16.65,47.27c10.9,3,25.25,1.08,30-10.36,4.55-10.8-1.91-24.14-10.68-31C31.71,2.62,25.58,1,20.21,1,10.63,1.05,4.28,7.32,1.37,15.9c-.27.7.66,1.3.93.43C4.77,9.15,9.75,3.38,17.75,2.46A27,27,0,0,1,33,5.54C40.69,9.59,46.28,19.3,47,27.73A17.21,17.21,0,0,1,39.82,43.6C34.94,47,28.65,47.44,22.9,47c-6-.48-12-2.43-16.21-6.91a21.74,21.74,0,0,1-5.37-18C1.43,21.19.39,21.09.28,21.9Z" style="fill: #1a2e44"/><path d="M33,20.28a7.26,7.26,0,0,1-2.12.59,3.77,3.77,0,0,0,1.62-2.09,7.37,7.37,0,0,1-2.34.92,3.73,3.73,0,0,0-1.23-.89,3.53,3.53,0,0,0-1.47-.31,3.74,3.74,0,0,0-3.69,3.79,4.12,4.12,0,0,0,.1.86,10.36,10.36,0,0,1-7.61-4,3.88,3.88,0,0,0,1.14,5.07,3.67,3.67,0,0,1-1.67-.49v.05a3.78,3.78,0,0,0,3,3.72,4,4,0,0,1-1,.12,5.36,5.36,0,0,1-.7-.05,3.7,3.7,0,0,0,3.45,2.62,7.26,7.26,0,0,1-4.58,1.62A6.55,6.55,0,0,1,15,31.8a10.25,10.25,0,0,0,5.67,1.7c6.78,0,10.49-5.76,10.49-10.77,0-.16,0-.33,0-.49A8,8,0,0,0,33,20.28Z" style="fill: #1a2e44"/></g></g></svg>